<?xml version="1.0" encoding="utf-8"?>
<!-- Generator: Adobe Illustrator 19.1.0, SVG Export Plug-In . SVG Version: 6.00 Build 0)  -->
<svg version="1.1" id="Arch_xA0_Image_1_" xmlns="http://www.w3.org/2000/svg" xmlns:xlink="http://www.w3.org/1999/xlink" x="0px"
	 y="0px" viewBox="0 0 505.1 225.9" style="enable-background:new 0 0 505.1 225.9;" xml:space="preserve">
<path style="fill:#FFFFFF;" d="M103.7,105.7c-6.6,1.5-12.5,3.1-18.4,4.1c-7.7,1.2-15.4,1.8-23.2,2.5c-1.3,0.1-2.7-1.2-4.1-1.9
	c1.2-0.9,2.3-2.1,3.6-2.7C71,103.9,78.4,97.4,85.9,91c1.2-1,2.4-2.2,3.6-3.3C94.2,93.6,98.5,99.1,103.7,105.7z"/>
<path style="fill:#FFFFFF;" d="M236.6,126.9c-10.6-0.2-21.5-0.1-31-5.8c-8.5-5.1-16.3-11.2-24.4-16.8c-0.7-0.5-1.5-1-1.8-1.7
	c-0.5-1-0.8-2.3-1.1-3.4c1.2,0.1,2.5-0.2,3.5,0.3c5.3,2.4,10.2,6.1,15.7,7.4c14.7,3.3,24.9,15.6,39.9,17.7
	C237,125.3,236.8,126.1,236.6,126.9z"/>
<g>
	<path d="M241.8,124c2.6,6.2,4,7.1,8.7,3.9c7.1-4.8,13.9-10.1,20.7-15.3c1.1-0.9,2-2.7,2.2-4.2c0.7-5.5,4.1-8.8,9.1-11.7
		c0.3,1.4,0.5,2.4,0.7,3.4c1.5,12,8.9,19.8,18.2,26.4c8.4,5.9,17.9,9.2,27.5,12.4c2,0.7,4.3,0.5,7.1,0.8c-0.3,9.1,6.1,13.3,13,17.5
		c9.4,5.7,18.4,11.9,27.5,18c6.1,4.1,7.3,4.2,12.9,0.1c0.9,3.8,1,8.1,2.8,11.5c6.6,11.9,19.9,18,31.4,15c1.3-0.3,2.6-0.7,3.8-1.3
		c6.1-3.1,6.3-6.3,1.5-11.1c-10-10.1-19.5-20.8-29.9-30.5c-7.4-6.9-15.4-13.2-23.9-18.6c-13.3-8.4-24.2-18.6-32.5-32.1
		c-7.3-11.9-15.9-22.9-23.8-34.4c-1.2-1.7-2-3.6-3-5.4c0.4-0.3,0.8-0.7,1.3-1c1.5,1.7,3.2,3.2,4.6,5c8.8,11.2,17.4,22.6,26.2,33.8
		c7.2,9.2,17.6,12.7,28.3,15.2c6,1.4,12.5,0.9,18.7,1.7c1.4,0.2,3.2,2.4,3.5,3.9c1.1,5.4,4.6,8.3,9.1,10.4
		c12.6,5.9,25.4,11.5,38,17.5c5.4,2.6,7.9-0.7,10.5-4.3c0.4,0.5,0.8,0.7,0.8,0.9c-1.6,13.6,9.8,16.9,18.1,21.9
		c7.8,4.7,16.1,2.5,23.2-3.1c4.6-3.6,4.3-5.5-0.2-9c-10.2-8-20.2-16.3-30.3-24.3c-3.2-2.6-6.6-5.1-10.2-7.1
		c-12.3-6.6-25.6-11.7-36.8-19.8c-13.3-9.6-29.1-14.7-41.3-26.5C368.3,73,354,65.6,341,57.1c-11.4-7.5-24.5-7-37.3-6.3
		c-21.7,1.2-43.3,3.1-64.9,4.4c-12.7,0.8-25.5,0.6-38.2,1.5c-14.7,1-26.8-5.7-39-12.1c-7.8-4.1-15.7-7.5-24.6-8.5
		c-17.7-2-34.7-7.1-51.6-12.8C72.6,18.9,59.6,15,46.7,10.6c-5.8-2-11.2-4.9-16.8-7.4c-1-0.5-2-1-3-1.5c0.4-0.6,0.8-1.1,1.3-1.7
		c3.3,1.3,6.6,2.9,10,4c15.1,4.9,30.3,9.8,45.4,14.6c11.5,3.6,23.1,7.4,34.8,10.4c7.3,1.9,15.1,2.2,22.5,3.8
		c6.1,1.3,12.1,3.3,18.1,5.2c6.2,2,12.1,4.8,18.4,6.2c4.5,1,9.4,0.2,14.1,0.3c7,0.1,13.9,0.5,20.9,0.5c26.3-0.3,52.6-1,78.9-1.1
		c11.1,0,22.3,0.3,33.2,1.9c5.8,0.8,11.7,3.8,16.6,7.1c18.7,12.6,37,25.9,55.7,38.5c10.2,6.8,20.9,13.1,31.7,18.9
		c18.6,10,36.9,20.4,53,34.4c6.4,5.5,13.3,10.4,20,15.7c4.4,3.5,4.5,5.1,1.3,9.5c-8.1,11.1-23.1,11.9-32.8,5.1
		c-7.9-5.5-16-10.8-24.2-15.7c-5-3-10.4-4.1-16.7-2.8c-7.9,1.6-16,1.7-24.7,2.6c4,4.5,7.7,8.7,11.5,12.7c5.7,6,11.4,12.1,17.5,17.7
		c3.6,3.4,3.3,6.3,0.3,9.8c-8,9.3-24.3,9.5-34.1,0.8c-8.5-7.6-17.3-15-26.5-21.8c-7.1-5.3-15.2-9.3-22.7-14.2
		c-6.2-4.1-12-8.9-18.2-12.9c-3.7-2.4-7.9-4-12-5.8c-6.8-3.1-13.6-6.1-20.5-9c-1.7-0.7-4-1.3-5.7-0.8c-19.2,5.8-38.7,8.2-58.7,7.1
		c-2.9-0.2-4.3,0.2-4.3,4c-0.2,13.7,8.2,21.8,17.7,29.4c8,6.4,16.5,12.2,24,19.2c6.5,6,7.1,17.8,2.2,23.9c-5.5,6.8-15.8,9-23.9,3.8
		c-9.2-5.9-18.3-12.2-26.4-19.6c-11-10-23.2-17.6-36.2-24.4c-14.8-7.8-27.5-18.5-39.5-30c-10-9.6-20-19.3-30-29
		c-3-2.9-6.4-4.3-10.7-4.5c-26.4-1.2-52.8-2.7-79.2-4c-8.3-0.4-16.6-0.6-24.9-0.9c-1.4-0.1-2.8-0.4-4.2-0.6
		c-0.1-0.4-0.1-0.9-0.2-1.3c1.5-0.4,3.1-1.1,4.6-1c31.9,0.5,63.7,1.1,95.6,1.6c12.9,0.2,23.1,6.2,32.2,14.8
		c16,15.2,31.8,30.5,48.1,45.3c4.6,4.1,10.8,6.4,16.1,9.8c7.1,4.5,14.3,8.8,21,13.8c11.6,8.8,22.7,18.4,34.4,27.1
		c6.9,5.1,15.9,3.1,21-3.5c4.1-5.3,2.2-16.4-4.3-21.6c-8.3-6.7-17.4-12.3-25.4-19.2c-13-11.2-19.9-23.4-13.5-37.6
		C232.3,132.7,237.8,128.6,241.8,124z M291.7,131.7c-5.2-6.6-9.5-12.1-14.1-18c-1.2,1.1-2.4,2.2-3.6,3.3
		c-7.5,6.4-14.9,12.9-24.4,16.6c-1.3,0.5-2.4,1.8-3.6,2.7c1.4,0.7,2.8,2,4.1,1.9c7.7-0.6,15.5-1.3,23.2-2.5
		C279.2,134.8,285.1,133.2,291.7,131.7z M424.6,152.9c0.2-0.8,0.5-1.6,0.7-2.4c-15.1-2.2-25.2-14.5-39.9-17.7
		c-5.5-1.2-10.4-4.9-15.7-7.4c-1-0.5-2.3-0.2-3.5-0.3c0.4,1.1,0.6,2.4,1.1,3.4c0.4,0.7,1.1,1.2,1.8,1.7c8.1,5.7,16,11.8,24.4,16.8
		C403.1,152.8,413.9,152.7,424.6,152.9z"/>
	<path d="M250.6,218.2c-3.3-3.2-8-5.9-9.6-9.8c-1.3-3,0.4-8,2.1-11.4c3.7-7.5,7.3-7.9,14.1-2.9c3.5,2.6,7.2,5,10.8,7.5
		c-0.3,0.6-0.6,1.2-0.9,1.7c-4-1.9-8.3-3.3-12-5.7c-3.2-2.1-5.8-3.3-8.7-0.2c-3.8,3.9-4.4,9.3-1.7,12.4c2.3,2.5,4.5,5,6.8,7.5
		C251.2,217.5,250.9,217.8,250.6,218.2z"/>
</g>
</svg>
