<?xml version="1.0" encoding="utf-8"?>
<!-- Generator: Adobe Illustrator 19.1.0, SVG Export Plug-In . SVG Version: 6.00 Build 0)  -->
<svg version="1.1" id="check_arm_xA0_Image_1_" xmlns="http://www.w3.org/2000/svg" xmlns:xlink="http://www.w3.org/1999/xlink"
	 x="0px" y="0px" viewBox="0 0 412.3 473.9" style="enable-background:new 0 0 412.3 473.9;" xml:space="preserve">
<path d="M100.8,363.6c-5.5-3.3-10.2-5.8-14.6-8.7c-5.9-3.9-8.5-10-8.4-16.7c0.1-6.8,1.3-13.5,2.6-20.2c0.8-4.1,0.4-7-3.6-9.3
	c-17.3-10-19.3-27.1-19.5-44.5c0-3.6,2.7-7.4,4.4-11c2.8-6.2,1.3-9.3-5-11.8c-6.6-2.6-11.9-7.2-12.6-14.8c-0.8-8.8-2-17.7-0.9-26.3
	c0.6-5.1,4.3-10.7,8.2-14.3c7.1-6.4,15.1-11.9,23.3-17c7.5-4.6,15.7-8.1,23.5-12.1c1.7-0.9,3.1-2.6,4.9-3.4
	c3.8-1.6,7.8-3.1,11.8-4.2c2.5-0.7,5.3-0.4,7.9-1.1c6.9-1.9,13.7-4.1,20.5-6.3c5.2-1.7,6-4.5,2.4-7.8c-17.8-16.5-36-32.6-53.3-49.6
	c-16.6-16.3-28.2-35.2-24.2-60c0.8-4.9,2.3-9.8,4.3-14.3C75.2,3.9,86-1.3,92.7,0.3c1.9,0.5,4.2,2.4,5.1,4.2
	c2.6,5.2,4.8,10.6,6.6,16.2c2,6.2,5.5,11,11,14.3c10,5.9,20.2,11.6,30.2,17.4c12.7,7.3,25.1,15.1,38.1,21.8
	c11.9,6.2,24.3,11.7,36.8,16.6c6.5,2.6,12.7,5.1,18.2,9.9c16.1,14,32.9,27.1,48.7,41.4c10.1,9.1,19,19.6,28,29.8
	c5.4,6.2,11.9,9.6,19.8,10.1c12.1,0.8,24.3,1.3,36.4,2.2c2.1,0.2,4.5,1.2,6,2.7c13,13.5,22.8,29.5,33,45c1.6,2.4,1.8,6,1.8,9.1
	c-0.1,11.3-0.4,22.7-0.8,34c-0.8,22.3-10.7,41.6-20.9,60.7c-0.9,1.7-3.5,3.2-5.5,3.5c-15.2,2-30.3,3.9-45.6,5.4
	c-4.9,0.5-8.4,2.6-12.3,5.6c-7,5.2-14.5,10.1-22.5,13.5c-18.7,8-37.8,14.6-58.2,17.3c-6.2,0.8-12.1,3.4-18.3,4.8
	c-19.5,4.2-39,8.1-58.5,12.3c-9.7,2.1-19.4,4.5-29,6.9c-1.7,0.4-3.3,1.5-4.7,2.7c-9.4,7.7-18.3,16-28.2,23
	c-17,12.2-32,27.3-51.9,35.1c-8.7,3.4-18.1,5.3-27.3,7.3c-4.1,0.9-8.7,1.1-12.8,0.4c-7.9-1.4-12.1-7.1-14.3-14.4
	c-3-10-1.9-13.4,6.5-19.6c13.3-10,26.8-19.7,39.9-30c10.1-8.1,19.5-17,29.4-25.4c5.9-5,12.4-9.4,18.4-14.4
	C97.7,368.1,99.1,365.7,100.8,363.6z M178.6,162.3c3.5,7.3,6.8,14.4,10.2,21.4c0.5,1.1,1.7,1.9,2.7,2.7c4.9,3.9,9.9,7.7,14.7,11.7
	c1,0.9,2,2.6,1.9,3.8c-1.3,9.6,3.5,16.9,8.6,24.3c3.5,5,7.4,10.2,9,15.9c2.7,10.2,8.2,17.5,17.3,21.9c7.5,3.6,15.3,6.5,23,9.6
	c1.4,0.6,3.5,0.8,4.8,0.2c12.2-5.6,24.3-11.4,36.5-17.1c3.9-1.8,5.7-5,6-9.1c1.1-13.8,2.6-27.5,3-41.3c0.2-7.2-0.7-14.7-2.9-21.5
	c-3.4-10.8-10.9-19.5-19-27.2c-16.8-15.9-34.3-31.1-51.1-47c-6.4-6-13.5-9.8-21.6-12.9c-16.9-6.5-34.3-12-49.4-22.5
	c-6.9-4.8-7-4.6-13.1,1.5c-0.6-2.4-1.1-4.3-1.6-6.4c-1.4,0.5-2.9,1-4.5,1.5c-0.5-5,0.5-10.1-5.3-12.7c-25.1-11-46.6-26.4-59.9-51.2
	c-0.6-1.2-3.6-2.6-4.1-2.2c-3,2.3-7.4,4.8-8.1,7.9C72.3,30.2,74,46.1,82.5,61c8.1,14.2,19.3,25.8,31.8,36.2
	c4.2,3.5,7.6,3.3,11.6,0.4c3.5-2.6,6.9-5.3,10.5-7.7c2.8-1.9,6.4-4.7,9.2-1.6c0.9,1-1.8,6.2-4,8.4c-2.9,3.1-6.8,5.3-10.4,7.7
	c-3.2,2.2-4.5,4.3-0.9,7.3c10,8.5,19.8,17.2,29.8,25.7c1,0.8,2.9,1.4,4.1,1c9.5-3,19.1-5.9,28.4-9.4c4.7-1.8,9-4.7,13.5-7.2
	c-10,13.6-26.2,16.6-41.6,24c3.6,2.4,5.9,4.8,8.7,5.6c3.9,1.2,8.2,1.5,12.3,1.5c3.3,0,5.2,0.9,4.8,4.9c6.4-1,12.2-2,18.1-2.9
	c0.1,0.7,0.2,1.5,0.3,2.2C198.9,159,189.1,160.6,178.6,162.3z M329.9,279.8c0.3-0.6,0.5-1.1,0.8-1.7c-0.4-0.7-0.7-1.5-1.2-2
	c-7-6.3-15.1-7.8-23.6-4.4c-6.6,2.6-12.9,6.2-19.4,9.2c-1.6,0.8-3.6,1.8-5.1,1.4c-14.7-3.2-30.2-3.5-43-13.1c-2.6-2-5.8-3.6-8.9-4.2
	c-2-0.4-4.6,1.1-6.4,2.4c-1,0.7-2,3.6-1.6,4.1c6.2,6.6,4.6,15,5.9,22.8c0.4,2.3,0.1,5-0.9,7.1c-8.7,19.9-22.7,35-42.3,44.8
	c-1.5,0.8-3.7,2-4,3.4c-2.4,9.9-6.2,19.7-1.6,30.1c3.5,7.8,5.4,9.2,13.6,7.2c25.9-6.4,51.8-12.5,77.6-19.1
	c14.3-3.7,29.1-5.7,42.1-13.7c8.2-5,17.3-9.4,20.4-19.6c3-9.7,2.4-19.5-1.1-28.9c-2.5-6.7-5.7-13.1-8.4-19.8c-1.2-3-1.9-6.3-3-10
	C323.8,277.5,326.9,278.7,329.9,279.8z M103.8,172.8c-3.9-2.7-6.9-5-10.2-6.8c-1-0.5-2.9,0-4.1,0.5c-13.2,5.5-23.9,14.3-33.5,24.7
	c-7.6,8.3-12.6,17-7.8,28.6c0.5,1.2,0.5,2.6,0.8,3.9c2.3,13.1,6.7,16.9,20.2,17c20.2,0.2,40.3,0.3,60.5,0.4
	c13.7,0.1,13.8,0.1,13.4-14.1c-0.1-4.6-0.7-9.3-1-13.9c0.4-0.1,0.8-0.2,1.2-0.3c0.8,1.6,1.9,3.1,2.3,4.7c1.3,5.8,2.6,11.7,3.3,17.6
	c0.4,3.4,1,4.9,4.8,3.7c6-1.9,12.1-3.7,18.2-5.1c4.7-1.1,5.2-3.1,3.7-7.5c-4.5-13.6-3.2-16.6,8.7-24.3c2.6-1.7,5.2-3.3,7.8-4.9
	c-0.1-0.5-0.1-1-0.2-1.4c-37.7-12.5-77.8-9.6-117.5-16.4C83.5,172.2,93.9,175.6,103.8,172.8z M178.2,276.6c-0.6-0.1-1.1-0.2-1.7-0.4
	c-0.6-2.5-1.2-5-1.9-7.5c-1.8-6.9-3.6-13.8-5.6-20.6c-0.9-3-2.9-3.5-6.2-2.8c-9.9,2.1-19.9,4.9-29.9,5.1
	c-18.1,0.2-36.2-1.1-54.3-2.1c-11.5-0.7-19,6.7-17.8,18.3c0.4,4,1.1,7.9,1.8,11.8c1.8,9,4.5,17.6,12.4,23.2c2,1.4,4.7,2.6,7,2.4
	c17.2-1.5,34.5-3,51.6-5.4c15.9-2.2,32-4.2,46.5-12.5c9.1-5.2,17.5-11.2,25-18.8c-5.7-5.1-9.8-11.2-9-18.1
	c0.8-6.3,4.6-12.3,7.2-18.7c-0.8,0.1-1.9,0.2-2.9,0.6c-8.2,3.3-16.3,6.8-24.5,10c-3.5,1.3-3.8,2.8-2,5.9c4.3,7.4,7.3,15.4,6.5,24.2
	C180.3,273,179,274.8,178.2,276.6z M192.3,323.2c-3.2-8.7-6.5-17.7-9.8-26.6c-1.1-3.1-2.9-3.8-6.2-2.7c-27,8.8-54.9,13.2-83,16.8
	c-3.9,0.5-6.6,1.7-7.7,5.7c-1.1,4-3.2,7.9-3.4,11.9c-1.2,20.6,10.2,32.8,30.3,30.2c15.3-1.9,30.3-6.4,45.1-10.6
	c11.6-3.3,23.4-6.9,34.1-12.4c13.3-6.8,20.7-19.1,24.8-34.1c-10,0.1-14.8-6.3-19.2-13.5c-0.6-1-2.7-2.4-3.4-2
	c-3.5,1.5-6.7,3.5-10.4,5.6C196.6,302.9,196.3,318,192.3,323.2z M327.5,213.5c-0.7,2.1-1.1,3-1.2,3.9c-1.4,12.7-2.6,25.5-4.1,38.2
	c-0.6,4.8,1.9,5.8,5.9,5.6c15.6-0.5,31.3-0.4,46.9-1.7c8.5-0.7,16.8-3.7,25.1-5.7c3.9-1,4.8-3.9,4.8-7.7
	c-0.2-13.8-6.3-24.5-16.5-33.3c-3-2.6-5.5-4.3-9.7-2.6c-2.8,1.1-6.2,1.2-9.3,1.2c-9.7-0.1-19.3-0.5-29-0.7c-5.8-0.1-6.9,1.2-6.1,6.7
	c0.8,5.1,1.7,10.2,2.1,15.3c0.6,7.2-3.2,14-8.6,15.7c0.8-5.7,1.9-11.3,2.4-16.9C330.6,225.9,331.3,219.9,327.5,213.5z M55.3,417.6
	c-1.8,0-5.1-1-7.3,0.2c-10.4,5.5-20.7,11.4-30.7,17.7c-3.7,2.3-7,5.7-9.7,9.2c-4.7,6.4-1.2,20.4,5.5,22c6.1,1.5,12.6,2.4,18.7,1.9
	c16.7-1.4,29.1-11.6,40.6-22.5c1.6-1.5,1.3-6.5,0.2-9.1c-1.9-4.4-5.1-8.1-7.8-12.1c-0.6-1-1.2-2-1.8-3c1.7-0.1,2.9,0.2,3.5,1
	c3.2,4.2,6.4,8.5,9.2,13c1.6,2.5,2.9,3.3,6,2.5c8.5-2.4,15.2-7,20.3-14.2c-6.7-5.7-13-11.2-19.5-16.6c-12.9-10.9-12.5-7.8-23,1.3
	C57.4,410.8,56.7,414.5,55.3,417.6z M402.7,281.8c-1.2-0.5-1.8-0.9-2.4-0.9c-18.8,0.7-37.5,1.5-56.3,2.2c-3.5,0.1-3.4,1.9-2.8,4.7
	c3,15.1,5.9,30.3,8.6,45.4c0.5,3,1.5,3.8,4.6,3.2c9.2-1.6,18.4-3,27.6-4.3c3-0.4,5.1-1.4,6-4.8c1.9-6.9,4.4-13.6,6.6-20.4
	C397.3,298.5,399.9,290.2,402.7,281.8z M119.1,363.6c-0.4,0.4-0.8,0.8-1.1,1.3c4.7,7.6,9.7,15,13.8,22.9c3.9,7.5,10.1,9.6,17.4,8.4
	c7.2-1.2,14.1-3.7,21.1-5.6c3.2-0.8,4.9-2.6,4.4-6.1c-1.7-10.4-3.4-20.7-5.1-31.4c-6.7,3.5-13.5,7.2-20.3,10.8
	c-0.2-0.3-0.4-0.6-0.5-0.9c1.6-1.8,3.2-3.7,4.7-5.5c-0.4-0.6-0.8-1.2-1.2-1.9c-8.1,3.5-16.2,6.9-24.3,10.3
	C126.3,359.7,122.1,364.1,119.1,363.6z M98.1,412.3c7.9,9.2,11.2,9.6,20.2,2.1c4.7-3.9,8.7-8.7,13.3-12.9c3-2.7,2.7-4.5-0.1-7.2
	c-7-7.1-13.5-14.7-20.4-21.8c-0.8-0.8-3.4-0.9-4.4-0.2c-8.9,5.9-17.8,11.8-26.3,18.1c-2.1,1.5-4.1,4.7-4.1,7.2
	c0,3.5,3.7,3.3,6.6,3.6c4.9,0.6,8.3,5,9.8,10.5C93.3,414.2,95.6,415.5,98.1,412.3z M128.1,156.9c0.5-0.7,1-1.3,1.5-2
	c2.5,1.6,5.5,2.7,7.4,4.8c3.4,3.8,5.8,8.5,9.2,12.4c2.4,2.8,5.4,5.5,8.7,7.2c4.2,2.1,7,0.3,7.9-4.3c0.6-2.9,1.2-5.9,1.3-8.9
	c0.7-15.4-4.1-21-19.3-17.2c-9.8,2.4-19.5,5.7-29.2,8.6c-2.3,0.7-4.5,1.7-7.7,3c6.8,5.8,12.4,11.2,18.8,15.7
	c2.7,1.9,6.8,2.3,10.4,2.8c3.2,0.4,4.9-1.5,3.2-4.7c-1.9-3.5-4.2-6.8-6.4-10C132.1,161.6,130,159.3,128.1,156.9z M325.9,268.9
	c2.1,0.6,4.2,1.5,6.4,1.7c4.8,0.5,9.6,1,14.4,0.8c17.1-0.5,34.2-1.4,51.3-2.1c7.7-0.3,8.9-2,6.7-10
	C378.9,265.8,352.2,264.7,325.9,268.9z M201.9,217.7c-1.2-3.7-2.1-7.8-3.8-11.4c-1.6-3.4-4.8-5.2-8.7-3.8c-3.8,1.3-6.4,3.9-6,8.2
	c0.6,5.5,1.5,10.9,2.4,16.3c0.2,0.9,1.5,2.6,1.8,2.5c3.9-1.3,8-2.4,11.5-4.6C200.7,223.9,200.9,220.6,201.9,217.7z M327.3,199.8
	c3.3,4.3,6.2,8.1,12.1,7.8c4.8-0.3,9.6,0.8,14.4,0.5c6.9-0.3,13.8-1.2,20.7-2.1c1.2-0.1,2.2-1.3,4.4-2.8
	C361,197.9,344.2,200.5,327.3,199.8z M211.8,233c-2.9,2.3-5.4,3.7-7.2,5.8c-1.2,1.4-2.3,4-1.9,5.7c1.3,4.9,3.1,9.8,5.4,14.3
	c0.9,1.8,3.9,3.9,5.6,3.5c2-0.4,4.5-2.8,5.2-4.9C222,248.1,216.2,241.1,211.8,233z M335.6,274.4c5.5,7,48.3,7.1,57.8,0.2
	C373.6,273,355,272.9,335.6,274.4z M219.8,290.3c-2.5-3.9-4.7-7.6-7.3-11c-0.6-0.8-3.2-0.8-4.4-0.3c-0.9,0.5-1.9,2.6-1.6,3.6
	c0.9,3.5,2,7.1,3.9,10.1c0.9,1.5,3.7,2.5,5.6,2.5C217,295.3,218.1,292.7,219.8,290.3z M341.3,315.4c0.5-1.8,0.9-2.5,0.8-3
	c-1.8-8.1-3.5-16.2-5.5-24.2c-0.8-3.1-3.2-3.3-6.2-1.9C333.9,295.7,337.4,304.9,341.3,315.4z"/>
<path style="fill:#FFFFFF;" d="M178.6,162.3c10.5-1.7,20.3-3.4,30.2-5c-0.1-0.7-0.2-1.5-0.3-2.2c-5.9,0.9-11.7,1.9-18.1,2.9
	c0.4-4-1.5-4.9-4.8-4.9c-4.1,0-8.4-0.4-12.3-1.5c-2.8-0.8-5.1-3.2-8.7-5.6c15.4-7.5,31.6-10.4,41.6-24c-4.5,2.4-8.8,5.4-13.5,7.2
	c-9.3,3.5-18.9,6.4-28.4,9.4c-1.2,0.4-3.1-0.2-4.1-1c-10-8.5-19.9-17.2-29.8-25.7c-3.6-3.1-2.3-5.1,0.9-7.3
	c3.6-2.4,7.5-4.6,10.4-7.7c2.1-2.3,4.8-7.5,4-8.4c-2.8-3.2-6.3-0.3-9.2,1.6c-3.6,2.4-7,5.1-10.5,7.7c-4,2.9-7.4,3.1-11.6-0.4
	c-12.5-10.4-23.7-22-31.8-36.2C74,46.1,72.3,30.2,75.8,13.7c0.7-3.1,5-5.6,8.1-7.9c0.5-0.4,3.5,1,4.1,2.2
	c13.4,24.9,34.8,40.2,59.9,51.2c5.8,2.5,4.9,7.6,5.3,12.7c1.6-0.5,3-1,4.5-1.5c0.5,2.2,1,4.1,1.6,6.4c6.1-6.2,6.2-6.4,13.1-1.5
	c15.1,10.5,32.5,16,49.4,22.5c8,3.1,15.2,6.9,21.6,12.9c16.8,15.9,34.3,31.1,51.1,47c8.1,7.7,15.6,16.3,19,27.2
	c2.2,6.8,3.1,14.4,2.9,21.5c-0.4,13.8-1.9,27.5-3,41.3c-0.3,4.1-2.1,7.2-6,9.1c-12.2,5.7-24.3,11.5-36.5,17.1
	c-1.3,0.6-3.4,0.4-4.8-0.2c-7.7-3-15.6-5.9-23-9.6c-9.1-4.5-14.6-11.8-17.3-21.9c-1.5-5.7-5.4-10.9-9-15.9
	c-5.2-7.4-9.9-14.6-8.6-24.3c0.2-1.2-0.9-3-1.9-3.8c-4.8-4-9.8-7.8-14.7-11.7c-1-0.8-2.2-1.6-2.7-2.7
	C185.3,176.7,182,169.6,178.6,162.3z"/>
<path style="fill:#FFFFFF;" d="M329.9,279.8c-3-1.1-6.1-2.3-10.3-3.9c1.1,3.8,1.8,7,3,10c2.7,6.6,5.9,13,8.4,19.8
	c3.5,9.5,4,19.2,1.1,28.9c-3.1,10.2-12.1,14.5-20.4,19.6c-12.9,7.9-27.8,10-42.1,13.7c-25.8,6.6-51.7,12.7-77.6,19.1
	c-8.2,2-10.2,0.7-13.6-7.2c-4.6-10.5-0.8-20.2,1.6-30.1c0.3-1.4,2.4-2.6,4-3.4c19.6-9.8,33.6-24.9,42.3-44.8
	c0.9-2.1,1.2-4.9,0.9-7.1c-1.2-7.7,0.3-16.2-5.9-22.8c-0.5-0.5,0.5-3.4,1.6-4.1c1.9-1.3,4.5-2.8,6.4-2.4c3.1,0.6,6.4,2.2,8.9,4.2
	c12.8,9.7,28.3,9.9,43,13.1c1.5,0.3,3.5-0.7,5.1-1.4c6.5-3,12.7-6.6,19.4-9.2c8.6-3.4,16.7-2,23.6,4.4c0.6,0.5,0.8,1.3,1.2,2
	C330.4,278.7,330.2,279.2,329.9,279.8z"/>
<path style="fill:#FFFFFF;" d="M103.8,172.8c-9.9,2.8-20.3-0.6-29.4,6.4c39.8,6.9,79.8,3.9,117.5,16.4c0.1,0.5,0.1,1,0.2,1.4
	c-2.6,1.6-5.2,3.2-7.8,4.9c-12,7.8-13.3,10.8-8.7,24.3c1.5,4.4,0.9,6.4-3.7,7.5c-6.2,1.4-12.2,3.2-18.2,5.1
	c-3.8,1.2-4.4-0.3-4.8-3.7c-0.7-5.9-2-11.7-3.3-17.6c-0.4-1.7-1.5-3.1-2.3-4.7c-0.4,0.1-0.8,0.2-1.2,0.3c0.3,4.6,0.9,9.3,1,13.9
	c0.4,14.2,0.4,14.2-13.4,14.1c-20.2-0.1-40.3-0.3-60.5-0.4c-13.5-0.1-17.9-3.9-20.2-17c-0.2-1.3-0.3-2.7-0.8-3.9
	c-4.9-11.6,0.2-20.3,7.8-28.6c9.6-10.5,20.3-19.2,33.5-24.7c1.3-0.5,3.1-1.1,4.1-0.5C96.9,167.8,99.9,170.1,103.8,172.8z"/>
<path style="fill:#FFFFFF;" d="M178.2,276.6c0.8-1.8,2.2-3.6,2.3-5.5c0.8-8.8-2.2-16.7-6.5-24.2c-1.8-3.1-1.5-4.6,2-5.9
	c8.2-3.1,16.3-6.7,24.5-10c1-0.4,2.1-0.4,2.9-0.6c-2.6,6.4-6.5,12.3-7.2,18.7c-0.9,6.8,3.2,13,9,18.1c-7.5,7.6-16,13.6-25,18.8
	c-14.4,8.3-30.5,10.3-46.5,12.5c-17.1,2.4-34.4,3.9-51.6,5.4c-2.3,0.2-5-1.1-7-2.4c-7.9-5.6-10.6-14.2-12.4-23.2
	c-0.8-3.9-1.4-7.9-1.8-11.8c-1.2-11.6,6.3-19,17.8-18.3c18.1,1,36.2,2.4,54.3,2.1c10-0.1,20-2.9,29.9-5.1c3.3-0.7,5.3-0.2,6.2,2.8
	c2,6.8,3.8,13.8,5.6,20.6c0.7,2.5,1.3,5,1.9,7.5C177,276.3,177.6,276.5,178.2,276.6z"/>
<path style="fill:#FFFFFF;" d="M192.3,323.2c4-5.2,4.3-20.3-8.8-31.8c3.7-2,6.9-4.1,10.4-5.6c0.7-0.3,2.8,1,3.4,2
	c4.3,7.2,9.2,13.6,19.2,13.5c-4.1,15-11.5,27.3-24.8,34.1c-10.7,5.4-22.5,9.1-34.1,12.4c-14.9,4.2-29.9,8.7-45.1,10.6
	c-20.1,2.6-31.5-9.6-30.3-30.2c0.2-4,2.4-7.9,3.4-11.9c1.1-4,3.9-5.2,7.7-5.7c28.1-3.6,56-8,83-16.8c3.3-1.1,5-0.4,6.2,2.7
	C185.8,305.6,189.1,314.5,192.3,323.2z"/>
<path style="fill:#FFFFFF;" d="M327.5,213.5c3.8,6.4,3.2,12.4,2.7,18.1c-0.4,5.6-1.5,11.2-2.4,16.9c5.4-1.7,9.2-8.5,8.6-15.7
	c-0.4-5.1-1.4-10.2-2.1-15.3c-0.8-5.5,0.2-6.8,6.1-6.7c9.7,0.2,19.3,0.6,29,0.7c3.1,0,6.5-0.1,9.3-1.2c4.2-1.6,6.7,0,9.7,2.6
	c10.2,8.8,16.3,19.6,16.5,33.3c0.1,3.7-0.9,6.7-4.8,7.7c-8.3,2.1-16.6,5-25.1,5.7c-15.6,1.3-31.3,1.1-46.9,1.7
	c-4,0.1-6.5-0.9-5.9-5.6c1.5-12.7,2.7-25.5,4.1-38.2C326.4,216.5,326.8,215.6,327.5,213.5z"/>
<path style="fill:#FFFFFF;" d="M55.3,417.6c1.5-3.1,2.1-6.8,4.3-8.7c10.4-9.1,10.1-12.2,23-1.3c6.4,5.4,12.8,10.9,19.5,16.6
	c-5.1,7.2-11.8,11.7-20.3,14.2c-3.1,0.9-4.4,0-6-2.5c-2.8-4.5-6-8.7-9.2-13c-0.6-0.8-1.8-1.1-3.5-1c0.6,1,1.2,2,1.8,3
	c2.7,4,5.9,7.8,7.8,12.1c1.1,2.6,1.4,7.6-0.2,9.1c-11.5,11-23.9,21.2-40.6,22.5c-6.2,0.5-12.7-0.5-18.7-1.9
	c-6.8-1.6-10.2-15.7-5.5-22c2.6-3.5,5.9-6.9,9.7-9.2c10-6.3,20.3-12.2,30.7-17.7C50.1,416.6,53.5,417.6,55.3,417.6z"/>
<path style="fill:#FFFFFF;" d="M402.7,281.8c-2.7,8.4-5.4,16.8-8.1,25.1c-2.2,6.8-4.7,13.5-6.6,20.4c-0.9,3.4-3,4.4-6,4.8
	c-9.2,1.4-18.4,2.7-27.6,4.3c-3.1,0.6-4.1-0.2-4.6-3.2c-2.7-15.2-5.6-30.3-8.6-45.4c-0.6-2.8-0.6-4.5,2.8-4.7
	c18.8-0.7,37.5-1.5,56.3-2.2C400.9,280.9,401.5,281.3,402.7,281.8z"/>
<path style="fill:#FFFFFF;" d="M119.1,363.6c3,0.5,7.2-3.9,8.8,2.4c8.1-3.4,16.2-6.9,24.3-10.3c0.4,0.6,0.8,1.2,1.2,1.9
	c-1.6,1.8-3.2,3.7-4.7,5.5c0.2,0.3,0.4,0.6,0.5,0.9c6.8-3.6,13.7-7.3,20.3-10.8c1.7,10.7,3.4,21,5.1,31.4c0.6,3.4-1.1,5.2-4.4,6.1
	c-7.1,1.8-14,4.4-21.1,5.6c-7.3,1.2-13.5-0.9-17.4-8.4c-4.1-7.9-9.2-15.3-13.8-22.9C118.3,364.5,118.7,364,119.1,363.6z"/>
<path style="fill:#FFFFFF;" d="M98.1,412.3c-2.5,3.2-4.8,1.9-5.5-0.7c-1.5-5.5-4.9-9.8-9.8-10.5c-2.9-0.4-6.6-0.1-6.6-3.6
	c0-2.4,2-5.6,4.1-7.2c8.6-6.3,17.4-12.3,26.3-18.1c1-0.7,3.6-0.6,4.4,0.2c6.9,7.2,13.4,14.7,20.4,21.8c2.7,2.8,3,4.6,0.1,7.2
	c-4.6,4.1-8.5,8.9-13.3,12.9C109.3,421.9,106,421.4,98.1,412.3z"/>
<path style="fill:#FFFFFF;" d="M128.1,156.9c1.9,2.4,3.9,4.7,5.7,7.2c2.3,3.3,4.5,6.6,6.4,10c1.7,3.2,0,5.1-3.2,4.7
	c-3.5-0.4-7.6-0.8-10.4-2.8c-6.3-4.5-12-9.9-18.8-15.7c3.3-1.3,5.4-2.3,7.7-3c9.7-2.9,19.4-6.2,29.2-8.6
	c15.1-3.7,19.9,1.8,19.3,17.2c-0.1,3-0.7,6-1.3,8.9c-1,4.6-3.8,6.5-7.9,4.3c-3.3-1.7-6.3-4.3-8.7-7.2c-3.4-3.9-5.8-8.6-9.2-12.4
	c-1.9-2.1-4.9-3.2-7.4-4.8C129.1,155.6,128.6,156.3,128.1,156.9z"/>
<path style="fill:#FFFFFF;" d="M325.9,268.9c26.3-4.2,53-3.1,78.8-9.6c2.2,8.1,1,9.7-6.7,10c-17.1,0.7-34.2,1.5-51.3,2.1
	c-4.8,0.2-9.6-0.3-14.4-0.8C330.1,270.4,328,269.5,325.9,268.9z"/>
<path style="fill:#FFFFFF;" d="M201.9,217.7c-1,2.9-1.2,6.1-2.7,7.1c-3.4,2.2-7.6,3.3-11.5,4.6c-0.3,0.1-1.7-1.5-1.8-2.5
	c-0.9-5.4-1.8-10.8-2.4-16.3c-0.5-4.3,2.2-6.9,6-8.2c4-1.4,7.1,0.4,8.7,3.8C199.8,210,200.7,214,201.9,217.7z"/>
<path style="fill:#FFFFFF;" d="M327.3,199.8c16.8,0.7,33.7-1.9,51.7,3.5c-2.2,1.4-3.3,2.6-4.4,2.8c-6.9,0.8-13.8,1.7-20.7,2.1
	c-4.8,0.2-9.7-0.8-14.4-0.5C333.5,207.9,330.6,204.1,327.3,199.8z"/>
<path style="fill:#FFFFFF;" d="M211.8,233c4.3,8.1,10.2,15.1,7.1,24.5c-0.7,2.1-3.2,4.5-5.2,4.9c-1.6,0.3-4.7-1.8-5.6-3.5
	c-2.3-4.5-4.1-9.4-5.4-14.3c-0.4-1.6,0.7-4.2,1.9-5.7C206.4,236.7,208.9,235.3,211.8,233z"/>
<path style="fill:#FFFFFF;" d="M335.6,274.4c19.4-1.5,38-1.4,57.8,0.2C383.9,281.5,341.1,281.4,335.6,274.4z"/>
<path style="fill:#FFFFFF;" d="M219.8,290.3c-1.7,2.4-2.7,5-3.8,5c-1.9,0-4.7-1-5.6-2.5c-1.9-3-3-6.6-3.9-10.1
	c-0.3-1.1,0.6-3.2,1.6-3.6c1.2-0.6,3.8-0.6,4.4,0.3C215.1,282.7,217.3,286.4,219.8,290.3z"/>
<path style="fill:#FFFFFF;" d="M341.3,315.4c-4-10.5-7.4-19.7-11-29c3-1.4,5.4-1.2,6.2,1.9c2,8,3.8,16.1,5.5,24.2
	C342.2,312.9,341.8,313.6,341.3,315.4z"/>
</svg>
