<?xml version="1.0" encoding="utf-8"?>
<!-- Generator: Adobe Illustrator 19.1.0, SVG Export Plug-In . SVG Version: 6.00 Build 0)  -->
<svg version="1.1" id="Circle_of_Awareness__x28_Altitude_Check_xA0_Image_1_"
	 xmlns="http://www.w3.org/2000/svg" xmlns:xlink="http://www.w3.org/1999/xlink" x="0px" y="0px" viewBox="0 0 302.6 360.6"
	 style="enable-background:new 0 0 302.6 360.6;" xml:space="preserve">
<path style="fill:#FFFFFF;" d="M-2.3,171.8c2-9.1,1.4-17.3,6.3-24.3c3.9-5.6,8.1-5.3,10.5,0.9c4.3,10.9,1.3,15.1-6.6,18.1
	C4.9,167.7,2,169.6-2.3,171.8z"/>
<path style="fill:#FFFFFF;" d="M49.5,132.3c-5.6,1.4-8.9,9.1-16.1,6.1c-0.2-0.6-0.5-1.2-0.7-1.8c5.4-2,10.8-4,16.1-6
	C49.1,131.1,49.3,131.7,49.5,132.3z"/>
<path d="M196.2,28.2c4.2-8.4,1.3-13.8-8.1-14.8c-14.6-1.5-29.2-3.5-43.9-4.8c-9.4-0.9-18.9-1.2-28.4-1.2c-11.6,0-21.4,6.2-31.9,10
	c-0.4,0.2-1,0.5-1.1,0.9c-3.3,10.6-12.6,14.3-22.5,19c4.2,5.5,8,10.9,12.2,15.9c0.9,1.1,3,1.3,4.6,1.5c9.1,1,17.8-0.2,26.1-4
	c2.6-1.2,3.7-2.8,3.4-5.8c-0.3-2.9,0.2-5.8,0.5-10c2.8,4.3,4.8,7.4,7,10.5c0.8,1.2,1.8,2.6,3,3.2c7.3,3.8,14.5,7.8,23.1,7.7
	c0.8,0,1.7,0,2.5,0c9.6,0.2,19.6,2,27.1-7.1c-3,8.8-4.4,17.1-1.7,25.7c0.2,0.8,0.2,1.8,0.7,2.4c7.5,8.9,14.8,18,25.3,23.7
	c3.4,1.9,7,3.4,11.6,5.7c-5,0.4-8.7,1.1-12.4,0.8c-3.9-0.3-5.2,1.6-4.3,4.6c1.6,5.2,3.9,10.2,5.6,14.7c-2.7-2.3-6.4-5.3-10.4-8.7
	c-3.8,7.6-7.2,14.6-10.8,21.7c11.9,3.2,22.5,6.1,33.2,9c-27.4-2.1-54.6-4.5-81.4,2.9c-0.1,0.7-0.2,1.4-0.2,2.1
	c15.4,4.2,30.7,8.4,46.1,12.6c0,0.2,0,0.3,0,0.5c-3.9,0-8,0.7-11.7-0.1c-12.7-2.9-25.1-7.7-37.9-9.3c-16.9-2.2-24.2-14-31.9-26.4
	c-2.3-3.8-5.3-7.2-7.8-10.9c-2.6-3.8-5.3-7.6-7.7-11.6c-2.7-4.7-5.1-9.5-7.8-14.4c0.9-0.1,2.3-0.2,3.8-0.3
	c2.2-19.4-1.5-37.2-13.2-52.8c-2.4-3.3-5.9-5.9-9.3-8.2c-1.6-1.1-4.2-0.5-7-0.8c1.4,4.4,2.8,7.8,3.6,11.3c1.9,8.5-1.2,14.7-9,18.5
	c-1,0.5-2.1,1.2-3.2,1.4c-10.4,2-12.2,11-15.2,18.9c-0.2,0.5,0.1,1.2,0.2,2.1c5.6-1.3,10.9-2.6,16.3-3.8c0.2,0.6,0.4,1.2,0.6,1.8
	c-8,0.9-14.2,4.8-19.7,10.1c-6.3,6-9.5,16.9-6.1,25c4.8,11.3,10.3,22.2,15.4,33.4c2.4,5.4,4.4,11,6.7,16.5
	c7.3,17.9,14.4,35.9,21.9,53.8c4.9,11.7,12.8,21.2,22.2,29.7c-0.3,0.4-0.6,0.7-0.9,1.1c-3.5-2.6-7.2-4.9-10.4-7.7
	c-3.3-3-6.1-6.5-9.1-9.9c-0.7,0.3-1.3,0.6-2,0.8c0.9,4.4,1.5,9,2.9,13.3c4,11.9,7.6,24.1,13.1,35.3c4.3,8.8,10.9,16.6,17,24.4
	c6.2,8,13,15.5,19.3,22.9c-7.8,9.8,1.7,19.1,0,28.5c-5.8,3-8.3-0.5-9.1-5.4c-1.2-7.5-1.6-15.2-3.4-22.6c-1.2-4.8-3.4-10.2-6.8-13.5
	c-14.8-14.1-25.2-30.8-31.8-49.9c-2.1-6-3-12.5-4.5-18.7c-0.8-3.3-1.2-6.8-2.1-10.1c-4.9-17.7-9.3-35.7-15.3-53.1
	c-3.8-11-10.4-21-15.1-31.8C10.7,141.3,5.1,128,0.6,114.4c-1.4-4.4-0.2-10.2,1.4-14.9c3.4-9.7,7.9-18.9,11.7-28.4
	c0.8-2.1,1-4.5,1.1-6.8c0.2-9.4,1.5-18.6,6.1-27c3.5-6.4,8.8-11.8,16.2-12C52.8,25,65.9,17.7,79.7,12c10.5-4.3,21.2-9.5,32.2-11.2
	c11.7-1.8,23.9-0.2,35.9,0.4c9.1,0.5,18.2,1.6,27.2,2.9c7.2,1,14.2,2.6,21.3,3.9c0.9,0.2,1.9-0.1,2.9-0.1c4.9-0.2,7.8,2.4,8.4,7.2
	c0.2,1.4,0.7,2.9,1.6,4c15.1,20.2,30.2,40.4,45.6,60.4c7.3,9.5,16,17.9,22.7,27.7c7,10,12.6,21,18.3,31.8c2.6,4.8,4.4,10,6.1,15.2
	c0.8,2.5,1,5.7,0.2,8.2c-3.8,11.7-7.8,23.3-12.3,34.7c-3.4,8.8-8.1,17.1-11.6,25.9c-6,15.4-11.9,30.8-17.1,46.5
	c-5.1,15.1-8,30.9-8.5,46.8c-0.4,13,0.1,26,0.4,39c0.1,3.5-0.5,5.1-4.5,5.2c-4,0.1-5.3-1.1-5.1-5.1c0.6-11.8,1.1-23.6,1.4-35.4
	c0.2-5.1-0.3-10.3,0.1-15.4c0.4-5.2,1.3-10.5,2.4-15.6c1.7-7.6,3.4-15.2,5.9-22.5c4.1-11.9,8.7-23.6,13.5-35.2
	c7.6-18.5,15.9-36.7,23.3-55.3c5.9-14.8,6-29.8-2.8-43.7c-5-7.8-10.9-15-16.7-22.3c-12.5-15.9-25.4-31.5-37.6-47.6
	c-8.9-11.7-17.2-24-25.6-36.2c-1.7-2.4-3.4-3-5.9-1.6C199.8,26,198,27.1,196.2,28.2z M76.9,63.9c0,1.3-0.1,3.4,0,5.5
	c0.4,6.4,1.4,12.9,1.4,19.3c-0.1,10,1.4,19.2,9,26.5c1.4,1.3,2.3,3.2,3.4,4.9c5.2,7.5,10.4,15.1,15.6,22.6c2.2,3.2,4.6,5.4,9.1,4.1
	c5.9-1.7,11.9-3.2,17.9-4.1c9.5-1.4,19.1-2.3,28.7-3.1c2.9-0.2,4-1.3,5.3-3.9c4.2-8.4,8.8-16.5,13.6-24.6c3-5.1,2.3-6.8-1.7-11.1
	c-8.6-9.1-17.9-17.9-19.4-31.5c-0.2-1.5-2.4-3.6-3.9-3.8c-4.4-0.7-8.9-0.7-13.4-0.7c-9.5,0.1-18.6-1.7-26.8-6.5
	c-3.3-1.9-5.9-2-9-0.2c-1,0.6-2,1.2-3.1,1.4C94.9,60.4,86.4,62,76.9,63.9z M20.7,63.8c4.2-2.2,7.1-4.1,10.3-5.3
	c7.9-3,10.8-7.1,6.6-18.1c-2.4-6.2-6.6-6.5-10.5-0.9C22.1,46.4,22.8,54.7,20.7,63.8z M72.5,24.3c-0.2-0.6-0.4-1.2-0.7-1.8
	c-5.4,2-10.8,4-16.1,6c0.2,0.6,0.5,1.2,0.7,1.8C63.6,33.4,66.9,25.8,72.5,24.3z"/>
<path style="fill:#FFFFFF;" d="M76.9,63.9c9.5-1.9,18.1-3.5,26.6-5.2c1.1-0.2,2.1-0.8,3.1-1.4c3.1-1.7,5.7-1.7,9,0.2
	c8.2,4.8,17.3,6.6,26.8,6.5c4.5,0,9,0,13.4,0.7c1.5,0.2,3.8,2.4,3.9,3.8c1.5,13.6,10.9,22.4,19.4,31.5c4,4.3,4.7,6,1.7,11.1
	c-4.8,8-9.4,16.2-13.6,24.6c-1.3,2.6-2.4,3.7-5.3,3.9c-9.6,0.8-19.2,1.7-28.7,3.1c-6,0.9-12,2.4-17.9,4.1c-4.5,1.3-6.9-1-9.1-4.1
	c-5.2-7.5-10.4-15-15.6-22.6c-1.1-1.6-2-3.5-3.4-4.9c-7.6-7.3-9.1-16.5-9-26.5c0-6.4-0.9-12.9-1.4-19.3
	C76.7,67.3,76.9,65.1,76.9,63.9z"/>
</svg>
