<?xml version="1.0" encoding="utf-8"?>
<!-- Generator: Adobe Illustrator 19.1.0, SVG Export Plug-In . SVG Version: 6.00 Build 0)  -->
<svg version="1.1" id="Knees_Together_Slightly_--or--_Toe_Taps_xA0_Image_1_"
	 xmlns="http://www.w3.org/2000/svg" xmlns:xlink="http://www.w3.org/1999/xlink" x="0px" y="0px" viewBox="0 0 490.1 216.6"
	 style="enable-background:new 0 0 490.1 216.6;" xml:space="preserve">
<path d="M156.6,71.2c3-4.5,0.2-5.9-3.4-6.3c-7.2-0.9-14.5-1.6-21.8-2.3c-32.5-3-65-5.9-97.5-9.1c-9.4-0.9-19.5-0.1-27.3-7
	c-2.5-2.2-5.1-5.2-5.7-8.2C-0.1,32.7-0.2,26.7,0.2,21c0.3-4.6,5.5-8,10.7-8c22.1,0,44.3,0.4,66.4-0.2c10.9-0.3,22.1-1.3,32.5-4.4
	c10.3-3,20.2-2.5,30.5-1.9C153.8,7.2,167.5,8,181.1,7c14.5-1,28.9-4.1,43.3-6.2c2.8-0.4,5.6-0.8,8.4-0.8c19.7,0.6,39.5,1.6,59.2,1.9
	c17,0.3,33.9,0,50.9-0.4c16.1-0.4,31.7,3,47.2,6.5c10.9,2.5,21.7,5.2,32.4,8.2c17.5,4.9,29.1,16.5,37.1,32.5
	c5.8,11.6,12.5,22.7,18.3,34.2c4.3,8.6,8,17.5,11.8,26.4c0.6,1.3,0.5,3.4-0.1,4.7c-6.4,13.9-13,27.7-19.5,41.5
	c-0.5,1.2-1.3,2.5-2.3,3.1c-15.3,8.8-30.3,18-46,26.1c-9.8,5.1-21,5-31.8,3.5c-5.9-0.8-10-4.8-11.8-10.3c-1.7-5-2.6-10.3-3.9-15.5
	c-0.8-3.4-1.3-6.9-2.3-10.2c-2.3-8.3-3.2-8.9-11.7-7c-23.2,5.2-46.4,10.5-69.7,15.5c-10.9,2.4-22,3.6-32.7,6.6
	c-23.7,6.7-43.6,20-61.5,36.9c-4.6,4.3-10.2,8.2-16.1,10.4c-9,3.4-19.6,2.3-24.9-7.5c-6.8-12.5-10.5-25.7-2.1-39.1
	c3.2-5.2,7.3-9.8,11-14.7c2.2-2.8,4.7-5.1,4.5-9.5c-0.1-2.5,2.7-5.6,5-7.6c8.8-7.5,13.9-17.3,17.7-27.8c0.4-1-0.1-2.7-0.7-3.7
	c-5.1-7.7-10.1-15.7-15.7-23C170.5,76.1,164.3,72.6,156.6,71.2z M419.9,104.6c10,17,19.9,33.7,29.6,50.5c1.5,2.6,2.9,2.2,4.8,1.2
	c7.1-3.5,12.9-8.2,15.7-16c1.2-3.3,2.4-6.6,4.1-9.6c7-13.1,6.2-26.2,0.6-39.4c-7-16.4-19.1-29.6-28.2-44.7
	c-6-10-13.5-17.5-24.9-20.7c-3.3-1-6.6-2.3-9.8-3.7c-16-6.6-32.1-12.8-49.5-14.9c-24.1-2.8-48.1-0.8-72.2-0.2
	c-16.6,0.4-33.2,0.4-49.8-0.1c-5-0.1-8.9,0-10.7,5.3c-0.4,1.2-1.2,2.4-1.8,3.5c-0.3-0.8-0.5-1.5-0.8-2.3c-3.4-1-6.7-2.4-10.1-3
	c-2.6-0.4-5.3,0.1-7.9,0.4c-15.5,1.6-31,3.6-46.6,4.7c-8.4,0.6-17.5,1.6-25.3-0.9c-10.2-3.2-19.8-2.4-29.5-0.6
	c-18.8,3.4-37.2,7.7-56.6,6.1c-13.9-1.1-28-1.3-41.6,2.6c-1.3,0.4-3,1-3.5,2c-1.9,3.9,2,15,6.1,16.9c13.6,6.4,27.8,10.5,42.9,8.4
	c2.7-0.4,5.1-3.5,7.3-5.7c1.7-1.7,2.8-4,4.2-6c0.4,2.4,1.3,4.9,1,7.2c-0.6,4.3,0.9,6.3,5.1,6.6c10.6,0.8,21.2,1.4,31.8,2.4
	c5.9,0.5,10.3-1,12.9-6.8c0.6-1.3,3-2.9,4.1-2.6c1.5,0.5,3.3,2.4,3.6,4c0.8,4.7,3.8,6.5,7.9,7.1c2.8,0.4,5.6,0.3,8.5,0.4
	c8.8,0.1,17.6,0.1,25.6,4.6c4.4,2.5,7.5,1,10.7-2.8c5.7-6.9,12-13.3,18.3-20.2c9.2,9.4-3.7,14-4.2,20.8c7.8,2.3,15.3,4.9,22.9,6.7
	c5.9,1.4,10.3,4.6,13.4,9.6c3.5,5.7,6.5,11.6,9.9,17.4c1.7,2.9,4,5.5,6.3,8.6c8-7.9,3.9-16.9,4.2-26.2c5.9,4.8,3.4,11.8,7.2,16.8
	c3.8-3.7,7.5-7.2,11.2-10.7c0.3,0.4,0.6,0.8,1,1.1c-4,11-12.7,18.3-21.9,24.5c-17.4,11.7-35.7,22-53.3,33.4
	c-16.1,10.5-28.7,24.2-35.1,42.9c-2.5,7.2-0.8,13,3.5,18.5c1,1.3,2.8,2.1,4.2,3.1c-0.3-2.2-1.3-3.5-2.1-5c-3.2-5.5-6-11.8-2.9-17.4
	c4.3-7.6,11.2-13.4,20.5-14.4c2.3-0.3,5.2,0.8,7.2,2.1c6.5,4.1,10.7,10.2,13,17.8c7.6-5,15-9.7,22.7-14.8
	c-8.8-4.9-12.1-13.3-16.5-20.8c-1.4-2.4-1.6-4.5,1.9-5.5c-1.2-2.2-2.3-4.3-3.9-7.3c6.8,0.5,8.6,5.8,12.1,9c5.5-4.8-2.8-7.6-1.3-12.2
	c7.3,3.8,10.7,10.1,12.7,17.3c0.6,2.3,0.9,4.9,0.8,7.3c-0.1,2.8-0.8,5.5-1.4,9.5c6.1-3.2,10.4-6.4,15.2-7.9
	c11.9-3.7,23.9-6.9,36-9.9c11.1-2.8,22.5-4.5,33.4-7.8c6.6-2,12.7-5,19.6-1.7c1.1,0.5,2.6,0.3,4,0.3c12.2,0.2,22.3-5,31.2-12.6
	c10.5-9,20.8-18.3,31.2-27.3c1.6-1.4,3.4-2.9,5.4-3.3c4.5-0.9,9.2-1.5,13.8-1.5c3.2,0,6.4,1.2,9.7,1.9c-0.1,0.5-0.1,1.1-0.2,1.6
	C424.3,103.2,421.6,104,419.9,104.6z M399.6,121c0,1.8,0.2,2.8,0,3.7c-1.2,4-1.8,7.8,1.8,11c0.5,0.4,0.6,1.5,0.6,2.3
	c0.6,13.3,6.4,25,11.3,37c0.5,1.3,3.3,2.9,4.3,2.5c6.2-2.5,12.4-5.3,18.3-8.5c3.5-1.9,4.9-5.1,3.4-9.3c-2-5.6-2.9-11.8-5.7-16.9
	c-5.4-9.5-11.7-18.5-17.9-27.5c-4.2-6.1-7.7-7-14.2-3.6c-2.9,1.5-5.5,3.7-8,5.9c-0.8,0.7-1,2.8-0.5,3.7c0.5,0.8,2.3,0.9,3.6,1
	C397.3,122.3,398,121.7,399.6,121z M175.9,71.6c0.6,1.1,1,2,1.5,2.8c12,18,28.4,30,49.1,36.3c4.4,1.3,7.3-0.4,10.6-4.5
	c-7.4-5.7-14.7-11.2-22-16.7c0.3-0.4,0.6-0.9,0.9-1.3c2.3,0.6,4.5,1.3,6.8,1.9c0.1-0.2,0.2-0.4,0.3-0.6c-3.8-2.8-7.6-5.6-11.5-8.4
	c0.3-0.4,0.6-0.8,0.9-1.2c2,0,4.1,0,6.4,0C211.9,72.3,184,66.8,175.9,71.6z M179,175.3c-19.5,8.4-18.7,10.8-9.6,26
	c0.3,0.4,0.5,0.9,0.8,1.2c4,4.8,9.3,4.7,12.9-0.3c2.1-2.9,3.9-6.1,5.5-8.7C185.2,187.2,182.1,181.3,179,175.3z M195.4,119.3
	c5.7,1,10.4-0.7,14.4-5c-2.8-2.5-5-5.3-9.2-3.6C196.9,112.2,194.6,114.6,195.4,119.3z M200.3,127.6c-0.2-0.3-0.3-0.6-0.5-1
	c-2.8-0.5-5.9-1.8-8.5-1.2c-3.1,0.7-4.4,3.6-3.3,8.1C192.4,131.4,196.3,129.5,200.3,127.6z M397.6,172.9c0.4-0.1,0.9-0.2,1.3-0.4
	c-2.5-6.3-5.1-12.5-7.6-18.8c-0.4,0.2-0.8,0.3-1.2,0.5c0.6,1.7,1.1,3.4,1.7,5C393.6,163.8,395.6,168.3,397.6,172.9z"/>
<path style="fill:#FFFFFF;" d="M419.9,104.6c1.7-0.5,4.4-1.4,7.1-2.2c0.1-0.5,0.1-1.1,0.2-1.6c-3.2-0.7-6.4-1.9-9.7-1.9
	c-4.6,0-9.3,0.6-13.8,1.5c-1.9,0.4-3.8,1.9-5.4,3.3c-10.4,9.1-20.7,18.4-31.2,27.3c-9,7.6-19,12.9-31.2,12.6c-1.3,0-2.8,0.2-4-0.3
	c-7-3.4-13-0.3-19.6,1.7c-11,3.3-22.3,5-33.4,7.8c-12.1,3-24.1,6.2-36,9.9c-4.8,1.5-9.1,4.6-15.2,7.9c0.6-4,1.3-6.7,1.4-9.5
	c0.1-2.4-0.2-5-0.8-7.3c-2-7.2-5.4-13.4-12.7-17.3c-1.5,4.6,6.8,7.4,1.3,12.2c-3.4-3.2-5.3-8.5-12.1-9c1.6,2.9,2.7,5,3.9,7.3
	c-3.5,0.9-3.3,3.1-1.9,5.5c4.4,7.5,7.8,15.9,16.5,20.8c-7.8,5.1-15.1,9.8-22.7,14.8c-2.4-7.6-6.5-13.7-13-17.8
	c-2.1-1.3-4.9-2.4-7.2-2.1c-9.3,1.1-16.2,6.8-20.5,14.4c-3.2,5.6-0.4,12,2.9,17.4c0.8,1.4,1.9,2.7,2.1,5c-1.4-1-3.1-1.8-4.2-3.1
	c-4.4-5.5-6-11.3-3.5-18.5c6.4-18.7,19-32.4,35.1-42.9c17.6-11.5,35.9-21.8,53.3-33.4c9.1-6.1,17.8-13.4,21.9-24.5
	c-0.3-0.4-0.6-0.8-1-1.1c-3.7,3.5-7.3,7-11.2,10.7c-3.8-5-1.3-12-7.2-16.8c-0.3,9.3,3.8,18.3-4.2,26.2c-2.3-3.1-4.6-5.7-6.3-8.6
	c-3.4-5.7-6.4-11.7-9.9-17.4c-3.1-5-7.5-8.1-13.4-9.6c-7.7-1.9-15.2-4.4-22.9-6.7c0.5-6.8,13.4-11.4,4.2-20.8
	c-6.3,6.9-12.6,13.3-18.3,20.2c-3.2,3.8-6.3,5.3-10.7,2.8c-8-4.6-16.8-4.5-25.6-4.6c-2.8,0-5.7,0-8.5-0.4c-4-0.6-7.1-2.4-7.9-7.1
	c-0.3-1.6-2.1-3.5-3.6-4c-1-0.3-3.5,1.3-4.1,2.6c-2.6,5.8-6.9,7.3-12.9,6.8c-10.6-1-21.2-1.6-31.8-2.4c-4.2-0.3-5.7-2.3-5.1-6.6
	c0.3-2.3-0.6-4.8-1-7.2c-1.4,2-2.5,4.3-4.2,6c-2.2,2.2-4.6,5.3-7.3,5.7c-15.2,2.1-29.3-2.1-42.9-8.4c-4.1-1.9-8-13-6.1-16.9
	c0.5-1,2.2-1.7,3.5-2c13.7-3.9,27.8-3.7,41.6-2.6c19.4,1.6,37.9-2.8,56.6-6.1c9.7-1.7,19.3-2.6,29.5,0.6c7.8,2.5,16.8,1.5,25.3,0.9
	c15.6-1.1,31.1-3.1,46.6-4.7c2.6-0.3,5.4-0.8,7.9-0.4c3.5,0.6,6.8,1.9,10.1,3c0.3,0.8,0.5,1.5,0.8,2.3c0.6-1.2,1.4-2.3,1.8-3.5
	c1.9-5.4,5.7-5.5,10.7-5.3c16.6,0.5,33.2,0.5,49.8,0.1c24.1-0.6,48.1-2.6,72.2,0.2c17.4,2.1,33.5,8.3,49.5,14.9
	c3.2,1.3,6.5,2.7,9.8,3.7c11.4,3.2,18.9,10.7,24.9,20.7c9.1,15.1,21.2,28.2,28.2,44.7c5.6,13.2,6.4,26.3-0.6,39.4
	c-1.6,3.1-2.9,6.4-4.1,9.6c-2.8,7.7-8.6,12.5-15.7,16c-1.9,0.9-3.3,1.4-4.8-1.2C439.8,138.2,429.9,121.6,419.9,104.6z M293.4,143
	c3.6-7.6-1.3-18.1-9.9-21.7C286.9,128.6,290.2,135.8,293.4,143z M223.5,66.2c8.3-0.8,9.8-3.6,5.8-10.5
	C227.4,59.1,225.6,62.4,223.5,66.2z"/>
<path style="fill:#FFFFFF;" d="M399.6,121c-1.6,0.7-2.3,1.3-3,1.3c-1.3-0.1-3.1-0.2-3.6-1c-0.5-0.9-0.3-3,0.5-3.7
	c2.4-2.2,5.1-4.4,8-5.9c6.5-3.4,10-2.5,14.2,3.6c6.2,9.1,12.5,18,17.9,27.5c2.9,5.1,3.7,11.3,5.7,16.9c1.5,4.2,0.2,7.4-3.4,9.3
	c-5.9,3.2-12,6-18.3,8.5c-1,0.4-3.8-1.2-4.3-2.5c-4.8-12-10.7-23.7-11.3-37c0-0.8-0.1-1.9-0.6-2.3c-3.7-3.2-3-7-1.8-11
	C399.9,123.8,399.6,122.8,399.6,121z"/>
<path style="fill:#FFFFFF;" d="M175.9,71.6c8.1-4.8,36,0.7,43,8.3c-2.3,0-4.3,0-6.4,0c-0.3,0.4-0.6,0.8-0.9,1.2
	c3.8,2.8,7.6,5.6,11.5,8.4c-0.1,0.2-0.2,0.4-0.3,0.6c-2.3-0.6-4.5-1.3-6.8-1.9c-0.3,0.4-0.6,0.9-0.9,1.3c7.3,5.5,14.5,11,22,16.7
	c-3.3,4.1-6.2,5.8-10.6,4.5c-20.7-6.3-37.1-18.3-49.1-36.3C176.9,73.7,176.5,72.7,175.9,71.6z"/>
<path style="fill:#FFFFFF;" d="M179,175.3c3.1,5.9,6.2,11.8,9.6,18.2c-1.6,2.6-3.3,5.7-5.5,8.7c-3.6,5-8.9,5-12.9,0.3
	c-0.3-0.4-0.6-0.8-0.8-1.2C160.3,186.1,159.4,183.8,179,175.3z"/>
<path style="fill:#FFFFFF;" d="M195.4,119.3c-0.8-4.7,1.4-7.1,5.2-8.7c4.2-1.7,6.4,1.1,9.2,3.6C205.8,118.6,201.2,120.3,195.4,119.3
	z"/>
<path style="fill:#FFFFFF;" d="M200.3,127.6c-3.9,1.9-7.9,3.8-12.3,5.9c-1.1-4.5,0.2-7.4,3.3-8.1c2.6-0.6,5.6,0.7,8.5,1.2
	C199.9,127,200.1,127.3,200.3,127.6z"/>
<path style="fill:#FFFFFF;" d="M397.6,172.9c-2-4.6-3.9-9.1-5.8-13.7c-0.7-1.6-1.2-3.3-1.7-5c0.4-0.2,0.8-0.3,1.2-0.5
	c2.5,6.3,5.1,12.5,7.6,18.8C398.4,172.6,398,172.7,397.6,172.9z"/>
<path d="M293.4,143c-3.3-7.2-6.6-14.4-9.9-21.7C292.2,125,297.1,135.4,293.4,143z"/>
<path d="M223.5,66.2c2.1-3.9,3.9-7.1,5.8-10.5C233.2,62.6,231.8,65.4,223.5,66.2z"/>
</svg>
