<?xml version="1.0" encoding="utf-8"?>
<!-- Generator: Adobe Illustrator 19.1.0, SVG Export Plug-In . SVG Version: 6.00 Build 0)  -->
<svg version="1.1" id="Legs_x5F_In_xA0_Image_1_" xmlns="http://www.w3.org/2000/svg" xmlns:xlink="http://www.w3.org/1999/xlink"
	 x="0px" y="0px" viewBox="0 0 389.7 306.2" style="enable-background:new 0 0 389.7 306.2;" xml:space="preserve">
<path d="M99.8,148.4c-8.7-1.8-17.4-3.8-26.2-5.2c-23.3-3.7-45.7-10.4-68.1-17.5c-5.9-1.9-6.2-3.5-4.9-9.7c1.5-7.3,2.2-14.8,2.8-22.2
	c0.6-7.5,2.4-14.8,8-20C21.9,64,23.5,51.3,24,38.2c0.2-4.7-0.1-9.3-0.2-14c-0.2-6.1,2-10.7,7.1-14.5c6.9-5,13.6-11,22.8-9.5
	c11.5,1.9,22.8,4.6,34.1,7.3c3.9,1,7.3,3.7,11.2,4.8c6.8,2,13.7,4.3,20.7,4.8c10.6,0.8,21.3-0.2,31.9,0.3c6.3,0.3,12.5,1.8,18.7,3.1
	c7.2,1.4,14.3,3.5,21.5,4.5c12.4,1.8,21.9,8.5,30.6,16.7c3.5,3.4,6.2,2.6,10,1c13.7-6,27.7-10.7,43-7.8c6.9,1.3,12.7,4.3,17.6,9.6
	c10,10.9,22.6,18.5,35.4,25.8c10.7,6.1,21.4,12.3,32.3,18c9.5,5,16.9,12.4,23.5,20.5c2.5,3.1,2.7,8.4,3.3,12.8
	c2.6,20.7,3.3,41.5,0.3,62.2c-4.1,28.3-13.8,54.3-30.6,77.6c-11.7,16.3-26.5,29.3-42.2,41.5c-4.3,3.4-8.7,4-13.9,2.6
	c-19-5-38-10-57.1-14.4c-28.9-6.6-57.8-12.9-86.8-18.8c-10.4-2.1-17.3-7.1-20.4-17.2c-2.3-7.6-4.5-15.3-7-22.9
	c-1.9-5.8-4.3-11.5-6.2-17.4c-0.9-2.6-1.8-5.5-1.5-8.1c0.4-3.6-1.1-4.8-4.1-5.6c-5.9-1.6-11.9-3.1-17.8-4.9c-5.3-1.6-8.1-5.1-8.4-11
	c-0.4-8.1-1.5-16.2-2.4-24.3c-0.8-6.9-0.9-6.9,6-8.7c1.6-0.4,3.1-1.1,4.7-1.7C99.9,149.8,99.9,149.1,99.8,148.4z M375.4,136.1
	c0.1,0.5,0.1,1.1,0.2,1.6c-1.3,0.1-2.6,0.6-3.7,0.3c-8.5-2.9-17-5.8-25.4-9.1c-8.5-3.3-16.8-7.2-25.4-10.4c-2.8-1.1-6.2-1.3-9.2-1
	c-6.2,0.6-12.4,1.8-18.6,2.8c-5.9,1-11.8,1.9-17.6,2.9c-7.8,1.4-15.6,3-23.3,4.5c-2.6,0.5-5.1,1.3-7.7,2c-0.2,0.5-0.3,1.1-0.5,1.6
	c15.4-0.8,19.3,10.8,23.9,21.2c5.2,11.9,2.9,22.4-7.6,30c6.5,3.8,12.9,6.8,18.5,10.9c11.3,8.3,11.5,18,1.2,27.5
	c-2.1,1.9-4.2,3.9-6.7,5.2c-8.6,4.4-17,9.2-26,12.5c-26,9.4-53.2,13.3-80.5,16.2c-7.2,0.7-14.4,1.3-21.7,1.9c-0.1,0.5-0.2,1-0.3,1.5
	c2.3,0.9,4.6,1.9,7.1,2.6c50.8,13.2,101.7,26.4,152.6,39.4c2.4,0.6,5.9,0.1,7.8-1.4c6.6-5.3,13.4-10.6,19-16.9
	c15.7-17.5,25.8-38.2,33.3-60.3c12-35.8,15.2-72.8,15.6-110.2c0-0.9-0.3-2.1-0.9-2.7c-3.9-4.1-7.5-8.6-11.9-11.9
	c-5.7-4.2-12.1-7.7-18.3-11.2c-18.7-10.5-37.6-20.5-54.6-33.8c-5.1-3.9-11.7-6.3-18-8c-12.6-3.2-25-0.9-37.3,3
	c-18.3,5.9-35.2,14.9-49,28c-15.5,14.8-29.4,31.3-43.9,47.1c-1.2,1.3-2.2,2.7-3.8,4.6c26.7,1.8,42.5,15.3,47.3,41.4
	c1.7-1.3,2.8-2.1,3.8-2.9c15.5-12,31-24.2,46.6-36c3.1-2.3,6.9-4.3,10.6-5.1c17.3-3.9,34.8-7.5,52.2-10.7c5.9-1.1,11.8-2.4,18.1,0.2
	c17.6,7.4,35.4,14.4,53.1,21.5C374.7,135.5,375,135.9,375.4,136.1z M86.5,65.8c0.2,0.6,0.2,0.8,0.3,0.9
	c27.7,4.7,54.7,13.2,82.9,14.5c5.5,0.3,10.6-0.4,14.6-5.2c9.8-11.9,21.9-20.8,35.8-27.5c0.9-0.4,1.7-1,3.1-1.9
	c-15.5-10.9-32.5-16.7-50.1-21.1c-22.9-5.8-46.2-3.9-70.3-4c4.1,9.5,6.7,18,3,27.1C102.2,57.5,94.4,61.8,86.5,65.8z M254.1,232.9
	c-18.8-11.7-19-12.7-8-41.2c-40.1,6.2-80.2,12.4-120.7,18.6c1.9,4.7,3.9,9.1,5.3,13.6c2.6,8.3,4.8,16.6,7.2,24.9
	c0.7,2.7,1.7,4.2,5.1,3.7c22.9-3,46-5,68.8-8.8C226.1,241.4,240,236.6,254.1,232.9z M252.7,182.7c-7-3.7-13.6-6.3-19.1-10.3
	c-9.3-6.7-10.5-15.2-4.2-24.9c2.8-4.2,6.3-8,9.5-12c-3.4,1.8-6.7,3.9-9.7,6.3c-14.1,11-28,22.1-42.1,33c-7.2,5.6-15.5,9.5-24.7,10
	c-22.4,1.4-39.4-17.9-36.9-42.2c-7.1,1.3-13.9,2.6-21.4,4c2.1,3.9,0.8,6-2.4,7.8c-3.9,2.2-6.1,5.9-5.9,10.3
	c0.3,6.1,1.2,12.2,1.5,18.3c0.4,7.7,4.4,11.5,11.9,12.6c4.6,0.7,9.7,1.4,13.2,4c3.5,2.5,6.4,2.6,10,2.1
	c38.1-5.2,76.2-10.5,114.3-15.9C248.9,185.6,250.8,183.7,252.7,182.7z M65.8,135.3c0.2,0.4,0.4,0.8,0.5,1.2c2.9,0.4,5.8,0.8,8.6,1.2
	c12.3,1.7,24.6,4,37.1,0.7c5.4-1.4,11.2-1.4,16.8-2.3c1.1-0.2,2.3-1,3.1-1.8c12-13.6,23.9-27.3,35.8-41c0.7-0.8,1.1-1.7,2.4-3.8
	c-18.8,2.4-34.4-6.3-51-9.7c-7.7-1.6-15.2-4.4-23.5-6.9c9.1,13.4,4.4,25.6-1.2,37.7C88.8,123.1,80.1,132.3,65.8,135.3z M70,69.6
	c-13.3-1.2-25.2-2.4-37.1-3.4c-10.2-0.9-13,0.6-17.4,10.1c-6.3,13.7-8.5,28.3-8.9,43.1c0,1.2,1.5,3.2,2.8,3.6
	c7.9,2.7,15.8,5.3,23.8,7.6c6.9,2,14,3.5,21.7,5.4C47,110.7,45.4,87.6,70,69.6z M72.5,65.4c-10.3-22.7-2.9-39.8,14.4-54.8
	c-10.7-2.7-21-4.9-31.4-6.7c-14.6-2.5-22.6,8.7-24.5,21.2c-0.5,3.4-0.4,7-0.9,10.4c-1.3,8.4-2.8,16.8-4.3,25.7
	C41.9,62.6,56.7,64,72.5,65.4z M163.6,181.1c5.6-0.1,13.1-3.2,20-8.2c0.9-0.7,1.8-2.2,1.7-3.2c-0.9-8.4-3.1-16-8.9-22.7
	c-7.6-8.8-17.5-12.7-28.2-15.7c-6.2-1.7-10.1-0.4-13.7,5.1c-4.8,7.3-8.7,14.2-5,23.4C134.6,172.2,147.1,181.1,163.6,181.1z
	 M56.7,133.6c11.9-3.7,23.9-6,29.9-18.2c2.9-5.9,6.3-11.8,8.1-18.1c1.4-4.7,1.8-10.3,0.7-15.1c-2.5-10.7-17.1-15.5-25.9-9.1
	c-7.4,5.4-12.4,12.4-14.8,21.2C51.1,107.4,52.7,120.1,56.7,133.6z M266.2,163c-0.6-8.8-5.5-17-11.7-24.5c-2.4-2.9-11.8-3.5-13.6-1
	c-3.6,5.1-7.5,10.2-10,15.9c-3,7-1,13.8,5.4,18c5.5,3.5,11.9,5.6,18,8.2c0.9,0.4,2.4,0.1,3.2-0.4C262.8,175.6,266.2,170.9,266.2,163
	z M242.7,212.6c0,8.8,11.5,19.3,17.8,16c7.2-3.8,13.9-8.9,19.9-14.5c4.5-4.1,4.1-9.6-0.7-13.6c-5.2-4.4-11.3-8.1-17.5-11.1
	c-2.4-1.2-7.6-0.6-9.2,1.3C247.3,196.9,243.3,204.4,242.7,212.6z M90.4,12.4c-7.1,5-14.5,14.7-17.5,23.1c-2.8,7.8-3.1,15.6-0.2,23.5
	c2.2,6.1,2.7,6.4,8.6,4c3.1-1.3,6.1-2.7,9-4.2C110.2,48.7,104.3,25.7,90.4,12.4z"/>
<path style="fill:#FFFFFF;" d="M375.4,136.1c-0.4-0.3-0.8-0.7-1.2-0.8c-17.7-7.2-35.5-14.1-53.1-21.5c-6.2-2.6-12.2-1.3-18.1-0.2
	c-17.5,3.3-34.9,6.9-52.2,10.7c-3.7,0.8-7.5,2.8-10.6,5.1c-15.7,11.9-31.1,24-46.6,36c-1,0.8-2.1,1.6-3.8,2.9
	c-4.9-26.1-20.7-39.5-47.3-41.4c1.6-1.9,2.6-3.3,3.8-4.6c14.6-15.8,28.4-32.3,43.9-47.1c13.8-13.2,30.6-22.1,49-28
	c12.2-4,24.7-6.3,37.3-3c6.3,1.6,13,4,18,8c17.1,13.2,36,23.2,54.6,33.8c6.2,3.5,12.6,6.9,18.3,11.2c4.5,3.3,8.1,7.8,11.9,11.9
	c0.6,0.6,0.9,1.8,0.9,2.7c-0.4,37.4-3.6,74.4-15.6,110.2c-7.4,22.1-17.6,42.8-33.3,60.3c-5.6,6.3-12.3,11.6-19,16.9
	c-1.8,1.5-5.4,2-7.8,1.4c-50.9-13-101.7-26.2-152.6-39.4c-2.4-0.6-4.7-1.7-7.1-2.6c0.1-0.5,0.2-1,0.3-1.5c7.2-0.6,14.5-1.2,21.7-1.9
	c27.4-2.8,54.5-6.8,80.5-16.2c9-3.3,17.4-8.1,26-12.5c2.5-1.3,4.6-3.3,6.7-5.2c10.3-9.5,10.1-19.2-1.2-27.5
	c-5.6-4.1-12-7.1-18.5-10.9c10.5-7.6,12.8-18.1,7.6-30c-4.6-10.4-8.5-22-23.9-21.2c0.2-0.5,0.3-1.1,0.5-1.6c2.6-0.7,5.1-1.5,7.7-2
	c7.8-1.6,15.5-3.1,23.3-4.5c5.9-1.1,11.7-2,17.6-2.9c6.2-1,12.4-2.2,18.6-2.8c3-0.3,6.4,0,9.2,1c8.6,3.2,16.9,7.1,25.4,10.4
	c8.4,3.2,16.9,6.1,25.4,9.1c1.1,0.4,2.5-0.2,3.7-0.3C375.5,137.2,375.5,136.7,375.4,136.1z"/>
<path style="fill:#FFFFFF;" d="M86.5,65.8c7.9-4,15.7-8.4,19.4-17.4c3.7-9.1,1.1-17.6-3-27.1c24.1,0.1,47.3-1.7,70.3,4
	c17.6,4.4,34.6,10.2,50.1,21.1c-1.5,0.9-2.2,1.5-3.1,1.9c-13.8,6.7-26,15.6-35.8,27.5c-4,4.8-9.1,5.5-14.6,5.2
	c-28.2-1.3-55.2-9.8-82.9-14.5C86.7,66.7,86.7,66.4,86.5,65.8z"/>
<path style="fill:#FFFFFF;" d="M254.1,232.9c-14.1,3.7-28,8.5-42.3,10.9c-22.8,3.8-45.8,5.8-68.8,8.8c-3.4,0.4-4.4-1.1-5.1-3.7
	c-2.3-8.3-4.6-16.7-7.2-24.9c-1.4-4.5-3.5-8.9-5.3-13.6c40.4-6.2,80.6-12.4,120.7-18.6C235.1,220.2,235.3,221.2,254.1,232.9z"/>
<path style="fill:#FFFFFF;" d="M252.7,182.7c-1.9,1.1-3.8,3-6,3.3c-38.1,5.4-76.2,10.6-114.3,15.9c-3.6,0.5-6.5,0.4-10-2.1
	c-3.6-2.5-8.7-3.3-13.2-4c-7.5-1.2-11.5-5-11.9-12.6c-0.3-6.1-1.3-12.2-1.5-18.3c-0.2-4.5,2-8.1,5.9-10.3c3.2-1.8,4.5-3.9,2.4-7.8
	c7.4-1.4,14.3-2.7,21.4-4c-2.5,24.3,14.4,43.6,36.9,42.2c9.2-0.6,17.4-4.4,24.7-10c14.1-10.9,28.1-22,42.1-33
	c3.1-2.4,6.3-4.6,9.7-6.3c-3.2,4-6.7,7.7-9.5,12c-6.3,9.7-5.1,18.1,4.2,24.9C239.1,176.4,245.7,179,252.7,182.7z"/>
<path style="fill:#FFFFFF;" d="M65.8,135.3c14.3-2.9,23-12.2,28.7-24.7c5.5-12.2,10.3-24.3,1.2-37.7c8.3,2.5,15.7,5.3,23.5,6.9
	c16.7,3.5,32.2,12.1,51,9.7c-1.3,2.1-1.8,3-2.4,3.8c-11.9,13.7-23.8,27.3-35.8,41c-0.8,0.9-2,1.7-3.1,1.8
	c-5.6,0.8-11.4,0.8-16.8,2.3c-12.5,3.3-24.8,1-37.1-0.7c-2.9-0.4-5.8-0.8-8.6-1.2C66.2,136.1,66,135.7,65.8,135.3z"/>
<path style="fill:#FFFFFF;" d="M70,69.6c-24.6,18-23,41.1-15.1,66.4c-7.7-1.9-14.7-3.4-21.7-5.4c-8-2.3-15.9-4.9-23.8-7.6
	c-1.2-0.4-2.8-2.4-2.8-3.6c0.5-14.9,2.6-29.5,8.9-43.1c4.4-9.5,7.2-11,17.4-10.1C44.8,67.2,56.7,68.4,70,69.6z"/>
<path style="fill:#FFFFFF;" d="M72.5,65.4c-15.7-1.4-30.6-2.7-46.7-4.2c1.5-8.9,3-17.3,4.3-25.7c0.5-3.4,0.4-7,0.9-10.4
	c2-12.5,10-23.7,24.5-21.2c10.4,1.8,20.8,3.9,31.4,6.7C69.6,25.6,62.2,42.7,72.5,65.4z"/>
<path style="fill:#FFFFFF;" d="M163.6,181.1c-16.5,0-29-8.9-34-21.4c-3.7-9.2,0.2-16.1,5-23.4c3.6-5.4,7.5-6.8,13.7-5.1
	c10.7,3,20.6,6.8,28.2,15.7c5.8,6.7,8,14.4,8.9,22.7c0.1,1-0.8,2.6-1.7,3.2C176.8,177.9,169.2,181,163.6,181.1z"/>
<path style="fill:#FFFFFF;" d="M56.7,133.6c-3.9-13.5-5.6-26.2-2-39.2c2.4-8.8,7.4-15.9,14.8-21.2c8.8-6.4,23.4-1.6,25.9,9.1
	c1.1,4.8,0.7,10.4-0.7,15.1c-1.8,6.3-5.2,12.1-8.1,18.1C80.6,127.6,68.6,129.9,56.7,133.6z"/>
<path style="fill:#FFFFFF;" d="M266.2,163c0.1,8-3.4,12.6-8.7,16.1c-0.8,0.5-2.3,0.8-3.2,0.4c-6.1-2.6-12.5-4.6-18-8.2
	c-6.4-4.1-8.5-11-5.4-18c2.5-5.7,6.3-10.8,10-15.9c1.8-2.5,11.3-1.9,13.6,1C260.7,146,265.6,154.2,266.2,163z"/>
<path style="fill:#FFFFFF;" d="M242.7,212.6c0.6-8.2,4.7-15.7,10.4-22c1.7-1.8,6.8-2.4,9.2-1.3c6.2,2.9,12.2,6.7,17.5,11.1
	c4.7,4,5.1,9.5,0.7,13.6c-6,5.6-12.7,10.7-19.9,14.5C254.2,231.9,242.7,221.4,242.7,212.6z"/>
<path style="fill:#FFFFFF;" d="M90.4,12.4c13.9,13.2,19.8,36.2-0.1,46.4c-3,1.5-6,2.9-9,4.2c-5.9,2.4-6.3,2.1-8.6-4
	c-2.9-7.9-2.6-15.7,0.2-23.5C75.8,27.2,83.2,17.5,90.4,12.4z"/>
</svg>
