<?xml version="1.0" encoding="utf-8"?>
<!-- Generator: Adobe Illustrator 19.1.0, SVG Export Plug-In . SVG Version: 6.00 Build 0)  -->
<svg version="1.1" id="ok_xA0_Image_1_" xmlns="http://www.w3.org/2000/svg" xmlns:xlink="http://www.w3.org/1999/xlink" x="0px"
	 y="0px" viewBox="0 0 576.8 1167.2" style="enable-background:new 0 0 576.8 1167.2;" xml:space="preserve">
<path d="M525.5,644.5c8.3,6.4,17.3,12.6,25.4,19.9c11.7,10.5,21.2,23.2,24,38.9c2.2,12.4,1.9,25.4,1.8,38.1c-0.1,10-1.3,20.1-2.9,30
	c-2.5,15-5.4,30.2-16.9,41.4c-5.8,5.6-13,9.6-19.7,14.2c-1.6,1.1-3.5,1.8-6.4,3.2c4.3,3.9,8.3,7.2,11.8,11.1c6.9,7.6,9,17.2,9.6,27
	c0.5,7.7,1,15.5,0.7,23.3c-0.8,21.2-3.7,42.1-13.2,61.3c-2.6,5.2-6.6,10.1-11.1,13.6c-8.3,6.4-17.6,11.7-26.6,17.5
	c3.8,6.7,8.1,12.9,10.9,19.6c11.2,27.1,9.9,53.6-4,79.6c-13.9,25.9-34.9,44.5-59.7,59.3c-21.6,12.9-45,21-70.1,23.9
	c-15,1.7-29.4,1.1-44-4c-23.5-8.2-47.6-14.4-71.1-22.3c-40.7-13.7-80.8-29.1-118.9-49.2c-15.4-8.2-30.6-16.8-42.7-29.8
	c-13.1-14-18.7-31.4-22.4-49.7c-3-15.2-6.3-30.5-9.9-45.6c-2.3-9.7-8.2-17.1-16.4-23c-26.9-19.2-44.3-44.8-51-77.4
	c-6.5-31.9-1-61.3,17.9-88c3.1-4.3,6.5-8.5,8.7-13.3c1.7-3.7,2.9-8.4,2.2-12.2c-1.7-8.5-4.9-16.8-7.2-25.2
	C17,699.9,9.8,673.2,12.8,645c1.6-15.5,7.5-29.5,15.1-42.9c5-8.6,10.3-17.1,14.6-26.1c1.9-3.9,2.9-9.1,2.1-13.4
	c-4.5-24.1-1.7-47.2,7.3-70c5.8-14.7,13.3-28.1,24-39.7c17.7-19.1,40.1-29.7,65.1-35.6c6.3-1.5,12.6-2.7,19-3.2
	c5.9-0.4,9.7-4,13.7-7.2c14.1-11.4,28.4-22.8,38.3-38.4c5.2-8.1,8.5-17.1,8.3-26.5c-0.2-14.3-1.7-28.6-3.1-42.9
	c-1.2-12.3-3-24.6-4.5-36.9c-1.7-12.8-3.5-25.5-5.1-38.2c-2.4-19.2-5.2-38.5-6.8-57.8c-1.6-19-3-38-2.7-57
	c0.3-20.6,2.2-41.2,9.8-60.8c6.5-16.7,16.1-30.8,32-39.8c10.2-5.8,21.3-8.6,33.1-8.6c10.7,0,21.5-1,31.9,2.8
	c12.5,4.5,23.7,11,32.1,21.5c14.1,17.7,23.6,38.2,30.8,59.2c13.3,38.6,24.3,78,32.3,118.1c5.6,28.2,5.3,56.4,4.5,84.7
	c-0.6,19.6-3.3,39.2-4.3,58.9c-0.9,17.6-0.9,35.2-1.1,52.8c-0.1,7.1,0.5,14.2,0.8,21.3c0.2,5.5,1.9,6.8,7.3,7.6
	c27.7,4.2,54.7,11,80.2,23.1c15.4,7.3,29.7,16,41.8,28.1c11.3,11.3,19.8,24.5,23.1,40.4c3.2,15.2,2.6,30.3-1.3,45.5
	c-2.5,9.7-3.1,19.8-4.3,29.8c-1.4,11.9,0.1,24.4-8.1,34.7C534.4,634.2,529.7,639.5,525.5,644.5z M216.9,443.9
	c16-7.7,31.9-10.9,48.4-14.3c-1.6-0.6-2.6-1.2-3.6-1.3c-16.2-1.4-32.3-3.2-48.5-3.9c-28.5-1.2-56.7,0.1-83.7,10.8
	c-12.7,5-24.6,11.6-34.8,20.9c-16.8,15.3-25.8,34.7-32,56.3c-5.2,18.1-2.7,34.3,6.8,50c1.8,3,1.2,5.1-1,7.5c-3.2,3.4-6.5,6.7-9,10.6
	c-15.8,24.2-25.1,50.8-25.4,79.7c-0.1,15.3,2.7,30.7,4.9,45.9c3,20.5,12.6,37.7,28.3,51.3c2.4,2.1,4.9,4,7,6.4
	c4.1,4.7,3.2,8.1-2.9,9.8c-3,0.9-6.2,1.1-9.3,1.7c-17.4,2.9-29.9,11.9-36.5,28.7c-6.8,17.5-7.2,35.5-4.6,53.6
	c3.3,22.6,13.6,41.3,32.6,54.9c14.9,10.7,31.6,17.4,49,22.8c10.6,3.3,21.4,6,32.1,9.2c1.5,0.5,2.7,2.1,4.1,3.2
	c-1.5,1.1-2.8,2.8-4.5,3.3c-4.7,1.6-9.7,2.4-14.4,4c-21.6,7.4-30.2,23.7-24.4,45.8c4.5,17.3,14.1,31.9,25.6,45.1
	c19.3,22.2,41.7,40.1,69.5,51.2c25.6,10.2,50.5,21.9,75.8,32.7c9.2,3.9,18.6,7.2,28,10.7c0-0.2,0.1-0.3,0.1-0.5
	c-20.8-14.6-41.6-29.2-62.4-43.7c0.2-0.4,0.5-0.8,0.7-1.2c8.9,4.6,18,9,26.8,13.8c18.6,10.2,36.9,21,55.7,30.8
	c14.6,7.6,30.4,11.2,46.9,11.7c19,0.6,37-3.9,54.4-11c25.2-10.3,49-22.9,66.4-44.7c19.8-24.8,27.2-52.6,17.5-83.4
	c-4.7-14.8-10.4-22-28.6-18.1c-10.1,2.1-20.7,2.6-31,3.2c-29.5,1.6-58.6-3.3-87.8-6c-18.5-1.7-37.1-3-55.7-3.8
	c-8.3-0.3-16.7,1-25.1,1.6c-0.1-0.3-0.2-0.5-0.3-0.8c4.2-2.2,8.3-4.4,12.9-6.9c-3.1-0.8-6-1.4-8.8-2.3c-3-0.9-6-2-8.8-3.3
	c-2.4-1.1-4.6-2.6-8.1-4.6c17.1,2.6,32.4,5.2,47.9,7.1c16.5,2,33.1,3.6,49.7,4.5c17.1,0.9,34.2,1.1,51.3,1
	c14.2-0.1,28.4-0.8,42.6-1.7c14.7-0.9,29.3-2.9,41.9-11.8c6.3-4.5,12.8-9,19.6-12.6c10.2-5.5,18.2-12.6,21.1-24.3
	c0.7-2.9,1.4-5.8,2-8.7c3.9-20.4,6.1-40.9,2.5-61.6c-2.5-14.5-10.6-23.8-24.9-27.8c-9.7-2.7-19.6-2.3-29.6-2.1
	c-26.5,0.7-52.9,1.2-79.4,1c-12.9-0.1-25.9-0.8-38.5-3.2c-29.4-5.4-58.5-12.2-87.8-18.1c-16-3.3-32.2-4.1-48.2,0.6
	c-5.5,1.6-10.7,4.1-16,6.1c6.5-12.7,18.5-15.3,31-17.7c-6.1-3.1-12.1-5.6-17.4-9.1c-9.5-6.2-12-9.1-13.5-13.3
	c5.4,2.1,10.8,4.1,16.1,6.3c25.3,10.5,51.5,17.9,78.6,21.3c26.7,3.4,53.5,5.3,80.3,8c17.4,1.8,34.7,3.7,52,5.8
	c21.5,2.5,42.9,6.4,64.7,3.4c26.5-3.6,46-15.8,52.6-44.3c2.8-12,3.7-24.4,5.2-36.7c2.8-22.8,0.9-44.6-14.5-63.1
	c-9.4-11.3-20.8-19.9-35.7-22.9c-11.6-2.4-22.8,0.5-33.9,2.7c-15.5,3.1-30.7,3.4-45.9-1.6c-12.9-4.2-25.7-8.6-38.6-12.6
	c-13.7-4.2-27.3-8.9-41.3-11.7c-10.8-2.2-22.1-2.4-33.2-2.5c-16.3-0.2-31.5-4.6-46.9-9.6c-6.3-2.1-13.7-2.4-20.3-1.4
	c-8.3,1.2-16.4,4.5-25,7c9.3-9.5,19.9-15.3,31.5-14.7c-5.1-6.2-10.6-12.9-15.2-18.4c4.4,2.3,10.3,5.6,16.2,8.6
	c12,6.1,24.6,10.8,38,12.1c14,1.4,28.1,2.3,42.1,2.7c16.8,0.5,32.5,5.1,48,11.1c18.6,7.2,37.1,15,57.1,17.7
	c13.3,1.8,26.8,3.4,40.1,1.1c25.4-4.5,41.2-19.4,46.3-44.8c3.3-16,5.4-32.4,9.2-48.3c3.4-14,1.1-27.2-4.1-39.8
	c-9.4-22.6-25.8-39.4-47.5-50.3c-12.3-6.2-25.5-11.2-38.7-15.2c-29.8-9-60.7-12.2-91.7-13.1c-9-0.3-18.1-0.4-27.1,0
	c-10.9,0.4-21.8,1.5-32.7,1.9c-8.1,0.3-16.2-0.4-24.2,0.3C256.1,440,237.2,442,216.9,443.9z M331.9,263.7c2.4-0.6,4.1-1.1,5.8-1.4
	c15.5-3,30.9-6.2,44.5-14.8c6.2-3.9,10.8-9,10.6-16.7c-0.1-5.1-0.7-10.4-2-15.3c-9.4-36.2-19-72.4-28.8-108.5
	C356.4,86.2,346.6,67,336.5,48c-7.5-14.2-17.6-25.4-33.2-31.2c-14.1-5.2-28.3-5-42.3-0.5c-17.4,5.7-28.6,18.3-35.1,35
	c-3.9,9.9-6.7,20.3-8.9,30.8c-2.1,9.8-3.6,19.9-3.8,29.9c-0.4,18.6,0,37.2,0.7,55.8c0.5,12.6,1.6,25.3,3.1,37.9
	c2.1,18.3,4.8,36.6,7,54.9c1.2,9.4,4.8,14.6,12.3,15.5c6.6,0.8,13.2,0.9,19.9,1.1c4,0.2,8.1,0,13,0c-4.2,2-7.5,4.4-11,5
	c-6.8,1.2-13.7,1.7-20.6,2c-4.9,0.2-8.1,2.1-8.9,6.9c-0.9,5-1.7,10.2-1.5,15.2c0.2,10.8,1,21.5,1.7,32.2c1.3,19.6-4.9,36.5-18,50.9
	c-6.8,7.4-13.9,14.5-21.1,22.1c1.6,0.3,2.9,0.6,4.4,0.7c8.7,0.7,17.4,1.1,26.1,2c14.7,1.6,29.4,3.4,44.1,5.1
	c10.5,1.2,20.9,2.8,31.4,3.7c8.1,0.7,16.2,0.7,24.3,0.5c14.5-0.5,28.9-3.5,43.6-1.4c7.4,1.1,15.1,0.8,23.2,1.2
	c-0.4-5.8-1.1-10.6-1-15.5c0.5-23.4,0.8-46.8,2-70.1c1-19.4,3.3-38.8,4.7-58.2c0.3-4.2-0.3-8.6-1-12.8c-0.5-3-2.6-4.5-6.1-4.3
	c-8.4,0.7-16.9,1.1-25.4,1.3C351.1,263.9,342,263.7,331.9,263.7z"/>
<path style="fill:#FFFFFF;" d="M216.9,443.9c20.3-2,39.3-4,58.3-5.5c8-0.6,16.2,0,24.2-0.3c10.9-0.4,21.8-1.5,32.7-1.9
	c9-0.3,18.1-0.2,27.1,0c31.1,0.9,61.9,4.1,91.7,13.1c13.3,4,26.4,9,38.7,15.2c21.7,10.9,38.1,27.7,47.5,50.3
	c5.2,12.6,7.5,25.8,4.1,39.8c-3.8,15.9-6,32.2-9.2,48.3c-5.2,25.4-21,40.4-46.3,44.8c-13.3,2.4-26.8,0.7-40.1-1.1
	c-20-2.7-38.5-10.5-57.1-17.7c-15.5-6-31.2-10.6-48-11.1c-14.1-0.5-28.1-1.4-42.1-2.7c-13.5-1.3-26-6-38-12.1
	c-6-3-11.8-6.3-16.2-8.6c4.5,5.5,10.1,12.3,15.2,18.4c-11.6-0.6-22.2,5.1-31.5,14.7c8.6-2.5,16.7-5.8,25-7c6.6-0.9,14-0.7,20.3,1.4
	c15.3,5,30.5,9.4,46.9,9.6c11.1,0.1,22.4,0.3,33.2,2.5c14,2.8,27.6,7.5,41.3,11.7c12.9,4,25.7,8.4,38.6,12.6
	c15.2,5,30.4,4.6,45.9,1.6c11.1-2.2,22.3-5,33.9-2.7c14.9,3,26.3,11.6,35.7,22.9c15.4,18.5,17.3,40.3,14.5,63.1
	c-1.5,12.3-2.4,24.7-5.2,36.7c-6.6,28.5-26.1,40.7-52.6,44.3c-21.8,3-43.2-0.9-64.7-3.4c-17.3-2-34.7-4-52-5.8
	c-26.8-2.7-53.6-4.6-80.3-8c-27.1-3.5-53.3-10.9-78.6-21.3c-5.3-2.2-10.7-4.2-16.1-6.3c1.6,4.2,4.1,7.1,13.5,13.3
	c5.3,3.5,11.3,6,17.4,9.1c-12.5,2.4-24.5,5-31,17.7c5.3-2.1,10.6-4.5,16-6.1c16-4.7,32.1-3.9,48.2-0.6c29.3,6,58.4,12.7,87.8,18.1
	c12.6,2.3,25.7,3.1,38.5,3.2c26.5,0.2,53-0.3,79.4-1c10-0.3,19.8-0.6,29.6,2.1c14.3,4,22.3,13.3,24.9,27.8
	c3.6,20.7,1.5,41.2-2.5,61.6c-0.6,2.9-1.3,5.8-2,8.7c-2.9,11.7-10.8,18.8-21.1,24.3c-6.8,3.7-13.2,8.2-19.6,12.6
	c-12.6,8.9-27.1,10.9-41.9,11.8c-14.2,0.9-28.4,1.6-42.6,1.7c-17.1,0.1-34.3-0.1-51.3-1c-16.6-0.9-33.2-2.6-49.7-4.5
	c-15.5-1.8-30.8-4.5-47.9-7.1c3.4,2,5.6,3.5,8.1,4.6c2.9,1.3,5.8,2.3,8.8,3.3c2.8,0.9,5.7,1.5,8.8,2.3c-4.6,2.4-8.7,4.7-12.9,6.9
	c0.1,0.3,0.2,0.5,0.3,0.8c8.4-0.6,16.8-1.9,25.1-1.6c18.6,0.8,37.2,2,55.7,3.8c29.2,2.8,58.3,7.6,87.8,6c10.4-0.6,20.9-1,31-3.2
	c18.2-3.8,24,3.3,28.6,18.1c9.7,30.8,2.2,58.6-17.5,83.4c-17.4,21.9-41.2,34.4-66.4,44.7c-17.4,7.1-35.4,11.6-54.4,11
	c-16.5-0.5-32.3-4-46.9-11.7c-18.8-9.8-37.1-20.6-55.7-30.8c-8.8-4.8-17.9-9.2-26.8-13.8c-0.2,0.4-0.5,0.8-0.7,1.2
	c20.8,14.6,41.6,29.2,62.4,43.7c0,0.2-0.1,0.3-0.1,0.5c-9.3-3.6-18.8-6.8-28-10.7c-25.3-10.8-50.3-22.5-75.8-32.7
	c-27.8-11.1-50.2-29-69.5-51.2c-11.5-13.2-21.1-27.8-25.6-45.1c-5.8-22.1,2.8-38.4,24.4-45.8c4.7-1.6,9.7-2.4,14.4-4
	c1.7-0.5,3-2.2,4.5-3.3c-1.4-1.1-2.6-2.7-4.1-3.2c-10.7-3.2-21.5-5.9-32.1-9.2c-17.3-5.4-34-12.1-49-22.8
	c-19-13.6-29.3-32.2-32.6-54.9c-2.6-18.1-2.2-36.1,4.6-53.6c6.6-16.9,19.1-25.8,36.5-28.7c3.1-0.5,6.3-0.8,9.3-1.7
	c6-1.7,7-5.1,2.9-9.8c-2.1-2.4-4.6-4.3-7-6.4C51.6,743.7,42,726.6,39,706.1c-2.2-15.2-5-30.6-4.9-45.9c0.2-28.9,9.6-55.5,25.4-79.7
	c2.5-3.8,5.8-7.2,9-10.6c2.3-2.4,2.8-4.5,1-7.5c-9.5-15.6-12-31.8-6.8-50c6.2-21.6,15.2-41,32-56.3c10.2-9.3,22-15.8,34.8-20.9
	c27-10.6,55.2-12,83.7-10.8c16.2,0.7,32.3,2.5,48.5,3.9c1.1,0.1,2.1,0.7,3.6,1.3C248.8,433.1,232.9,436.2,216.9,443.9z M345.8,798
	c0.1-22.4,1.3-44.7,4.8-66.9c3.4-21.9,6.6-43.9,10-65.9C337.4,707.6,333.4,751.9,345.8,798z M327.8,592.8
	c0.3-46.6,9-91.9,21.2-136.7C325.2,499.1,321.6,545.2,327.8,592.8z M380.7,848.6c-20.2,28.5-14.6,103.8-1.6,119.3
	C372.9,927.8,374.4,888.2,380.7,848.6z M520.4,514.4c0,8.3-1,16.8,0.2,24.9c2.2,15.4-0.2,30.1-4.4,44.7c-3.4,11.8-3.7,25.5-1.7,33.5
	C530.9,584.7,534.1,550,520.4,514.4z M517.3,947.3c7.5-11.6,12.7-30.9,13.6-49.1c0.6-11.6-6.4-44.1-10-48c0,15.6,0.5,31.7-0.1,47.8
	C520.2,914,518.6,930,517.3,947.3z M371.2,1009c-13.1,20.7-9.9,112,3.8,120.3C367.7,1089.6,367.6,1049.9,371.2,1009z M543,693.6
	c0,17.2,1.1,34.5-0.3,51.6c-1.4,17-5.4,33.9-8.1,49.7C554.1,763.4,554.7,729.1,543,693.6z M371.1,681.4
	c-12.1,11.2-20.7,72.4-13.7,89.7c1.7-14.1,3.1-29.3,5.4-44.3C365,711.8,368.2,697,371.1,681.4z M366.3,848.8
	c-9.5,32-9.3,64.4-3.1,96.9C361.3,913.3,363.3,881.1,366.3,848.8z"/>
<path style="fill:#FFFFFF;" d="M331.9,263.7c10.1,0,19.2,0.2,28.4,0c8.5-0.2,16.9-0.6,25.4-1.3c3.5-0.3,5.6,1.2,6.1,4.3
	c0.7,4.2,1.3,8.6,1,12.8c-1.4,19.4-3.7,38.8-4.7,58.2c-1.2,23.3-1.5,46.7-2,70.1c-0.1,4.9,0.6,9.7,1,15.5
	c-8.1-0.4-15.8-0.1-23.2-1.2c-14.7-2.1-29.1,0.9-43.6,1.4c-8.1,0.3-16.2,0.2-24.3-0.5c-10.5-0.9-20.9-2.5-31.4-3.7
	c-14.7-1.7-29.4-3.6-44.1-5.1c-8.7-0.9-17.4-1.3-26.1-2c-1.4-0.1-2.8-0.5-4.4-0.7c7.3-7.6,14.4-14.7,21.1-22.1
	c13.1-14.4,19.4-31.3,18-50.9c-0.7-10.7-1.5-21.5-1.7-32.2c-0.1-5.1,0.7-10.2,1.5-15.2c0.8-4.8,4-6.7,8.9-6.9
	c6.9-0.3,13.8-0.8,20.6-2c3.5-0.6,6.8-3,11-5c-4.9,0-8.9,0.1-13,0c-6.6-0.3-13.3-0.4-19.9-1.1c-7.5-0.9-11.1-6-12.3-15.5
	c-2.3-18.3-5-36.6-7-54.9c-1.4-12.6-2.6-25.2-3.1-37.9c-0.7-18.6-1.1-37.2-0.7-55.8c0.2-10,1.7-20.1,3.8-29.9
	c2.2-10.4,5.1-20.8,8.9-30.8c6.5-16.6,17.7-29.3,35.1-35c14-4.6,28.2-4.8,42.3,0.5c15.5,5.7,25.6,16.9,33.2,31.2
	c10.1,19,19.8,38.2,25.5,59.1c9.8,36.1,19.3,72.3,28.8,108.5c1.3,4.9,1.9,10.2,2,15.3c0.2,7.7-4.4,12.8-10.6,16.7
	c-13.6,8.6-29,11.8-44.5,14.8C335.9,262.6,334.3,263.1,331.9,263.7z M373.8,276.4c-39.9,15.3-81.3,20.6-123.8,17.7
	c-0.1,0.9-0.1,1.7-0.2,2.6c5.1,1.5,10.1,3.6,15.3,4.4c26.8,3.9,53.2,1.5,78.9-7.1C355,290.2,365.5,285.3,373.8,276.4z"/>
<path d="M345.8,798c-12.4-46.1-8.4-90.5,14.8-132.8c-3.3,22-6.6,43.9-10,65.9C347.2,753.3,345.9,775.7,345.8,798z"/>
<path d="M327.8,592.8c-6.1-47.6-2.5-93.7,21.2-136.7C336.8,500.9,328.1,546.2,327.8,592.8z"/>
<path d="M380.7,848.6c-6.3,39.6-7.8,79.2-1.6,119.3C366.1,952.4,360.5,877.1,380.7,848.6z"/>
<path d="M520.4,514.4c13.7,35.6,10.6,70.3-5.9,103.2c-2-8-1.7-21.7,1.7-33.5c4.2-14.7,6.6-29.3,4.4-44.7
	C519.4,531.2,520.4,522.7,520.4,514.4z"/>
<path d="M517.3,947.3c1.3-17.3,2.9-33.4,3.5-49.4c0.6-16.1,0.1-32.2,0.1-47.8c3.6,3.9,10.6,36.4,10,48
	C530,916.5,524.8,935.7,517.3,947.3z"/>
<path d="M371.2,1009c-3.6,41-3.5,80.6,3.8,120.3C361.3,1120.9,358.1,1029.7,371.2,1009z"/>
<path d="M543,693.6c11.7,35.5,11.1,69.9-8.4,101.3c2.7-15.8,6.7-32.6,8.1-49.7C544.1,728.1,543,710.8,543,693.6z"/>
<path d="M371.1,681.4c-2.9,15.5-6.1,30.4-8.3,45.3c-2.3,15-3.7,30.2-5.4,44.3C350.3,753.8,359,692.6,371.1,681.4z"/>
<path d="M366.3,848.8c-3,32.2-5.1,64.5-3.1,96.9C357,913.2,356.8,880.9,366.3,848.8z"/>
<path d="M373.8,276.4c-8.4,8.9-18.8,13.9-29.8,17.6c-25.7,8.7-52.1,11-78.9,7.1c-5.2-0.8-10.2-2.9-15.3-4.4c0.1-0.9,0.1-1.7,0.2-2.6
	C292.6,296.9,333.9,291.7,373.8,276.4z"/>
</svg>
