<?xml version="1.0" encoding="utf-8"?>
<!-- Generator: Adobe Illustrator 19.1.0, SVG Export Plug-In . SVG Version: 6.00 Build 0)  -->
<svg version="1.1" id="Pelvis_Forward_xA0_Image_1_"
	 xmlns="http://www.w3.org/2000/svg" xmlns:xlink="http://www.w3.org/1999/xlink" x="0px" y="0px" viewBox="0 0 272.3 314.4"
	 style="enable-background:new 0 0 272.3 314.4;" xml:space="preserve">
<path d="M0,101c9.4-27.6,18.6-54.6,28.1-81.6c0.6-1.8,3.3-3.8,5.3-4.1C55.9,12,78.5,9,101.1,5.9c1-0.1,2-0.3,2.9-0.7
	c14.6-5.8,30-5.3,45.3-5.1c21.1,0.3,42.3,0.6,63.4,1.1c3.8,0.1,7.6,1,11.3,1.9c8.8,2,15.3,6.7,19.4,15c3.5,7.1,7.5,14.1,11.8,20.9
	c1.4,2.2,4.1,3.4,6.1,5.2c2.6,2.4,5.9,4.5,7.4,7.5c1.9,3.6,2.3,7.9,3.2,12c1,4.6,0,8.7-4.1,11.4c-3.1,2-3.5,4.5-1.9,7.6
	c5.3,10.7,4.6,21.3,0.5,32.4c-1.6,4.4-0.6,9.7-0.8,14.6c-0.2,4.9,0,9.8-0.5,14.7c-1.3,11.7-8.1,18.8-18.8,23.2
	c-12.1,5-24.2,9.5-37.3,10.1c-7.5,0.4-15,0.2-22.5,0.6c-9.5,0.5-12,2.8-13.2,12.1c-2.1,16.2-0.7,32,7.6,46.4
	c8.4,14.7,8.5,30.5,6.8,46.6c-1.7,15.4-9.8,25.9-24.5,30.7c-2.3,0.7-5.8,0.3-7.8-1c-5.8-3.7-9.5-9.1-10.1-16.4
	c-0.9-11.1-1.9-22.2-3.3-33.3c-0.5-4-2-8-3.5-11.8c-1.1-2.9-3-5.6-4.3-8.4c-7.2-15.3-16.5-28.9-29-40.7c-8.5-8-17.3-16.8-20.8-28.8
	c-0.2-0.8-0.7-1.5-1.2-2.2c-9.7-13.3-19.2-26.7-29.1-39.8c-1.7-2.3-4.3-4.2-6.8-5.6C31.8,117.7,16.2,109.5,0,101z M261.1,146.2
	c2.8-5,3.3-10.1,2.2-15.8c-0.9-4.9-1.5-10.7,0.2-15.1c4.3-11.2,4.9-21.9-0.4-32.8c-1.8-3.8-1-6.8,2.5-9c3.7-2.4,4.7-5.9,3.7-10
	c-0.9-3.7-1.4-7.7-3-11c-1.2-2.4-4-4.1-6.2-6c-2.4-2.1-5.5-3.7-7.2-6.3c-4-6.1-7.7-12.5-10.7-19.2c-4.9-10.9-13.8-15.3-24.8-16.7
	c-4.3-0.6-8.6-0.6-12.9-0.9c-0.2,0-0.4,0.2-0.6,0.2c1.2,0.2,2.3,0.4,4.2,0.8c-1.7,1-2.7,1.5-3.7,2.1c-12,7.1-24,14.2-36.1,21.2
	c-3.6,2.1-7.3,2.2-10.8-0.3c-2.6-1.8-5.1-3.6-7.8-5.6c1.8,5.9,3.5,12.5,5.9,18.8c1.3,3.5,0,4.9-3,5c-4.1,0-8.3-0.4-12.4-1
	c-9.8-1.5-19.6-3.2-30.7-5.1c3.6,4.3,6.3,7.8,9.2,11.1c8.9,10.1,7.4,22.6,7.8,34.6c0,0.8-3.6,2.6-3.9,2.3c-5.4-5.1-12.3-2.8-18.5-4
	c1.2,1,2.4,1.7,3.7,2.3c12.3,5.6,23,13.4,32.2,23.3c6.7,7.3,11.4,15.3,10.7,26c-0.5,6.1,1.8,11.8,7,15.8c0.7,0.6,1.6,1.4,1.8,2.2
	c2.7,13.5,9.3,26.4,5.2,40.9c-1.4,4.9-2.4,7.7-8.3,7.5c-5.3-0.1-10.7,1.4-16,2.2c0.1,0.6,0.1,1.1,0.2,1.7c6.5,0.4,12.9,1.1,19.4,1.2
	c3.8,0,5.7,1.2,6.5,5c1.1,4.9,2.7,9.6,4.1,14.4c1.8,6,5.4,12.2-0.7,18.2c1.7-0.6,3.5-1.3,5.7-2c1.2,3.4,2.6,6.5,3.4,9.6
	c2.8,10.7,4.6,22,1.1,32.5c-2.7,8-8.4,15-13.2,22.2c-2.8,4.1-7.2,4-9.8-0.2c-2.1-3.3-3.5-7.2-4.2-11c-1.7-9-2.6-18.1-4.2-27
	c-1-5.2-2.8-10.3-4.2-15.4c0.1,5.8,0.6,11.4,1.2,16.9c1,9.9,1.9,19.9,3.2,29.8c0.8,6.3,8.5,14.2,12.7,12.7c7.5-2.7,14.6-6.1,19-13.7
	c6.9-12.2,6.9-25.6,5.2-38.4c-1.3-10.4-6.2-20.6-10.5-30.4c-6.2-14.1-5.5-28.6-3.4-43.1c1-6.8,4.1-9.5,11-10.2
	c7.1-0.7,14.3-1,21.4-1c19.7,0.1,37-7.3,53.5-17.1c0.7-0.4,1.2-1.5,1.5-2.4c0.9-3.2,1.7-6.4,2.5-9.6L261.1,146.2z M9.6,101.7
	C26.1,108,42,114.1,58,120.4c1.9,0.8,4.2,1.8,5.2,3.4c13.8,22.4,30.1,43.1,41.4,67.1c2.9,6.1,8.1,11.2,13,16
	c2.7,2.6,5.9,4.3,7.8,8.1c5.9,11.5,12.6,22.7,18.9,34c7.4,13.4,8.8,28.4,10.7,43.2c0.5,4,1.7,8.1,3.4,11.8c1.4,3.1,4,3.1,6.4,0.3
	c10.9-12.6,16.3-26.9,13.1-43.7c-1-5-2.4-9.9-4-16c-4.9,3.1-8.8,5.6-13.2,8.4c-0.5-0.7-1.2-1.8-1.2-1.8c3.4-4.4,6.4-7.9,8.8-11.7
	c1.1-1.8,1.6-4.7,1.2-6.7c-1.6-6.6-3.9-13.1-5.6-19.7c-0.8-2.9-2.1-3.9-5.1-4c-6.8-0.3-13.6-1.1-20.3-1.9c-1.6-0.2-3-1.3-4.6-2
	c0-0.5,0-1,0-1.4c2-0.9,4-2.1,6.1-2.5c5.7-1.1,11.5-1.6,17.2-2.7c1.5-0.3,3.4-1.8,3.9-3.2c5.1-14.3-1.3-27.4-4.2-40.9
	c-0.2-0.7-0.9-1.4-1.6-1.9c-6.1-5-8-11.9-7.7-19.3c0.3-7-1.8-12.9-6.2-17.9c-4.1-4.8-8.4-9.6-13.3-13.5
	c-12.5-9.9-25.6-18.8-42.7-17.9c-0.3,0-0.6-0.7-2-2.2c14.3-1.7,27.4-1.9,40.3,2.2c1.5-13.2-2.3-25.7-10.7-35.6
	c-2.7-3.2-5-6.7-7.4-10.1c0.3-0.5,0.7-1.1,1-1.6c15.3,2.3,30.5,4.7,44.7,6.9c-1.7-9.9-3.1-18.8-4.6-27.7c0.7-0.3,1.4-0.6,2.1-1
	c1.9,2.1,4.1,3.9,5.7,6.2c3.6,5.1,8.6,6.8,12.7,4c5.5-3.7,11.1-7.3,16.7-10.7c4.3-2.6,8.9-4.8,13.7-7.4c-0.8-0.5-1.1-0.8-1.3-0.8
	c-26.2-0.5-52.4-1-78.3,3.3c-7.9,1.3-15.3,5-23,7.6c-1.8,0.6-3.5,1.9-5.3,2.1c-18,2.5-36,4.8-53.9,7.4c-1.9,0.3-4.6,1.8-5,3.3
	C23.7,53.6,16.7,77.4,9.6,101.7z M148.4,3c-12.3,0.2-25.2-1.6-37.9,3.1c-3.2,1.2-6.7,1.9-10.2,2.4c-21.4,3-42.8,6-64.2,8.8
	c-4.2,0.6-6.7,2.1-6.6,6.8c1.1,0,2.1,0.1,3,0c19-2.5,37.9-5,56.9-7.6c1.3-0.2,2.5-0.8,3.7-1.3c5.8-2.4,11.4-5.7,17.4-6.9
	C123.3,5.9,136.2,4.7,148.4,3z M104.2,196.4c-3.2-6.5-6-13.3-9.8-19.4c-10.4-16.7-21.2-33.1-31.9-49.5c-0.9-1.4-1.9-3-3.3-3.6
	c-10.6-4.3-21.4-8.4-32.1-12.6c5.5,3.9,11.3,7.2,17.3,10.1c6,2.8,11,6.6,14.9,12.1c8.6,12.2,17.4,24.3,26.1,36.4
	c0.7,0.9,1.4,2,1.6,3.1C89.5,183.1,97.9,189.1,104.2,196.4z M28.3,28.6c-0.3-0.1-0.6-0.2-1-0.3C19.7,51.1,12.1,74,4.3,96.8
	c-1.1,3.2,0.3,4.2,2.6,4.7C14.1,77.1,21.2,52.9,28.3,28.6z M157.4,2.3c0,0.2,0,0.4,0,0.5c12.2,0,24.4,0,36.5,0c0-0.2,0-0.4,0-0.5
	C181.7,2.3,169.5,2.3,157.4,2.3z"/>
<path style="fill:#FFFFFF;" d="M9.6,101.7c7.1-24.2,14.1-48,21.3-71.7c0.5-1.5,3.2-3.1,5-3.3c18-2.6,36-4.9,53.9-7.4
	c1.8-0.3,3.5-1.5,5.3-2.1c7.6-2.6,15.1-6.3,23-7.6c25.9-4.3,52.1-3.8,78.3-3.3c0.3,0,0.5,0.3,1.3,0.8c-4.8,2.6-9.3,4.8-13.7,7.4
	c-5.7,3.4-11.2,7.1-16.7,10.7c-4.1,2.7-9.1,1.1-12.7-4c-1.6-2.3-3.8-4.1-5.7-6.2c-0.7,0.3-1.4,0.6-2.1,1c1.5,8.9,3,17.8,4.6,27.7
	c-14.2-2.2-29.5-4.5-44.7-6.9c-0.3,0.5-0.7,1.1-1,1.6c2.5,3.4,4.7,6.9,7.4,10.1c8.4,9.8,12.2,22.4,10.7,35.6
	c-12.9-4.2-26-3.9-40.3-2.2c1.4,1.6,1.7,2.3,2,2.2c17.1-0.9,30.2,8,42.7,17.9c4.9,3.9,9.1,8.7,13.3,13.5c4.4,5,6.5,10.9,6.2,17.9
	c-0.3,7.3,1.6,14.2,7.7,19.3c0.6,0.5,1.4,1.2,1.6,1.9c2.9,13.5,9.3,26.7,4.2,40.9c-0.5,1.4-2.4,2.9-3.9,3.2
	c-5.7,1.1-11.5,1.7-17.2,2.7c-2.1,0.4-4.1,1.7-6.1,2.5c0,0.5,0,1,0,1.4c1.5,0.7,3,1.8,4.6,2c6.8,0.8,13.5,1.6,20.3,1.9
	c3,0.1,4.4,1.1,5.1,4c1.7,6.6,4,13,5.6,19.7c0.5,2.1,0,4.9-1.2,6.7c-2.4,3.9-5.4,7.3-8.8,11.7c0,0.1,0.8,1.1,1.2,1.8
	c4.4-2.8,8.3-5.3,13.2-8.4c1.5,6.1,3,11,4,16c3.2,16.8-2.2,31-13.1,43.7c-2.4,2.7-5,2.7-6.4-0.3c-1.7-3.7-2.8-7.8-3.4-11.8
	c-1.9-14.8-3.3-29.8-10.7-43.2c-6.3-11.4-13-22.5-18.9-34c-1.9-3.8-5.1-5.5-7.8-8.1c-4.9-4.8-10.2-9.9-13-16
	c-11.3-24-27.6-44.7-41.4-67.1c-1-1.6-3.3-2.7-5.2-3.4C42,114.1,26.1,108,9.6,101.7z"/>
<path style="fill:#FFFFFF;" d="M261.2,146.1c-0.8,3.2-1.6,6.4-2.5,9.6c-0.2,0.9-0.8,1.9-1.5,2.4c-16.5,9.8-33.8,17.2-53.5,17.1
	c-7.1,0-14.3,0.3-21.4,1c-6.9,0.7-10,3.4-11,10.2c-2.1,14.6-2.8,29,3.4,43.1c4.3,9.8,9.2,20,10.5,30.4c1.6,12.8,1.7,26.3-5.2,38.4
	c-4.3,7.6-11.4,11-19,13.7c-4.1,1.5-11.9-6.4-12.7-12.7c-1.2-9.9-2.1-19.9-3.2-29.8c-0.6-5.5-1.1-11.1-1.2-16.9
	c1.4,5.1,3.2,10.2,4.2,15.4c1.6,9,2.5,18.1,4.2,27c0.7,3.8,2.1,7.8,4.2,11c2.7,4.2,7,4.4,9.8,0.2c4.9-7.1,10.6-14.2,13.2-22.2
	c3.5-10.5,1.7-21.7-1.1-32.5c-0.8-3.2-2.2-6.2-3.4-9.6c-2.2,0.8-3.9,1.4-5.7,2c6.1-6,2.5-12.1,0.7-18.2c-1.4-4.8-3-9.5-4.1-14.4
	c-0.8-3.8-2.8-5-6.5-5c-6.5-0.1-12.9-0.7-19.4-1.2c-0.1-0.6-0.1-1.1-0.2-1.7c5.3-0.8,10.7-2.3,16-2.2c5.9,0.2,6.9-2.6,8.3-7.5
	c4.2-14.6-2.5-27.4-5.2-40.9c-0.2-0.8-1-1.6-1.8-2.2c-5.2-4-7.5-9.7-7-15.8c0.8-10.6-3.9-18.6-10.7-26c-9.1-9.9-19.9-17.7-32.2-23.3
	c-1.3-0.6-2.6-1.3-3.7-2.3c6.2,1.2,13.1-1.1,18.5,4c0.3,0.3,3.9-1.5,3.9-2.3c-0.4-12,1.1-24.5-7.8-34.6c-2.9-3.3-5.7-6.8-9.2-11.1
	c11.1,1.9,20.8,3.6,30.7,5.1c4.1,0.6,8.3,1,12.4,1c3,0,4.3-1.4,3-5c-2.3-6.3-4-12.9-5.9-18.8c2.7,2,5.3,3.8,7.8,5.6
	c3.5,2.5,7.3,2.4,10.8,0.3c12.1-7,24.1-14.1,36.1-21.2c1-0.6,2-1.1,3.7-2.1c-1.9-0.3-3-0.6-4.2-0.8c0.2-0.1,0.4-0.3,0.6-0.2
	c4.3,0.3,8.7,0.4,12.9,0.9c11,1.4,19.9,5.9,24.8,16.7c3,6.6,6.8,13,10.7,19.2c1.7,2.6,4.8,4.2,7.2,6.3c2.2,1.9,5,3.6,6.2,6
	c1.7,3.3,2.1,7.3,3,11c1,4.1,0,7.6-3.7,10c-3.5,2.3-4.3,5.2-2.5,9c5.3,10.9,4.7,21.6,0.4,32.8c-1.7,4.5-1.1,10.2-0.2,15.1
	c1.1,5.8,0.6,10.8-2.2,15.8c0.8-7.1-1.7-12.6-8.1-17.6c-0.9,7.2-2.2,13.6-2.3,20c-0.1,4.7-1.7,5.8-6,5.5
	c-22.9-1.3-45.9-2.3-68.9-3.5c-1.5-0.1-3-0.4-5.4-0.7c3.4-1.8,6-3,8.3-4.5c2.9-1.9,5.6-4.3,4.3-8.1c-1.3-3.6-4.4-5.4-9.8-5.9
	c3.1,2.9,6.4,4.7,6.8,7c0.4,1.8-2.8,4.4-4.6,6.9c-0.3-4.2-0.6-7.2-0.8-10.2c-0.5,0-1,0.1-1.4,0.1c-1.5,6.3-1.5,6.3-8.9,11.6
	c-8.3-5.3-8.1-8.7,0.4-13.8c9.3-5.5,19.5-5.1,29.5-6c0.6,5.6,0.9,10.6,1.8,15.5c0.6,3.4,1,8.5,5.9,7.7c4.9-0.8,3.3-5.7,3-9.2
	c-0.5-4.7-1.2-9.4-1.8-14.6c14,0,27.3,0,40.6,0c2.9,0,4,1.7,3.9,4.5c-0.2,5.5-0.4,11-0.5,16.5c0,1.1,0.5,2.2,0.7,3.4
	c0.8-0.1,1.6-0.1,2.4-0.2c0-7.2,0.1-14.4,0-21.6c-0.1-3.2-2.2-4.9-5.2-5c-13.8-0.2-27.6-0.2-41.3-0.1c-1,0-2.5,1.6-2.7,2.7
	c-0.4,1.7,0,3.6,0.2,5.4c0.5,5.1,1.1,10.2,1.6,15.4c-0.6,0.1-1.2,0.2-1.9,0.2c-4.5-7.2-2.5-15.7-3.9-23.8c-6,0.6-11.8,1.4-17.6,1.8
	c-8.4,0.6-15.6,4-21.8,9.6c-2.8,2.6-3.5,6.5-0.5,8.8c4.8,3.6,10.2,8.2,15.7,8.7c24.4,2.1,48.9,2.9,73.3,4.2c1.3,0.1,3,0.3,3.8-0.4
	C253.7,153.2,257.4,149.6,261.2,146.1z M178.5,33.3c-2.1,5.5-3.5,10.5-5.9,14.9c-1,1.7-4.4,2.4-6.8,2.6c-0.8,0.1-2.2-2.8-2.6-4.5
	c-1.8-7.6,3.2-11.4,8.8-14.4c12.9-6.9,26.2-13,37.9-21.9c0.2-0.1,0.6,0,1,0c4.8,9.2,7.7,19.5,15.4,28.1c1.6-7.1-4.2-23.6-9.1-25.6
	c1.9,4.9,3.5,9.2,5.2,13.4c-0.3,0.1-0.7,0.3-1,0.4c-3.2-6.9-6.3-13.9-9.6-21c-1.8,1.2-3.4,2.4-5.1,3.4c-9.1,5.4-18.3,10.7-27.4,16.1
	c-4.6,2.7-9.2,5.4-13.6,8.4c-5.4,3.7-6.6,9.1-4.7,15c0.7,2.2,3.1,5.6,4.4,5.4c3.4-0.3,8,1.1,9.8-3.9c1.7-4.5,3.7-8.9,5.5-13.4
	c0.9,2.7,1.6,5.4,1.2,7.9c-1.3,7.3-1.5,7.2,6.3,6c0.4-0.1,0.9,0.2,1.4,0.3c0.1,0.4,0.2,0.9,0.3,1.3c-1.6,0.4-3.1,1-4.7,1.3
	c-7.2,1.1-14.5,1.8-21.6,3.3c-3.9,0.9-7.4,3.4-8.1,7.9c-1.2,7.1,8.4,17.9,15.6,17.5c26.6-1.6,53.2-3.1,79.8-5
	c2.9-0.2,6.5-2.1,8.4-4.4c4.5-5.5,1.6-18.9-4.8-23.4c-0.9,7,1.4,14.5-4,21.3c-0.4-7.2-0.9-13.3-1-19.5c-0.1-3.7-1.5-5.3-5.1-4.9
	c-15.7,1.5-31.4,2.9-47.1,4.4c-0.6,7.5-1.2,13.8-1.7,20.2c-0.6,0-1.3,0-1.9,0.1c-0.9-7-1.8-14.1-2.7-21c12.8-3,24.7-5.7,36.5-8.6
	c5.8-1.4,12.9-7.5,12.7-11.3c-0.4-7.6-2.8-14.6-10.1-18.3c-3.2-1.6-7-1.9-10.6-2.9c-0.1,0.7-0.3,1.4-0.4,2.1
	c1.6,0.4,3.4,0.6,4.9,1.3c3.3,1.7,7.1,3.2,9.5,5.8c6.3,6.8,5.3,13.9-2.5,18.5c-3.4,2.1-7.7,2.9-11.7,3.8c-11.6,2.8-23.2,5.3-35,8
	C185.2,35.6,184,33,178.5,33.3z M199.6,82.1c-11.9,1.2-23.3,3.3-33.5,9.3c-3.1,1.8-5.9,4.4-8,7.3c-4.4,5.9-2.8,12.1,0,18.4
	c2.6,5.8,7.2,6.1,12.5,6c24.8-0.4,49.6-0.7,74.4-1c1.3,0,2.8,0,3.8-0.6c8-4.9,11.8-20,7.1-27.7c-2-3.4-4.4-6.3-9.2-4
	c-0.2,1.4-0.5,3-0.7,4.6c-0.1,0-0.3,0-0.4,0c-0.2-2.6-0.4-5.2-0.6-7.6c-3.2-0.8-5.9-1.7-8.7-2.2c-12.2-2.4-24.5-6-34.9,5.8
	C200.7,87.3,200.2,85.1,199.6,82.1z"/>
<path style="fill:#FFFFFF;" d="M148.4,3c-12.3,1.6-25.2,2.8-37.9,5.2c-6,1.1-11.6,4.5-17.4,6.9c-1.2,0.5-2.4,1.2-3.7,1.3
	c-19,2.6-37.9,5.1-56.9,7.6c-1,0.1-1.9,0-3,0c-0.1-4.8,2.4-6.3,6.6-6.8c21.4-2.8,42.8-5.8,64.2-8.8c3.4-0.5,6.9-1.2,10.2-2.4
	C123.2,1.4,136.2,3.2,148.4,3z"/>
<path style="fill:#FFFFFF;" d="M104.2,196.4c-6.4-7.3-14.8-13.3-17.2-23.4c-0.3-1.1-1-2.1-1.6-3.1c-8.7-12.2-17.5-24.2-26.1-36.4
	c-3.9-5.5-8.9-9.3-14.9-12.1c-6-2.8-11.8-6.2-17.3-10.1c10.7,4.2,21.4,8.2,32.1,12.6c1.4,0.6,2.4,2.2,3.3,3.6
	c10.7,16.5,21.5,32.9,31.9,49.5C98.2,183.1,101,189.9,104.2,196.4z"/>
<path style="fill:#FFFFFF;" d="M28.3,28.6C21.2,52.9,14.1,77.1,7,101.4c-2.3-0.4-3.7-1.5-2.6-4.7c7.7-22.8,15.3-45.6,23-68.4
	C27.6,28.4,28,28.5,28.3,28.6z"/>
<path style="fill:#FFFFFF;" d="M157.4,2.3c12.2,0,24.4,0,36.5,0c0,0.2,0,0.4,0,0.5c-12.2,0-24.4,0-36.5,0
	C157.4,2.6,157.4,2.5,157.4,2.3z"/>
<path d="M178.5,33.3c5.5-0.4,6.7,2.2,5.6,15.1c11.8-2.7,23.4-5.3,35-8c4-1,8.3-1.8,11.7-3.8c7.8-4.7,8.8-11.8,2.5-18.5
	c-2.4-2.6-6.2-4.1-9.5-5.8c-1.5-0.8-3.3-0.9-4.9-1.3c0.1-0.7,0.3-1.4,0.4-2.1c3.6,0.9,7.4,1.2,10.6,2.9c7.3,3.7,9.7,10.7,10.1,18.3
	c0.2,3.8-6.9,9.9-12.7,11.3c-11.8,2.8-23.6,5.6-36.5,8.6c0.9,6.9,1.8,14,2.7,21c0.6,0,1.3,0,1.9-0.1c0.5-6.3,1.1-12.7,1.7-20.2
	c15.7-1.5,31.4-3,47.1-4.4c3.6-0.3,5,1.3,5.1,4.9c0.1,6.1,0.6,12.3,1,19.5c5.4-6.9,3.1-14.4,4-21.3c6.3,4.5,9.3,17.9,4.8,23.4
	c-1.9,2.3-5.5,4.1-8.4,4.4c-26.6,1.9-53.2,3.5-79.8,5c-7.2,0.4-16.7-10.4-15.6-17.5c0.8-4.5,4.2-7.1,8.1-7.9
	c7.1-1.5,14.4-2.2,21.6-3.3c1.6-0.2,3.1-0.8,4.7-1.3c-0.1-0.4-0.2-0.9-0.3-1.3c-0.5-0.1-0.9-0.4-1.4-0.3c-7.8,1.2-7.6,1.2-6.3-6
	c0.4-2.5-0.3-5.2-1.2-7.9c-1.9,4.5-3.8,8.9-5.5,13.4c-1.8,5-6.4,3.6-9.8,3.9c-1.3,0.1-3.7-3.3-4.4-5.4c-1.9-5.9-0.6-11.3,4.7-15
	c4.4-3,9-5.7,13.6-8.4c9.1-5.4,18.3-10.7,27.4-16.1c1.7-1,3.3-2.2,5.1-3.4c3.3,7.2,6.4,14.1,9.6,21c0.3-0.1,0.7-0.3,1-0.4
	c-1.6-4.3-3.3-8.5-5.2-13.4c4.9,2,10.7,18.4,9.1,25.6c-7.7-8.6-10.6-18.9-15.4-28.1c-0.4,0-0.8-0.2-1,0c-11.7,9-25,15-37.9,21.9
	c-5.6,3-10.6,6.8-8.8,14.4c0.4,1.7,1.8,4.6,2.6,4.5c2.4-0.2,5.8-0.9,6.8-2.6C175,43.9,176.4,38.9,178.5,33.3z M247,74.5
	c0-8.8,0-17,0-24.9c-1.6-0.5-1.9-0.7-2.2-0.7c-14.4,1.4-28.8,2.8-43.1,4.4c-0.9,0.1-2.1,2.2-2.3,3.5c-0.6,4.4-0.5,9-1.2,13.4
	c-0.3,1.7-1.8,3.1-2.8,4.6c-1.2-1.2-3-2.2-3.5-3.7c-1.5-4.9-2.5-9.9-4-16.2c-8,1.4-16.2,2.4-24.1,4.4c-2.3,0.6-5.1,3.7-5.5,6.1
	c-1.1,5.7,7.2,14,12.9,13.7c12.1-0.7,24.3-1.4,36.4-2.2C221,76.1,234.4,75.3,247,74.5z M252.5,73.7c5.6-1.2,7.4-5.4,4.9-12.8
	C255.8,65.2,254.1,69.5,252.5,73.7z"/>
<path d="M261.2,146.1c-3.8,3.5-7.5,7.2-11.4,10.5c-0.8,0.7-2.5,0.4-3.8,0.4c-24.4-1.2-48.9-2.1-73.3-4.2c-5.5-0.5-10.9-5.1-15.7-8.7
	c-3.1-2.3-2.4-6.2,0.5-8.8c6.1-5.6,13.3-9,21.8-9.6c5.8-0.4,11.6-1.2,17.6-1.8c1.3,8.1-0.6,16.6,3.9,23.8c0.6-0.1,1.2-0.2,1.9-0.2
	c-0.6-5.1-1.1-10.2-1.6-15.4c-0.2-1.8-0.6-3.7-0.2-5.4c0.2-1.1,1.8-2.7,2.7-2.7c13.8-0.1,27.6-0.1,41.3,0.1c3,0,5.1,1.8,5.2,5
	c0.1,7.2,0,14.4,0,21.6c-0.8,0.1-1.6,0.1-2.4,0.2c-0.3-1.1-0.7-2.2-0.7-3.4c0.1-5.5,0.3-11,0.5-16.5c0.1-2.8-1-4.5-3.9-4.5
	c-13.3,0-26.5,0-40.6,0c0.6,5.1,1.3,9.8,1.8,14.6c0.3,3.5,2,8.4-3,9.2c-4.9,0.8-5.2-4.3-5.9-7.7c-0.9-4.9-1.2-9.9-1.8-15.5
	c-10,0.9-20.2,0.5-29.5,6c-8.4,5-8.6,8.4-0.4,13.8c7.3-5.2,7.3-5.2,8.9-11.6c0.5,0,1-0.1,1.4-0.1c0.2,3,0.5,6,0.8,10.2
	c1.8-2.6,4.9-5.1,4.6-6.9c-0.5-2.3-3.8-4-6.8-7c5.4,0.4,8.5,2.3,9.8,5.9c1.4,3.8-1.4,6.3-4.3,8.1c-2.3,1.5-4.9,2.7-8.3,4.5
	c2.4,0.3,3.9,0.6,5.4,0.7c23,1.1,45.9,2.2,68.9,3.5c4.3,0.2,5.9-0.9,6-5.5c0.2-6.4,1.4-12.8,2.3-20c6.4,5,9,10.5,8.1,17.6
	C261.1,146.2,261.2,146.1,261.2,146.1z M254.8,134.6c-0.6,5.5-1.1,10.2-1.7,15.5C259.5,145.5,259.9,141.5,254.8,134.6z"/>
<path d="M199.6,82.1c0.7,3,1.1,5.2,1.8,8.1c10.3-11.8,22.7-8.1,34.9-5.8c2.8,0.5,5.4,1.4,8.7,2.2c0.2,2.3,0.4,4.9,0.6,7.6
	c0.1,0,0.3,0,0.4,0c0.2-1.6,0.5-3.1,0.7-4.6c4.8-2.3,7.1,0.6,9.2,4c4.7,7.8,0.9,22.9-7.1,27.7c-1,0.6-2.5,0.6-3.8,0.6
	c-24.8,0.4-49.6,0.6-74.4,1c-5.3,0.1-9.9-0.2-12.5-6c-2.8-6.3-4.4-12.4,0-18.4c2.1-2.9,5-5.5,8-7.3
	C176.3,85.4,187.6,83.3,199.6,82.1z M198.1,84.9c-3.5,0.5-6.2,0.5-8.6,1.3c-8.3,2.9-17,5.1-24.5,9.3c-8.7,4.9-9.2,16.9-2.1,23.7
	c0.7,0.7,2,1,3,1c26.3-0.3,52.6-0.6,79-1c1.3,0,3.2-0.6,3.8-1.6c2.4-3.8,5-7.6,6.3-11.7c2-6.2-0.4-11.3-5.3-14.4
	c-1,4.7-2,9.5-3,14.3c-0.6,0-1.3-0.1-1.9-0.1c-0.5-2.9-1.2-5.7-1.6-8.6c-1.4-9.6,1-8.1-9.3-10.3c-10.4-2.2-21.4-5.4-30,5
	c-0.4,0.5-1.4,0.5-2.3,0.8c1.2,7.2,2.3,14,3.5,21.4c-1.8,0.1-3.3,0.2-5,0.3C199.4,104.2,198.8,94.8,198.1,84.9z"/>
<path style="fill:#FFFFFF;" d="M247,74.5c-12.6,0.8-26,1.7-39.5,2.5c-12.1,0.8-24.3,1.5-36.4,2.2c-5.7,0.3-14-8-12.9-13.7
	c0.5-2.4,3.2-5.5,5.5-6.1c8-2,16.1-3,24.1-4.4c1.5,6.3,2.5,11.4,4,16.2c0.4,1.4,2.3,2.5,3.5,3.7c1-1.5,2.5-3,2.8-4.6
	c0.7-4.4,0.6-9,1.2-13.4c0.2-1.3,1.4-3.4,2.3-3.5c14.4-1.6,28.8-3,43.1-4.4c0.3,0,0.6,0.2,2.2,0.7C247,57.4,247,65.7,247,74.5z
	 M173.9,59.5c-0.4,0.7-0.9,1.2-0.8,1.5c2.5,6.3,1.3,11.3-5.3,14.3c-0.3,0.1-0.5,1.5-0.3,1.7c0.5,0.4,1.4,0.8,2,0.7
	c2.1-0.6,4.3-1.1,6-2.3c2.7-1.9,7.1-4.5,7-6.6c-0.1-2.8-3.8-5.5-6.1-8.1C176,60,174.8,59.9,173.9,59.5z"/>
<path style="fill:#FFFFFF;" d="M252.5,73.7c1.6-4.3,3.3-8.6,4.9-12.8C259.9,68.3,258.1,72.5,252.5,73.7z"/>
<path style="fill:#FFFFFF;" d="M254.8,134.6c5.1,6.8,4.6,10.9-1.7,15.5C253.7,144.8,254.2,140.2,254.8,134.6z"/>
<path style="fill:#FFFFFF;" d="M198.1,84.9c0.7,9.9,1.4,19.3,2.1,29.2c1.7-0.1,3.2-0.2,5-0.3c-1.2-7.4-2.3-14.2-3.5-21.4
	c0.9-0.3,1.9-0.3,2.3-0.8c8.5-10.4,19.5-7.2,30-5c10.3,2.2,7.9,0.7,9.3,10.3c0.4,2.9,1.1,5.8,1.6,8.6c0.6,0,1.3,0.1,1.9,0.1
	c1-4.8,2-9.6,3-14.3c4.9,3.1,7.2,8.2,5.3,14.4c-1.3,4.2-3.9,8-6.3,11.7c-0.6,1-2.5,1.6-3.8,1.6c-26.3,0.4-52.6,0.7-79,1
	c-1,0-2.3-0.4-3-1c-7.1-6.8-6.6-18.8,2.1-23.7c7.5-4.3,16.2-6.5,24.5-9.3C191.8,85.4,194.6,85.4,198.1,84.9z M167.5,112.8
	c0.1,0.6,0.2,1.3,0.3,1.9c1.8-0.2,3.8-0.2,5.5-0.8c4.2-1.4,9.8-1.9,10.6-7c0.8-5.3-4.8-6.9-8.2-9.5c-0.7-0.5-2-0.4-3-0.5
	c0.3,1,0.4,2.1,0.9,2.9c3,4.7,2.4,7.8-2.3,10.8C170.1,111.4,168.8,112.1,167.5,112.8z"/>
<path d="M173.9,59.5c0.9,0.4,2.1,0.5,2.6,1.2c2.3,2.6,6,5.3,6.1,8.1c0.1,2.1-4.3,4.7-7,6.6c-1.7,1.2-4,1.7-6,2.3
	c-0.6,0.2-1.5-0.2-2-0.7c-0.2-0.2,0-1.5,0.3-1.7c6.6-3,7.7-8,5.3-14.3C173,60.7,173.5,60.2,173.9,59.5z"/>
<path d="M167.5,112.8c1.2-0.7,2.5-1.4,3.7-2.2c4.7-3,5.3-6.2,2.3-10.8c-0.5-0.8-0.6-1.9-0.9-2.9c1,0.1,2.3,0,3,0.5
	c3.5,2.6,9.1,4.2,8.2,9.5c-0.8,5.1-6.4,5.6-10.6,7c-1.7,0.6-3.7,0.5-5.5,0.8C167.7,114.1,167.6,113.4,167.5,112.8z"/>
</svg>
