<?xml version="1.0" encoding="utf-8"?>
<!-- Generator: Adobe Illustrator 19.1.0, SVG Export Plug-In . SVG Version: 6.00 Build 0)  -->
<svg version="1.1" id="Relax__x28_Breathe_x29__xA0_Image_1_"
	 xmlns="http://www.w3.org/2000/svg" xmlns:xlink="http://www.w3.org/1999/xlink" x="0px" y="0px" viewBox="0 0 422.8 515.7"
	 style="enable-background:new 0 0 422.8 515.7;" xml:space="preserve">
<path d="M422.8,151.6c-13,8.8-25.7,17.3-38.4,25.8c-3,2-6.2,3.6-9.3,5.5c-5.6,3.3-9.5,2.7-13.1-2.6c-3-4.4-7.5-5.2-11.3-3
	c-5.3,3-9.7,1.1-14.1-1.1c-4.8-2.4-8.8-2.2-12.8,1.3c-6.6,5.8-14.1,9.9-22.7,12.1c-3.9,1-5.7,3-5,7.5c1.4,9.3-0.3,18.3-4.4,26.9
	c-3.7,7.9-6.2,16.4-9.8,24.4c-2.7,6-6.3,11.6-9.5,17.4c-4,7.5-7.8,15-11.8,22.5c-1.6,2.9-3.6,5.5-5.3,8.3
	c-9,14.1-14.9,29.2-13.7,46.3c1,14.6,1.9,29.2,2.7,43.8c0.1,2.8-0.1,5.8-1.1,8.3c-3.3,8.6-7.1,17-10.7,25.5c-1,2.3-1.8,4.6-3,6.8
	c-7.3,13.6-20.3,15.6-33,7c-9-6.2-12.4-14.8-14.8-24.2c-2.9-11.6-6.6-23.1-4.1-35.4c0.4-2.1,0.6-4.3,1.4-6.2
	c5.4-12.6,8.8-25.8,10-39.3c0.6-6.8-0.7-13.8-1.6-20.7c-0.2-1.3-2.6-3.2-4.1-3.2c-9.2-0.4-17.1,1.9-23.1,9.8c-3,3.9-7.7,7-12.2,9.1
	c-9.2,4.1-15.2,11.3-20.1,19.3c-5.3,8.6-7,18.7-9.8,28.3c-1.9,6.5-6,12.5-9.8,18.3c-2,3.1-2.8,5.8-1.6,9.2c1.7,5,3.6,10,4.8,15.2
	c1.2,5.2,2.6,10.8,2,15.9c-0.8,6.2,3,10.2,5.1,15c5.9,13.4,11.8,26.8,12,41.8c0.1,5.3-2.5,9.2-6.9,12.3c-2.1,1.5-3.6,4-5.2,6.2
	c-1,1.3-1.5,3-2.5,4.3c-5.4,7.3-11.6,7.4-17.6,0.5c-1.4-1.6-3.3-2.8-4.8-4.3c-1.9-1.9-4.2-3.7-5.5-6.1c-2.2-4-4.7-4.3-8.6-2.7
	c-4.8,2-9.8,3.6-14.8,5c-1,0.3-3.1-1-3.8-2.1c-6.7-10.9-13.4-21.8-19.8-32.8c-2.5-4.3-4.2-9-6.7-13.3c-1.7-3.1-4.2-5.8-6-8.8
	c-4.6-7.4-10.5-14.4-13.2-22.5c-4.4-13.2-6.6-27.1-9.6-40.7c-2-9.2-4.9-18.4-5.4-27.7c-1.3-22.6,6.1-43.3,16.1-63.1
	c14.6-28.8,34.8-53.5,56.4-77.3c22.4-24.7,47.4-46.8,72.9-68.2c34.6-29.1,71-55.7,108.6-80.7c8.9-5.9,17.7-11.8,26.4-18
	c2.9-2.1,4.9-5.2,7.7-7.5c2-1.7,4.3-3,6.6-4.3c7.4-4.1,14.6-8.1,20.9-14.2c6.9-6.7,14.2-12.8,20.8-19.8c2.1-2.2,8.5-1.7,12.3-0.4
	c3.1,1.1,6,4.7,7.5,7.9c21.7,45.9,43,91.9,64.5,137.9C421.4,148.3,422,149.7,422.8,151.6z M69.8,359.5c1.2,0.4,2.6,0.5,3.7,1.2
	c4.8,2.9,5.9,2.8,8-2.4c0.8-2,1.2-4.6,0.7-6.6c-0.7-3-0.1-4.8,2.6-5.9c1.4,1.1,2.8,2.2,4,3.1c-1.5-4.4-2.9-8.4-4.8-13.8
	c-3.3,5-6,8.9-8.5,12.9c-1.8,2.9-2.9,5.8,1.8,7.9c-1.8,0.2-2.9-0.1-4.1-0.2c-1.3-0.1-2.5,0-3.8,0.1c0.2,1.3,0.4,2.7,0.6,4
	c-1.9-0.4-3.8-0.9-6.4-1.5c1.3,5,3,6.8,7.2,4.6C70.4,361.6,70.1,360.6,69.8,359.5z M234.7,387c0-6.8,1-12.1-0.2-16.9
	c-3.3-13-2.7-26.1-2.4-39.2c0.1-4.7,0.6-9.7,2.1-14.1c4.3-12.3,8.9-24.5,14.1-36.5c5.1-11.9,10.9-23.4,16.5-35.1
	c1.5-3.1,3.6-6,4.7-9.3c4.5-13.9,5.3-28.5,7.4-42.8c0.7-4.7,2.5-8.3,7.9-9.5c3-0.7,5.6-2.7,8.4-4.1c4.4-2.3,8.8-4.5,13.2-6.8
	c1.9-1,4.1-1.6,5.7-2.9c5.6-4.8,11.1-9.9,17.1-15.4c-9.6-16-18.8-32.4-29-48.2c-7.9-12.3-17-23.8-25.6-35.6
	c-2.4-3.3-4.8-3.5-8.3-0.9c-30,22.7-60.8,44.4-90.1,68c-44.2,35.7-84.3,75.6-115.4,123.7c-13.2,20.4-24.3,41.7-31.7,64.8
	c-4.6,14.3-8.7,28.9-8,44c1,20.8,5.3,41.2,11.7,61.1c3.5,10.8,8.6,20.8,17.1,28.2c10.8,9.4,16.4,21.5,20.7,35.2
	c1.1-1.2,2.7-2.2,3-3.6c1.2-4.5,1.8-9.3,3.1-13.8c3.3-10.8-3-19.2-6.9-28.1c-2.1-4.6-5-8.8-7.5-13.2c-2.7-4.5-5.4-9.1-8.2-13.6
	c-1.1-1.9-2.7-3.6-3.5-5.6c-1.1-2.8-0.1-4.2,3.1-3.2c1.3,0.4,2.7,0.2,4.1,0.4c0.1-1.6,0.5-3.2,0.2-4.7c-1.4-7-2.8-14.1-4.5-21
	c-0.9-3.6-2.2-7.3-3.9-10.6c-2.4-4.6-5.6-8.7-8.2-13.2c-0.8-1.5-0.7-3.5-0.9-5.3c1.7,0,3.5-0.2,5.1,0.2c2.2,0.6,4.2,1.6,7.6,3
	c-2.3-6.2,1.5-6.7,4.8-8.6c3.7-2.2,7.1-5.3,9.9-8.7c4-4.8,7.5-10,11-15.2c1.4-2.1,3.1-4.4,3.5-6.8c0.6-3.4,1.9-5.5,6.1-5.9
	c-1,6.1,3.1,5.8,8.9,5.2c-8.5,5.7-6.5,11.2-2.3,16.6c-0.4,0.6-0.8,0.9-1,1.3c-1.1,1.6-3.5,3.9-3.1,4.8c1.2,2.5,3.2,5,5.5,6.4
	c1.3,0.8,5.7-0.5,5.7-0.9c0.1-4.1-0.2-8.2-0.9-12.2c-0.4-1.8-2.1-3.4-3.5-5.6c2.8-1.3,4.8-2.4,6.9-3.1c1.4-0.5,3.8,0.1,4.2-0.6
	c0.6-1.2,0-3-0.1-3.9c4.7-1.2,9.3-2.4,13.8-3.6c0-0.9,0-1.8,0-2.6c-8.3-1.9-16.7-3.9-24.9-5.8c0-0.6-0.1-1.1,0-1.3
	c7.5-8.6,14.6-17.5,22.6-25.5c2.4-2.4,6-6.5,10.8-3.7c3,1.7,5.8,3.8,8.8,5.5c4.5,2.5,9,5.5,13.9,7.1c4.6,1.5,9.8,1.2,14.6,2.1
	c2.8,0.5,5.5,1.7,8.3,2.8c1.6,0.6,3.1,1.5,5.9,2.9c0.6-6,1.1-11,1.7-16.7c1.1,0.8,2.9,1.5,3.4,2.7c2.5,6.6,5.3,13.2,6.9,20
	c3,12.4,0.3,24.7-2.1,37c-0.5,2.3-0.4,4.8-1.2,7.1c-2,5.8-4.4,11.5-7,18.4C200.9,376.7,217,381.6,234.7,387z M189,380.8
	c0,8-0.3,16,0.1,23.8c0.6,12.2,6,21.7,16.6,28.1c3.7,2.2,8.8,2.1,10.2-0.9c2.1-4.6,3.6-9.4,5.6-14.1c1.2-3,2.5-6.1,4.1-8.9
	c2.8-5.1,5.8-10.2,8.7-15.3C219.2,389.3,204.8,385.2,189,380.8z M276.2,60.7c20.6,22.6,39.5,45.8,54.8,71.9
	c-10-30.4-19.9-60.9-30.1-91.8C292.2,47.7,284.4,54,276.2,60.7z M69.9,426.3c-0.6,0.4-1.2,0.7-1.9,1.1c0.1,1.6-0.2,3.3,0.3,4.7
	c2.7,6.8,5.5,13.7,8.6,20.3c4.1,8.9,9.4,17.3,8.3,28c-0.3,3.3,0.9,8.3,3.3,10c5.4,3.9,7.8,9.6,11.5,14.6c1.1,1.5,3.8,2.6,5.8,2.6
	c1.2,0,3-2.3,3.4-3.8c0.7-2.5,0.5-5.2,0.5-7.8c0-2.1-0.1-4.3-0.5-6.4c-0.5-3.3-1.2-6.6-2.1-9.8c-0.4-1.5-2-2.9-2.1-4.4
	c-1.5-11.8-9.4-19.3-17.7-26.5c-4.8-4.1-9.9-7.8-11.3-14.9C75.6,431.1,72,428.8,69.9,426.3z M92.5,420.5c-0.5,0.3-1,0.6-1.6,1
	c-3,10.8,4.1,19.1,7.2,28.5c0.2,0.6,0.8,1.1,1.4,1.4c9.2,4,10.9,13.3,14.5,21.1c1.8,3.8,1.7,8.4,3,12.5c0.9,3-0.1,7.8,4.9,7.6
	c0.7,0,2.1-6.1,1.4-9c-2.1-9.2-5.1-18.2-7.8-27.2c-0.5-1.5-1.2-3.7-2.4-4.2c-3.9-1.7-4.3-5.1-5.4-8.4c-0.7-2.2-1.8-4.3-3-6.2
	c-2.1-3.2-4.6-6.3-6.8-9.4C96.1,425.6,94.3,423,92.5,420.5z M97.8,412.7c5.8-4.6,3.4-7.8-1.9-11.1c1.9-0.9,3.2-1.6,5.7-2.8
	c-7.4-5.4-13.4-9.7-19.6-14.2c3.4-0.8,6.2-1.4,9.1-2.1c-2.3-3.3-4.5-5-6.6-6.8c-0.3-0.2-0.5-0.7-0.7-0.6c-1.5,0.3-3.6,0.1-4.4,1
	c-1.7,2-3,4.4-3.9,6.9c-1.4,3.9,1.5,8.7,5.6,10c2.6,0.8,5.2,1.9,7.8,2.8c-1.1,0.6-1.8,0.2-2.6,0.3c-1.8,0.1-3.6,0.5-5.4,0.8
	c0.9,1.9,1.5,4.1,2.9,5.5c1.4,1.5,3.5,2.4,5.4,3.5c-2.8,4.5-3.2,6.6,0.1,10.1c3.9,4,8.6,7.3,13.1,10.9
	C107.1,419.8,103.4,415.9,97.8,412.7z M60.5,369.8c3.4,1.6,7.1,3.5,10.8,5c0.9,0.4,2.4,0.1,3.2-0.5c0.5-0.3,0.6-2.3,0.2-2.6
	c-3.7-2.7-7.3-5.7-11.4-7.5c-1.3-0.6-4.1,1.9-6.1,3.2c-2.9,1.9-2.8,4.6-1.8,7.5c2.5,7.5,6.3,14.6,5.8,22.9c-0.1,1.7,0.8,3.6,1.7,5.2
	c0.4,0.8,1.8,1,2.7,1.5c0.4-0.8,1.1-1.7,1.1-2.5c-0.4-5.3-0.5-10.6-1.6-15.8C64,380.5,62,375,60.5,369.8z M76.2,429.8
	c1.7-2.9,4.4-5.4,4-7.3c-0.5-3-3.1-5.7-4.6-8.1c1.5-1.2,3.2-2.5,5.1-4c-2.3-1.6-3.7-2.8-5.3-3.6c-1.8-0.8-3.7-1.2-5.6-1.7
	c-0.2,1.8-0.4,3.6-0.6,5c-1.3,0-2.8,0-4.3,0c0.2,1.7,0.1,3.4,0.6,5c0.3,1,1.5,1.7,2.4,2.4c3,2,6.6,3.4,5.4,8.3
	C73.2,426.6,74.9,428,76.2,429.8z M95.1,364.7c1.9-1,5.5-2.4,5.3-3c-0.7-2.7-2.2-5.2-3.6-7.7c-0.3-0.6-1.4-0.9-2.1-1.2
	c-3.6-1.1-5.7,0.8-5.1,4.5c0.2,1.3,0.5,3.1-0.1,4c-3.1,3.9-0.7,11.1,4.2,11.8c1.3,0.2,3.2-0.8,4.2-1.8c0.6-0.5,0.2-2.5-0.3-3.5
	C97,366.5,95.8,365.4,95.1,364.7z M110.6,376.7c-2.2-2.3-4-5.6-6.3-6.1c-3.5-0.7-4.1,3-4.4,5.9c-0.3,2.7-0.6,5.5-0.4,8.2
	c0.1,1.2,1.1,2.6,2.2,3.5c0.5,0.4,2.4,0,2.8-0.7C106.5,384.4,108.2,381,110.6,376.7z M132.7,313.1c3.2,3.8,6.1,1.9,8.5,0.6
	c0.9-0.5,1.3-3.1,0.9-4.5c-0.7-2.9,0-4.5,2.7-5.9c3.1-1.5,5.3-3.8,2.1-7.7c-3,2-6.1,3.9-8.9,6.2c-0.9,0.7-1.7,2.5-1.5,3.5
	C137.5,308.8,136.9,311.5,132.7,313.1z M133.4,327.9c-0.3-1-0.6-2.1-0.9-3.1c-4.4,1-8.9,1.9-13.3,3.2c-0.4,0.1-0.1,2.9-0.1,5.4
	C124.5,331.3,128.9,329.6,133.4,327.9z M109.7,339.9c0.5-0.2,1.1-0.4,1.6-0.5c1.9,0.9,3.7,2,5.7,2.8c0.9,0.3,2.5,0.4,3-0.2
	c0.6-0.6,0.6-2.2,0.2-3.1c-0.6-1.4-1.7-2.6-2.7-4c-1.9-0.3-4.4-1.4-6.5-0.8C110.2,334.3,110.2,337.8,109.7,339.9z M129,320.8
	c0.4,0.3,1.3,1.2,2.4,1.9c3.3,2,9.8,0.7,11.1-2.4c0.4-1,0.3-2.6-0.2-3.6c-0.2-0.5-2-0.6-2.9-0.2C135.8,317.8,132.4,319.4,129,320.8z
	 M107.7,359.8c-1.7,2.5-3.6,4.4-3.3,5.2c0.8,1.9,2.7,3.3,4.2,4.9c1.5-1.4,4.3-3.1,4.1-4.3C112.5,363.8,110.1,362.4,107.7,359.8z
	 M117.5,356.7c-3.1-2.4-5-4.1-7.2-5.2c-0.4-0.2-2.9,2.1-3,3.4c-0.2,3,1.6,5.1,4.8,4.8C113.6,359.6,114.9,358.2,117.5,356.7z
	 M111.2,341.7c-1.8,1.6-3,2.6-4.3,3.7c2.1,1.5,4.1,3.4,6.4,4.1c1.1,0.3,3-1.7,4.5-2.6C115.8,345.4,113.8,343.8,111.2,341.7z
	 M71.5,400.2c0.8-0.4,1.6-0.9,2.4-1.3c-1.2-2.1-2.4-4.2-3.6-6.3c-0.8,0.4-2.2,1.2-2.2,1.3C69.2,396,70.3,398.1,71.5,400.2z"/>
<path style="fill:#FFFFFF;" d="M234.7,387c-17.8-5.4-33.9-10.3-50.3-15.3c2.7-6.9,5-12.6,7-18.4c0.8-2.2,0.8-4.7,1.2-7.1
	c2.4-12.2,5.1-24.6,2.1-37c-1.6-6.8-4.4-13.4-6.9-20c-0.5-1.2-2.3-1.8-3.4-2.7c-0.6,5.6-1.1,10.7-1.7,16.7c-2.8-1.4-4.3-2.3-5.9-2.9
	c-2.7-1-5.4-2.2-8.3-2.8c-4.8-0.9-10-0.6-14.6-2.1c-4.9-1.6-9.3-4.6-13.9-7.1c-3-1.7-5.8-3.8-8.8-5.5c-4.9-2.8-8.4,1.3-10.8,3.7
	c-8,8-15.2,16.9-22.6,25.5c-0.2,0.2,0,0.6,0,1.3c8.2,1.9,16.6,3.8,24.9,5.8c0,0.9,0,1.8,0,2.6c-4.6,1.2-9.1,2.4-13.8,3.6
	c0.1,0.9,0.7,2.7,0.1,3.9c-0.4,0.7-2.8,0.2-4.2,0.6c-2.1,0.7-4.1,1.8-6.9,3.1c1.4,2.2,3.1,3.8,3.5,5.6c0.8,4,1,8.1,0.9,12.2
	c0,0.4-4.4,1.7-5.7,0.9c-2.3-1.4-4.4-3.9-5.5-6.4c-0.4-0.9,2-3.1,3.1-4.8c0.3-0.4,0.6-0.8,1-1.3c-4.3-5.5-6.3-11,2.3-16.6
	c-5.8,0.6-9.9,0.8-8.9-5.2c-4.2,0.4-5.5,2.5-6.1,5.9c-0.4,2.4-2.1,4.7-3.5,6.8c-3.5,5.2-7,10.4-11,15.2c-2.8,3.3-6.2,6.5-9.9,8.7
	c-3.2,1.9-7.1,2.4-4.8,8.6c-3.4-1.4-5.5-2.4-7.6-3c-1.6-0.4-3.4-0.2-5.1-0.2c0.3,1.8,0.1,3.9,0.9,5.3c2.5,4.5,5.8,8.7,8.2,13.2
	c1.8,3.3,3,6.9,3.9,10.6c1.7,6.9,3.1,14,4.5,21c0.3,1.5-0.1,3.1-0.2,4.7c-1.4-0.1-2.8,0-4.1-0.4c-3.3-0.9-4.2,0.5-3.1,3.2
	c0.8,2,2.3,3.7,3.5,5.6c2.8,4.5,5.5,9,8.2,13.6c2.6,4.4,5.5,8.6,7.5,13.2c4,8.9,10.2,17.3,6.9,28.1c-1.4,4.5-1.9,9.3-3.1,13.8
	c-0.4,1.3-1.9,2.3-3,3.6c-4.3-13.7-9.9-25.8-20.7-35.2c-8.5-7.4-13.6-17.5-17.1-28.2c-6.4-19.9-10.7-40.3-11.7-61.1
	c-0.7-15.1,3.4-29.7,8-44c7.4-23.1,18.5-44.4,31.7-64.8c31.2-48.1,71.2-88,115.4-123.7c29.3-23.6,60.1-45.3,90.1-68
	c3.4-2.6,5.9-2.4,8.3,0.9c8.6,11.8,17.7,23.4,25.6,35.6c10.2,15.8,19.4,32.2,29,48.2c-6.1,5.5-11.5,10.5-17.1,15.4
	c-1.6,1.3-3.8,1.9-5.7,2.9c-4.4,2.2-8.8,4.5-13.2,6.8c-2.8,1.4-5.4,3.5-8.4,4.1c-5.4,1.2-7.2,4.8-7.9,9.5
	c-2.2,14.3-2.9,28.9-7.4,42.8c-1.1,3.3-3.2,6.1-4.7,9.3c-5.6,11.7-11.4,23.2-16.5,35.1c-5.1,12-9.7,24.2-14.1,36.5
	c-1.5,4.4-2,9.4-2.1,14.1c-0.3,13.1-0.9,26.2,2.4,39.2C235.7,374.9,234.7,380.2,234.7,387z"/>
<path style="fill:#FFFFFF;" d="M189,380.8c15.7,4.4,30.2,8.5,45.2,12.7c-2.9,5.1-5.9,10.1-8.7,15.3c-1.5,2.9-2.8,5.9-4.1,8.9
	c-1.9,4.7-3.4,9.5-5.6,14.1c-1.4,3-6.5,3.2-10.2,0.9c-10.6-6.4-16-15.9-16.6-28.1C188.7,396.7,189,388.8,189,380.8z"/>
<path style="fill:#FFFFFF;" d="M276.2,60.7c8.2-6.6,16.1-13,24.7-19.9c10.1,31,20.1,61.4,30.1,91.8
	C315.6,106.5,296.7,83.2,276.2,60.7z"/>
<path style="fill:#FFFFFF;" d="M69.9,426.3c2.2,2.5,5.7,4.8,6.2,7.6c1.3,7.1,6.5,10.8,11.3,14.9c8.3,7.2,16.2,14.7,17.7,26.5
	c0.2,1.5,1.7,2.8,2.1,4.4c0.9,3.2,1.5,6.5,2.1,9.8c0.3,2.1,0.5,4.3,0.5,6.4c0,2.6,0.1,5.4-0.5,7.8c-0.4,1.6-2.2,3.8-3.4,3.8
	c-2,0-4.6-1-5.8-2.6c-3.7-5-6-10.7-11.5-14.6c-2.4-1.7-3.6-6.7-3.3-10c1.1-10.6-4.2-19-8.3-28c-3.1-6.7-5.9-13.5-8.6-20.3
	c-0.6-1.4-0.2-3.1-0.3-4.7C68.6,427,69.3,426.6,69.9,426.3z"/>
<path style="fill:#FFFFFF;" d="M92.5,420.5c1.8,2.5,3.6,5.1,5.4,7.6c2.3,3.1,4.7,6.2,6.8,9.4c1.3,1.9,2.3,4,3,6.2
	c1.1,3.3,1.5,6.7,5.4,8.4c1.2,0.5,1.9,2.7,2.4,4.2c2.7,9,5.7,18,7.8,27.2c0.7,2.9-0.8,9-1.4,9c-5,0.2-4-4.6-4.9-7.6
	c-1.3-4.1-1.2-8.7-3-12.5c-3.6-7.8-5.3-17.1-14.5-21.1c-0.6-0.2-1.2-0.8-1.4-1.4c-3-9.3-10.2-17.7-7.2-28.5
	C91.4,421.1,91.9,420.8,92.5,420.5z"/>
<path style="fill:#FFFFFF;" d="M97.8,412.7c5.6,3.2,9.3,7.1,4.6,14.1c-4.4-3.6-9.1-6.9-13.1-10.9c-3.3-3.4-2.9-5.6-0.1-10.1
	c-1.8-1.1-4-2-5.4-3.5c-1.4-1.5-2-3.7-2.9-5.5c1.8-0.3,3.6-0.6,5.4-0.8c0.7-0.1,1.5,0.3,2.6-0.3c-2.6-0.9-5.2-2-7.8-2.8
	c-4.1-1.3-7.1-6.1-5.6-10c0.9-2.5,2.2-4.9,3.9-6.9c0.8-0.9,2.9-0.8,4.4-1c0.2,0,0.5,0.4,0.7,0.6c2.1,1.7,4.3,3.5,6.6,6.8
	c-2.8,0.6-5.7,1.3-9.1,2.1c6.2,4.5,12.2,8.9,19.6,14.2c-2.6,1.3-3.8,1.9-5.7,2.8C101.2,404.9,103.6,408.2,97.8,412.7z"/>
<path style="fill:#FFFFFF;" d="M60.5,369.8c1.5,5.1,3.5,10.7,4.7,16.4c1,5.2,1.2,10.5,1.6,15.8c0.1,0.8-0.7,1.7-1.1,2.5
	c-0.9-0.5-2.3-0.7-2.7-1.5c-0.9-1.6-1.8-3.5-1.7-5.2c0.6-8.3-3.2-15.4-5.8-22.9c-1-2.9-1.1-5.6,1.8-7.5c2-1.3,4.8-3.8,6.1-3.2
	c4.1,1.8,7.7,4.8,11.4,7.5c0.4,0.3,0.2,2.3-0.2,2.6c-0.8,0.6-2.3,0.9-3.2,0.5C67.5,373.3,63.9,371.5,60.5,369.8z"/>
<path style="fill:#FFFFFF;" d="M76.2,429.8c-1.3-1.8-3-3.2-2.8-4.1c1.2-4.9-2.4-6.3-5.4-8.3c-0.9-0.6-2.1-1.4-2.4-2.4
	c-0.5-1.6-0.4-3.3-0.6-5c1.5,0,3,0,4.3,0c0.2-1.4,0.4-3.2,0.6-5c1.9,0.5,3.8,0.9,5.6,1.7c1.6,0.7,3,2,5.3,3.6c-2,1.5-3.6,2.8-5.1,4
	c1.4,2.4,4,5,4.6,8.1C80.5,424.4,77.9,426.9,76.2,429.8z"/>
<path style="fill:#FFFFFF;" d="M70,359.7c-0.2-1.3-0.4-2.7-0.6-4c1.3,0,2.5-0.2,3.8-0.1c1.2,0.1,2.4,0.4,4.1,0.2
	c-4.7-2.1-3.7-5-1.8-7.9c2.5-4,5.2-7.9,8.5-12.9c1.9,5.4,3.3,9.4,4.8,13.8c-1.2-1-2.5-2-4-3.1c-2.7,1.1-3.3,2.9-2.6,5.9
	c0.5,2,0.1,4.6-0.7,6.6c-2.1,5.2-3.2,5.3-8,2.4c-1.1-0.7-2.5-0.8-3.7-1.2L70,359.7z"/>
<path style="fill:#FFFFFF;" d="M95.1,364.7c0.6,0.8,1.9,1.9,2.6,3.2c0.5,1,0.8,3,0.3,3.5c-1.1,1-2.9,2-4.2,1.8
	c-5-0.7-7.3-7.9-4.2-11.8c0.7-0.9,0.3-2.7,0.1-4c-0.6-3.7,1.5-5.7,5.1-4.5c0.8,0.2,1.8,0.6,2.1,1.2c1.4,2.5,3,5,3.6,7.7
	C100.6,362.2,97,363.7,95.1,364.7z"/>
<path style="fill:#FFFFFF;" d="M110.6,376.7c-2.4,4.3-4.1,7.7-6.1,10.8c-0.4,0.6-2.4,1.1-2.8,0.7c-1-0.8-2.1-2.2-2.2-3.5
	c-0.2-2.7,0.1-5.5,0.4-8.2c0.3-2.8,0.9-6.6,4.4-5.9C106.6,371.1,108.4,374.5,110.6,376.7z"/>
<path style="fill:#FFFFFF;" d="M132.7,313.1c4.1-1.6,4.8-4.2,4-7.8c-0.2-1.1,0.6-2.8,1.5-3.5c2.8-2.2,5.9-4.2,8.9-6.2
	c3.2,3.9,0.9,6.2-2.1,7.7c-2.7,1.4-3.4,3-2.7,5.9c0.3,1.4-0.1,4-0.9,4.5C138.9,314.9,136,316.9,132.7,313.1z"/>
<path style="fill:#FFFFFF;" d="M133.4,327.9c-4.4,1.7-8.8,3.4-14.2,5.4c0-2.4-0.4-5.2,0.1-5.4c4.3-1.3,8.8-2.2,13.3-3.2
	C132.8,325.9,133.1,326.9,133.4,327.9z"/>
<path style="fill:#FFFFFF;" d="M109.7,339.9c0.4-2,0.4-5.6,1.3-5.8c2.1-0.6,4.6,0.5,6.5,0.8c1,1.4,2.1,2.6,2.7,4
	c0.4,0.9,0.4,2.5-0.2,3.1c-0.5,0.5-2.1,0.5-3,0.2c-2-0.7-3.8-1.8-5.7-2.8C110.8,339.5,110.3,339.7,109.7,339.9z"/>
<path style="fill:#FFFFFF;" d="M129,320.8c3.4-1.5,6.8-3.1,10.3-4.4c0.9-0.3,2.7-0.2,2.9,0.2c0.5,1,0.7,2.6,0.2,3.6
	c-1.3,3.1-7.8,4.5-11.1,2.4C130.3,322,129.4,321.1,129,320.8z"/>
<path style="fill:#FFFFFF;" d="M107.7,359.8c2.4,2.6,4.8,4.1,5.1,5.9c0.2,1.2-2.7,2.8-4.1,4.3c-1.5-1.6-3.5-3-4.2-4.9
	C104,364.1,106,362.3,107.7,359.8z"/>
<path style="fill:#FFFFFF;" d="M117.5,356.7c-2.6,1.5-3.9,2.9-5.4,3c-3.2,0.3-5-1.9-4.8-4.8c0.1-1.3,2.6-3.6,3-3.4
	C112.6,352.6,114.4,354.3,117.5,356.7z"/>
<path style="fill:#FFFFFF;" d="M111.2,341.7c2.6,2,4.7,3.6,6.7,5.2c-1.5,0.9-3.4,2.9-4.5,2.6c-2.3-0.7-4.3-2.7-6.4-4.1
	C108.1,344.4,109.3,343.3,111.2,341.7z"/>
<path style="fill:#FFFFFF;" d="M69.8,359.5c0.3,1,0.6,2.1,1,3.3c-4.2,2.2-6,0.3-7.2-4.6c2.7,0.6,4.5,1.1,6.4,1.5
	C70,359.7,69.8,359.5,69.8,359.5z"/>
<path style="fill:#FFFFFF;" d="M71.5,400.2c-1.2-2.1-2.3-4.2-3.4-6.3c0-0.1,1.4-0.8,2.2-1.3c1.2,2.1,2.4,4.2,3.6,6.3
	C73.1,399.3,72.3,399.7,71.5,400.2z"/>
</svg>
