<?xml version="1.0" encoding="utf-8"?>
<!-- Generator: Adobe Illustrator 19.1.0, SVG Export Plug-In . SVG Version: 6.00 Build 0)  -->
<svg version="1.1" id="Release_Pilot_Chute_xA0_Image_1_"
	 xmlns="http://www.w3.org/2000/svg" xmlns:xlink="http://www.w3.org/1999/xlink" x="0px" y="0px" viewBox="0 0 358.2 511.4"
	 style="enable-background:new 0 0 358.2 511.4;" xml:space="preserve">
<path d="M80.6,218c11.2-6.9,17.5-15.8,18.8-27.9c0.8-7.7,2-15.5,1.5-23.2c-0.6-10.3-2.5-20.6-4.1-30.8c-1.9-11.8-4-23.6-6.2-35.3
	C88.9,91.9,86.9,83,85.3,74c-2.6-14.3-4.4-28.6-1.7-43.1c2.5-13.5,10.7-21.4,24-23.4c10.3-1.6,20.6-0.3,29.7,5.2
	c9.3,5.6,12.9,14.9,12.9,25.4c-0.1,14.3,1.8,28.4,4.7,42.3c2.7,12.6,6.3,24.9,9.7,37.3c0.5,1.8,2,3.4,3.7,6c1-2.3,2-3.8,2.1-5.4
	c0.4-4.5,0.7-9,0.6-13.5c-0.2-13.6-1.1-27.2,3.1-40.5c-6.7-4.2-13-8.8-13.3-16.9c-0.2-5.6,1.2-11.4,2.9-16.8
	c1.8-5.5,4.6-10.8,7.4-15.9c4.4-8,11-12.7,20.3-13.8c8.5-1,17-2.1,24.5,3.2c3.2,2.3,5.8,5.3,8.7,8c12.7-7.8,28.6-9.4,44.5,3
	c4.9,3.8,10.4,6.9,15.8,10c6.5,3.8,9.9,9.6,12.6,16.3c3.9,9.8,5.6,20,5.9,30.4c0.2,4.3,1.8,5.6,6.2,6.3c10.6,1.5,21.1,3.6,31.4,6.3
	c6,1.6,10.2,6.8,11.8,12.7c6.5,24.9,9.5,49.8-3.5,73.7c-3,5.5-6.6,10.6-10.4,15.5c-7.5,9.9-11.7,20.8-12.4,33.2
	c-0.4,6.5-1.7,12.9-2.2,19.3c-1,13.5-1.5,27-2.8,40.5c-1.8,18.9-3.5,37.9-9.5,56.2c-3.7,11.1-6.7,22.7-11.9,33.1
	c-4.6,9.1-8.7,17.9-8.8,28.2c-0.1,14.6-1,29.2-0.2,43.8c1,18.2,3.5,36.3,5,54.4c0.6,7.4-2.8,10.3-10.5,10.9
	c-12.7,1.1-25.4,3.3-38.2,4c-15.9,1-32,1.7-47.9,1.2c-22.4-0.6-44.8-2.5-67.2-3.9c-3.6-0.2-7.4-0.2-10.7-1.5c-2.2-0.8-5-3.6-5.1-5.6
	c-0.5-7.2-0.1-14.5,0.3-21.8c1-20.1,2.6-40.1,3.2-60.2c0.3-9.8-4.6-18.5-8.8-27c-1.3-2.6-4.8-4.3-7.5-6.1
	c-14-9.5-24.6-22.2-34.3-35.9c-12.8-18.2-26.3-35.8-38.9-54.1c-10.7-15.4-16.2-33-19.7-51.4c-3.2-16.6-6.8-33.1-10-49.7
	c-2-10-0.1-18.6,6.6-27.4c5.2-6.8,12.5-9.9,18.3-15.6c8.1-8,13.7-17.6,20-26.7c4.5-6.5,8.5-12.5,16.6-14.2
	c11-2.2,21.4,3.5,26.9,14.4c8.9,17.7,5.5,48.3-9.4,63.8c-2,2.1-3.1,4.1-2.5,7.4c0.9,4.6,0.7,9.5,1.2,14.2
	C78.6,212.5,79.7,214.9,80.6,218z M202.2,411c-1.1,0.9-1.4,1.3-1.6,1.3c-1.7,0.1-3.3,0-5,0.1c-11.2,0.9-22.6,2.6-31.6,9.3
	c-21.7,16-27.2,45.6-18.3,68.3c3.2,8.3,8.8,14.7,18.5,15.1c7.6,0.3,15.3,0.1,23.5,0.1c2.4-17.7,4.8-35.1,7.1-52.6c0.3,0,0.7,0,1,0
	c1,10.2,2.1,20.5,3.1,30.7c0.4,0,0.8,0,1.2-0.1c1.3-18,2.6-36.1,3.9-54.1c1.7,6.4,2.2,12.8,2.8,19.2c1.5,16.7,3.1,33.4,4.7,50.1
	c0.1,1.2,1.1,2.3,1.6,3.5c0.7-1.2,2-2.3,2.1-3.6c0.7-12.8,1.3-25.6,1.9-38.4c0.4-7,0.9-14,1.3-21c2,7.3,2.9,14.6,3.9,21.9
	c1.7,12.4,3.4,24.7,5,37.1c0.5,4.1,2.8,5.7,6.8,5.7c6-0.1,12-0.1,18-0.1c16-0.2,33.5-18.2,32.9-34.2c-0.6-17.7-8.2-32.1-22.4-42.5
	c-6.8-4.9-14.8-8.1-21.8-11.9c2.1-1.3,5-3,7.9-4.8c-0.1-0.7-0.2-1.4-0.3-2.1c-4.3-1.2-8.5-2.4-13.2-3.6c4.8-3,9.6-5.9,14.3-8.8
	c-0.1-0.2-0.3-0.5-0.4-0.7c-2.3,0.2-4.5,0.3-7.2,0.5c0.5-0.9,0.6-1.1,0.7-1.2c1-0.5,2-1.1,3.1-1.6c12.2-5.8,22.1-14.3,29.1-25.7
	c10-16.2,17-33.8,21.9-52.1c4.4-16.6,8.4-33.4,11.9-50.3c2.3-10.9,3.8-21.9,5-33c0.4-3.6-0.6-8-2.5-11.2
	c-4.1-7.1-9.1-13.7-13.8-20.4c0.2-0.3,0.4-0.6,0.7-0.9c5.9,4.3,11.8,8.6,17.8,12.9c0.4-2.5,0.3-5.2-1.2-6.9
	c-7.6-8.5-15.5-16.6-22.4-23.9c9.6,1.7,18.7,8.3,27.2,14.9c5.1-7.7,10.1-15.3,14.9-22.9c3.7-5.9,7.6-11.7,10.3-18.1
	c6.5-15.3,4.6-31.3,1.8-47.1c-0.4-2.3-1.3-4.6-2.1-7.4c-1.8,1.6-3.1,2.8-4.5,4.1c-0.7-2.3-1.3-4.2-1.9-6.3c-2,3.3-3.8,6.3-5.6,9.3
	c-1-1.6-1-2.7-0.9-3.8c1.4-8.9,0.1-11-8.6-13.7c-3.8-1.2-7.6-2.5-11.5-3.3c-3.1-0.6-6.4-0.4-9.6-0.6c-0.1,0.5-0.2,1-0.3,1.4
	c8,4.5,11.9,16.1,24.5,13.3c-1.4,1.3-2.7,2.2-4.1,2.5c-5.8,1.2-11.1,0.1-16-3.4c-2.9-2-6.3-3.7-9.8-4.5c-4.5-1.1-6.6,1-5.8,5.6
	c1.2,7.4,4.2,14.1,10.8,18.3c11.4,7.3,23.7,11,37.4,8.2c1.7-0.3,3.4-0.2,5.1-0.4c0.2,0.6,0.3,1.2,0.5,1.8
	c-8.4,3.2-16.9,6.4-26.1,9.9c5.6,3.7,11,7.3,17.1,11.4c-9.9-0.3-17.8-4-25.3-8.7c-0.3,0.4-0.6,0.8-0.9,1.2
	c4.3,4.1,8.7,8.2,13.3,12.5c-8.2,0.3-13.8-4.6-20.4-9c-2.6,11.5-0.3,21.7,4.6,31.9c-13.4-7.8-26.4-15.3-39.2-22.7
	c9.8-1.1,13.4-3.2,14.3-10.5c0.8-6.3,2.3-13.1-4.8-18.8c3.3,0.2,5.1,0.3,6.7,0.4c-2.5-4.2-4.7-7.9-6.9-11.6c0.3-0.2,0.7-0.3,1-0.5
	c2.9,1.4,5.9,2.8,8.8,4.2c0.2-0.4,0.5-0.8,0.7-1.2c-0.4-0.7-0.7-1.4-1.1-2c-7.9-9.5-7.5-19.6-2.8-30.3c2.6-5.9,5.4-11.8,7.3-17.9
	c3.2-10.3,3.5-20.3-4.4-29.1c-4.6-5.2-5.2-5.2-9.9-0.7c-0.8-1.9-1.6-3.8-2.5-5.7c-1.8,2-3.4,3.7-4.9,5.4c-0.4,0-0.8,0-1.2,0
	c2.8-12.3-5.3-16.8-13.9-20.6c-4.7-2.1-9.9-2.8-15.2-0.7c3.8,3.4,7,6.7,10.6,9.2c3.6,2.5,7.7,4.2,11.3,6.1
	c-8.3,2.4-15.1-2.2-22.1-5.9c-3.5-1.8-7.9-5-10.8-1.5c-2.2,2.6-1.6,7.6-2.2,11.6c-0.1,0.6,0.4,1.2,0.7,1.9
	c4.1,12.1,18.2,21.7,32.3,21.8c7.3,0.1,14.6,0,21.5,0c0,0-0.6,0.4-1.2,0.9c-6,4.6-11.6,9.3-14.1,16.9c-1.1,3.3-0.4,5.5,2.8,6.9
	c2.8,1.2,5.5,2.5,8.6,4c-5.4,2.8-11.6-0.7-16.2,4.1c2.4,2.2,4.3,4,7.2,6.6c-3.2,0-5.4,0.3-7.3-0.1c-3.6-0.8-5.3,0.6-6.5,4
	c-3.5,10.2-3.9,20.6-2.2,31c0.8,4.8,2.2,9.4,3.3,14.2c-36.7-16-74.9-19.2-114.4-16.6c1.4-1.6,2.4-2.8,3.5-4.1
	c5.6-6.7,8.3-14.4,6.8-23.2c-1.7-9.8-3.6-19.5-5.5-29.7c-5,0.4-9.8,1.2-14.5,1.2c-4.5,0-9.3,0.7-14.7-1.9c2-0.8,2.9-1.6,3.7-1.5
	c7.4,0.8,13.5-2.9,19.7-6c5.6-2.7,6.2-5.9,2-11.6c-6,9-16,10-25.2,12.9c-4.3,1.3-8.1,4.2-11.9,6.7c-0.5,0.3,0.1,3.7,0.8,4
	c6.6,2.6,13,6.1,20.6,4c1.4-0.4,3.1,0.3,4.7,0.4c-9,5.3-18.7,5.8-28.9,5.4c0.4,2,0.7,3.3,0.9,4.6c0.3,1.5,0.4,3,0.7,4.4
	c3.6,14.6,5.8,30,23,36.3c-2.3,2.1-4.3,3.8-7,6.2c3.4-0.3,5.6-0.5,9.3-0.9c-3.7,3.1-6.4,5.3-9,7.5c-5.6,4.8-9.1,10.8-8.3,18.3
	c1,9.4,1.8,18.9,4,28.1c2.1,9,5.2,17.9,12.4,24.5c2.1,1.9,4.3,3.8,5.8,5.1c-11.2,1.8-22.9,2.8-34.1,5.7c-11.9,3-20.6,10.9-26.1,22.8
	c-0.5-4.1-0.6-7.6-1.4-10.8c-2.1-8.3-6.6-9.6-13.2-4.1c-2,1.7-4,3.5-6.5,5.8c0.9-7.2,4.2-13.8,9.5-20c4.8-5.7,5.9-13.1,2.5-18.9
	c-7.3,2.5-14.7,3.8-22.8,2.4c0.7-0.8,0.8-1.2,1.1-1.3c24.2-8.7,38.6-26,43-51c2.3-12.6-0.7-24.2-12.3-32c-7-4.7-12.8-2.4-14.9,5.7
	c-1.1,4.3-2.7,8.5-4.8,12.4c-2.7,5-6.1,9.7-9.7,15.4c8-0.8,13.3-4,17.4-9.7c4.1-5.8,4.4-12.3,3.7-19.1c4.5,8.3,4.6,16.6,0.2,24.6
	C58,161.2,48,166.1,34.4,164.2c1.5,2.3,2.5,3.9,4,6.3c-3.5-0.3-6.1-0.6-9.2-0.9c1.6,2.2,2.9,3.8,4.7,6.3c-3.2-0.6-5.2-1.1-7.3-1.4
	c-1.4-0.2-3.2-0.6-4.3,0c-3.3,1.7-5.5,13.5-2.8,16.2c3.1,3.3,6.7,6.2,10.1,9.3c-0.3,0.4-0.6,0.9-1,1.3c-3.2-0.7-6.5-1.4-9.7-2
	c-0.3,0.4-0.6,0.8-0.9,1.2c1.2,1.6,2.1,3.7,3.7,4.6c5.9,3.5,12.1,6.7,18.2,10c1.4,0.7,2.9,1.2,4.4,1.8c-0.2,0.5-0.3,1.1-0.5,1.6
	c-7.4-0.6-14.8-1.1-22.7-1.7c3.1,6.5,10.2,7.6,16.1,11.8c-5,0.8-9,1.4-13,2c0.4,2.3,0.6,4.1,1.1,5.8c3.3,11.1,5.7,22.6,10.2,33.2
	c4.6,10.9,13.5,13.8,24.8,10.3c2.9-0.9,5.8-1.9,8.7-2.9c0.2,1,0.4,1.3,0.4,1.6c-0.1,0.7-0.3,1.3-0.4,1.9c-3,10.6-2.4,21,0.9,31.4
	c10.1,31.3,45.8,55.5,77.5,52.1c16-1.7,28.8-9.3,35.3-25.4c8.1-20.1,9.4-40.5,5.2-61.6c-4.7-23.8-14.6-45-29.2-64.2
	c-3.1-4.1-6.6-7.9-10.3-11.5c-3.6-3.4-7.6-6.4-11.4-9.6c13.9,6.8,24.8,17.4,34.1,29.3c10.9,13.9,19.6,29.3,25.1,46.3
	c7.9,24.3,10.8,48.6,2.7,73.4c-2.6,7.9-5.5,15.6-7.7,23.6c-3.3,12.3-1.2,17.3,9.4,24.3c3,1.9,6.1,3.7,9.1,5.5
	c-0.1,0.3-0.1,0.7-0.2,1c-3.7-0.2-7.4-0.4-11-0.6c-0.1,0.3-0.1,0.6-0.2,0.9c3.1,2.2,6.2,4.5,9.8,7.1c-6.8,1.7-12.7,3.2-18.6,4.7
	c0,0.3,0,0.7,0,1C193.5,409.3,197.5,410,202.2,411z M201.5,82.2c0.1-0.4,0.2-0.9,0.3-1.3c5.1-2.8,10.5-5.2,15.1-8.6
	c4.2-3.1,3.5-6.6-1.3-8.9c-1.6-0.7-3.8-0.8-5.6-0.4c-5.2,1-10.3,2.3-15.5,3.4c-2.1,0.5-4.1,0.9-6.2,1.3c0,0.6,0.1,1.2,0.1,1.8
	c6.7,0.6,13.4,1.2,21,1.8c-7.2,3.2-13.9,5.5-21.5,5.3c-1.8,0-5,1.2-5.3,2.5c-3.1,11.4-2.8,22.7,2.9,33.3
	c5.8,10.7,20.8,14.1,27.4,3.5c6.9-11,7.9-23.5,8.7-35.3C214.6,81.2,208.1,81.7,201.5,82.2z M92.9,30.4c-1.4,7.2,2.7,14.6,9.9,19.3
	c8.6,5.6,18,5.3,27.4,3.9c5.9-0.9,10.3-5,11.1-10.8c1.3-10-1-19.2-11.6-24.1c-9.4-4.4-19.1-4.1-28.5,0.1c-1.7,0.7-2.5,3.2-3.8,4.9
	c2.1,0.9,4.2,2.7,6.3,2.7c5.1-0.1,10.2-1.3,15.3-1.4c5.1-0.1,10,1.4,12.8,4.9c-6.4,0.6-13.3,0.4-19.7,2.1
	C105.4,33.7,99.1,35.6,92.9,30.4z M180.4,47.9c9.2,5.3,17.7,7.3,26.8,5.1c6.1-1.5,9.2-5.8,10.2-12c1.4-9.1-0.8-17.4-4.8-25.4
	c-3.8-7.5-9.2-9.7-17.9-7.5c1.5,1,2.8,1.9,4.7,3.1c-3.3,0.6-5.9,0.8-8.4,1.5c-2.3,0.6-4.5,1.6-6.7,2.4c8.8-0.4,16.9,1.2,22.6,5.4
	c7.2,5.3,7,18.4-0.6,22.3c0.2-1.6,0.4-3.1,0.6-4.6c1.3-7.5-0.7-11.7-8-13.6c-5-1.3-10.4-1.1-15.6-1.4c-5.2-0.4-6.9,2.8-7.2,7.4
	c-0.6,7.8,0,9.6,5.7,11.3c4.7,1.4,9.6,2.2,14.5,3.2c0,0.2,0.1,0.5,0.1,0.7C191.5,46.4,186.7,47.1,180.4,47.9z M230.9,121.3
	c1.1-1.6,2-2.4,2.4-3.4c2.2-6,3.9-12.3,6.4-18.1c4.6-10.4,8.6-20.4,2.9-32.1c-2.1-4.4-4.5-6.1-7.8-7.1
	C233.5,80.7,232.2,100.5,230.9,121.3z"/>
<path style="fill:#FFFFFF;" d="M202.2,411c-4.7-0.9-8.7-1.7-12.7-2.5c0-0.3,0-0.7,0-1c5.9-1.5,11.8-3,18.6-4.7
	c-3.6-2.7-6.7-4.9-9.8-7.1c0.1-0.3,0.1-0.6,0.2-0.9c3.7,0.2,7.4,0.4,11,0.6c0.1-0.3,0.1-0.7,0.2-1c-3.1-1.8-6.2-3.6-9.1-5.5
	c-10.6-6.9-12.8-12-9.4-24.3c2.2-8,5.1-15.7,7.7-23.6c8.1-24.8,5.2-49.1-2.7-73.4c-5.5-17.1-14.2-32.4-25.1-46.3
	c-9.3-11.9-20.2-22.4-34.1-29.3c3.8,3.2,7.8,6.2,11.4,9.6c3.7,3.6,7.2,7.4,10.3,11.5c14.6,19.2,24.5,40.4,29.2,64.2
	c4.2,21.1,2.9,41.6-5.2,61.6c-6.5,16-19.4,23.7-35.3,25.4c-31.7,3.4-67.4-20.8-77.5-52.1c-3.4-10.4-3.9-20.8-0.9-31.4
	c0.2-0.6,0.4-1.3,0.4-1.9c0-0.3-0.1-0.6-0.4-1.6c-2.9,1-5.8,2-8.7,2.9c-11.3,3.4-20.2,0.5-24.8-10.3c-4.5-10.6-6.9-22.1-10.2-33.2
	c-0.5-1.7-0.7-3.6-1.1-5.8c4-0.6,7.9-1.2,13-2c-5.9-4.3-13-5.3-16.1-11.8c7.9,0.6,15.3,1.2,22.7,1.7c0.2-0.5,0.3-1.1,0.5-1.6
	c-1.5-0.6-3-1.1-4.4-1.8c-6.1-3.3-12.3-6.5-18.2-10c-1.6-0.9-2.5-3-3.7-4.6c0.3-0.4,0.6-0.8,0.9-1.2c3.2,0.7,6.5,1.4,9.7,2
	c0.3-0.4,0.6-0.9,1-1.3c-3.4-3.1-7-5.9-10.1-9.3c-2.6-2.8-0.5-14.6,2.8-16.2c1.1-0.6,2.9-0.1,4.3,0c2.1,0.3,4.2,0.8,7.3,1.4
	c-1.9-2.5-3.1-4.1-4.7-6.3c3.1,0.3,5.7,0.5,9.2,0.9c-1.5-2.4-2.6-4-4-6.3c13.6,2,23.6-2.9,29.9-14.4c4.4-8,4.3-16.3-0.2-24.6
	c0.7,6.8,0.4,13.3-3.7,19.1c-4.1,5.7-9.5,8.9-17.4,9.7c3.6-5.7,7-10.3,9.7-15.4c2.1-3.9,3.7-8.2,4.8-12.4c2.2-8.1,7.9-10.5,14.9-5.7
	c11.6,7.8,14.6,19.4,12.3,32c-4.5,25-18.8,42.4-43,51c-0.3,0.1-0.4,0.5-1.1,1.3c8.1,1.4,15.6,0.1,22.8-2.4
	c3.4,5.9,2.3,13.3-2.5,18.9c-5.3,6.2-8.6,12.8-9.5,20c2.6-2.3,4.5-4.1,6.5-5.8c6.6-5.6,11.1-4.2,13.2,4.1c0.8,3.3,0.9,6.7,1.4,10.8
	c5.6-11.9,14.3-19.8,26.1-22.8c11.2-2.9,22.9-3.9,34.1-5.7c-1.5-1.3-3.6-3.2-5.8-5.1c-7.2-6.6-10.3-15.5-12.4-24.5
	c-2.1-9.2-3-18.7-4-28.1c-0.8-7.5,2.7-13.5,8.3-18.3c2.6-2.2,5.2-4.4,9-7.5c-3.6,0.4-5.8,0.6-9.3,0.9c2.7-2.4,4.7-4.1,7-6.2
	c-17.2-6.3-19.5-21.7-23-36.3c-0.4-1.5-0.5-3-0.7-4.4c-0.2-1.3-0.5-2.5-0.9-4.6c10.2,0.4,19.9-0.1,28.9-5.4
	c-1.6-0.2-3.3-0.8-4.7-0.4c-7.6,2.1-14-1.4-20.6-4c-0.7-0.3-1.3-3.7-0.8-4c3.8-2.5,7.6-5.4,11.9-6.7c9.2-2.9,19.1-3.9,25.2-12.9
	c4.2,5.7,3.6,8.9-2,11.6c-6.2,3-12.3,6.8-19.7,6c-0.8-0.1-1.7,0.7-3.7,1.5c5.4,2.6,10.2,1.9,14.7,1.9c4.8,0,9.6-0.8,14.5-1.2
	c1.9,10.2,3.8,19.9,5.5,29.7c1.5,8.8-1.2,16.4-6.8,23.2c-1,1.2-2.1,2.5-3.5,4.1c39.5-2.6,77.6,0.6,114.4,16.6
	c-1.1-4.7-2.5-9.4-3.3-14.2c-1.7-10.5-1.4-20.9,2.2-31c1.2-3.4,2.8-4.8,6.5-4c2,0.4,4.1,0.1,7.3,0.1c-2.9-2.6-4.8-4.5-7.2-6.6
	c4.7-4.8,10.9-1.3,16.2-4.1c-3.2-1.5-5.9-2.8-8.6-4c-3.2-1.4-3.9-3.5-2.8-6.9c2.4-7.6,8.1-12.3,14.1-16.9c0.6-0.5,1.2-0.9,1.2-0.9
	c-6.9,0-14.2,0.1-21.5,0c-14.1-0.1-28.2-9.7-32.3-21.8c-0.2-0.6-0.7-1.3-0.7-1.9c0.6-3.9,0-8.9,2.2-11.6c2.9-3.5,7.4-0.4,10.8,1.5
	c7.1,3.7,13.8,8.3,22.1,5.9c-3.6-1.9-7.7-3.6-11.3-6.1c-3.7-2.5-6.8-5.8-10.6-9.2c5.4-2.1,10.6-1.4,15.2,0.7
	c8.6,3.8,16.7,8.4,13.9,20.6c0.4,0,0.8,0,1.2,0c1.6-1.7,3.1-3.5,4.9-5.4c0.8,1.9,1.6,3.8,2.5,5.7c4.8-4.5,5.3-4.4,9.9,0.7
	c7.9,8.7,7.6,18.8,4.4,29.1c-1.9,6.1-4.7,12-7.3,17.9c-4.7,10.7-5.1,20.8,2.8,30.3c0.5,0.6,0.8,1.4,1.1,2c-0.2,0.4-0.5,0.8-0.7,1.2
	c-2.9-1.4-5.9-2.8-8.8-4.2c-0.3,0.2-0.7,0.3-1,0.5c2.2,3.7,4.5,7.5,6.9,11.6c-1.6-0.1-3.4-0.2-6.7-0.4c7.1,5.7,5.6,12.5,4.8,18.8
	c-0.9,7.2-4.5,9.4-14.3,10.5c12.8,7.4,25.7,14.9,39.2,22.7c-4.9-10.1-7.2-20.4-4.6-31.9c6.5,4.4,12.1,9.3,20.4,9
	c-4.6-4.3-9-8.4-13.3-12.5c0.3-0.4,0.6-0.8,0.9-1.2c7.6,4.7,15.5,8.4,25.3,8.7c-6.1-4.1-11.5-7.7-17.1-11.4
	c9.3-3.5,17.7-6.7,26.1-9.9c-0.2-0.6-0.3-1.2-0.5-1.8c-1.7,0.1-3.5,0-5.1,0.4c-13.7,2.7-26-1-37.4-8.2c-6.6-4.2-9.6-10.8-10.8-18.3
	c-0.7-4.6,1.3-6.7,5.8-5.6c3.4,0.8,6.9,2.5,9.8,4.5c5,3.5,10.2,4.6,16,3.4c1.4-0.3,2.7-1.2,4.1-2.5c-12.6,2.8-16.5-8.9-24.5-13.3
	c0.1-0.5,0.2-1,0.3-1.4c3.2,0.2,6.5,0,9.6,0.6c3.9,0.8,7.7,2.1,11.5,3.3c8.6,2.7,9.9,4.8,8.6,13.7c-0.2,1.1-0.1,2.2,0.9,3.8
	c1.8-3,3.6-5.9,5.6-9.3c0.6,2.1,1.2,3.9,1.9,6.3c1.5-1.3,2.7-2.4,4.5-4.1c0.8,2.7,1.7,5,2.1,7.4c2.7,15.8,4.7,31.7-1.8,47.1
	c-2.7,6.3-6.7,12.2-10.3,18.1c-4.8,7.7-9.9,15.2-14.9,22.9c-8.5-6.6-17.6-13.2-27.2-14.9c6.9,7.3,14.8,15.5,22.4,23.9
	c1.4,1.6,1.6,4.4,1.2,6.9c-5.9-4.3-11.8-8.6-17.8-12.9c-0.2,0.3-0.4,0.6-0.7,0.9c4.7,6.8,9.7,13.3,13.8,20.4
	c1.8,3.2,2.9,7.5,2.5,11.2c-1.2,11.1-2.7,22.1-5,33c-3.6,16.9-7.5,33.7-11.9,50.3c-4.9,18.3-11.9,36-21.9,52.1
	c-7.1,11.4-17,19.9-29.1,25.7c-1,0.5-2,1-3.1,1.6c-0.1,0.1-0.2,0.3-0.7,1.2c2.7-0.2,5-0.3,7.2-0.5c0.1,0.2,0.3,0.5,0.4,0.7
	c-4.7,2.9-9.5,5.8-14.3,8.8c4.6,1.3,8.9,2.5,13.2,3.6c0.1,0.7,0.2,1.4,0.3,2.1c-2.9,1.8-5.8,3.5-7.9,4.8c7,3.8,15.1,7,21.8,11.9
	c14.2,10.4,21.8,24.8,22.4,42.5c0.5,16-17,34-32.9,34.2c-6,0.1-12,0-18,0.1c-4,0.1-6.2-1.6-6.8-5.7c-1.6-12.4-3.3-24.7-5-37.1
	c-1-7.3-2-14.6-3.9-21.9c-0.4,7-0.9,14-1.3,21c-0.7,12.8-1.2,25.6-1.9,38.4c-0.1,1.2-1.4,2.4-2.1,3.6c-0.6-1.2-1.5-2.3-1.6-3.5
	c-1.6-16.7-3.2-33.4-4.7-50.1c-0.6-6.4-1.1-12.8-2.8-19.2c-1.3,18-2.6,36.1-3.9,54.1c-0.4,0-0.8,0-1.2,0.1
	c-1-10.2-2.1-20.5-3.1-30.7c-0.3,0-0.7,0-1,0c-2.4,17.4-4.7,34.9-7.1,52.6c-8.2,0-15.9,0.3-23.5-0.1c-9.8-0.4-15.3-6.9-18.5-15.1
	c-8.9-22.6-3.4-52.3,18.3-68.3c9.1-6.7,20.4-8.4,31.6-9.3c1.7-0.1,3.3,0,5-0.1C200.9,412.2,201.1,411.9,202.2,411z M171.6,156
	c3.8,4.4,7.4,8.5,10.9,12.8c8,9.8,15.3,20.1,23.9,29.2c13.4,14.1,29.6,23.2,49.3,25.5c10.7,1.3,21.4,2.9,31.9,5.1
	c5.9,1.3,11.4,4.1,18.1,6.7c-9.5-10.6-21-15.1-33.3-17.8c-17.2-3.8-34.7-7.5-48.8-18.8c-11.8-9.4-22.5-20.1-33.7-30.3
	C184.5,163.6,179.4,158,171.6,156z M196.9,228.2c-0.5,0.3-1,0.7-1.4,1c0,0.5-0.1,1,0.1,1.4c0.4,1.2,1,2.5,1.5,3.7
	c9.5,22.2,13.6,45.4,12.8,69.4c-0.6,17.5-1.8,34.9,1.8,52.2c1.7,8.4,4.2,16.6,10.2,23.8c-1.2-7.3-3.3-14-3.3-20.7
	c0-14.9,0.7-29.9,1.7-44.8c1.6-22.8-0.6-44.8-11.1-65.4C205.5,241.7,201,235.1,196.9,228.2z M264.4,270.7c-2.6-1.3-5.4-2.5-7.9-4
	c-12.4-7.1-21.5-17.6-30-28.8c-14.2-18.8-30.1-35.6-52-45.4c-8.1-3.6-16.6-6-25-9c-0.2,0.5-0.4,1-0.6,1.5c1.2,0.8,2.3,1.7,3.6,2.3
	c21.7,11.2,39.5,27.2,55.6,45.4c9.1,10.3,19,19.9,29.4,28.8C244.9,267.8,254,271.6,264.4,270.7z"/>
<path style="fill:#FFFFFF;" d="M201.5,82.2c6.6-0.5,13.1-1,20.2-1.5c-0.8,11.8-1.8,24.3-8.7,35.3c-6.6,10.6-21.6,7.2-27.4-3.5
	c-5.8-10.6-6-21.9-2.9-33.3c0.3-1.3,3.5-2.5,5.3-2.5c7.5,0.2,14.2-2.1,21.5-5.3c-7.5-0.7-14.3-1.2-21-1.8c0-0.6-0.1-1.2-0.1-1.8
	c2.1-0.4,4.1-0.8,6.2-1.3c5.2-1.2,10.3-2.5,15.5-3.4c1.8-0.3,4-0.3,5.6,0.4c4.8,2.2,5.6,5.8,1.3,8.9c-4.6,3.4-10,5.7-15.1,8.6
	C201.7,81.4,201.6,81.8,201.5,82.2z"/>
<path style="fill:#FFFFFF;" d="M92.9,30.4c6.1,5.2,12.4,3.3,19.2,1.5c6.4-1.6,13.3-1.5,19.7-2.1c-2.8-3.5-7.7-5-12.8-4.9
	c-5.1,0.1-10.2,1.3-15.3,1.4c-2.1,0-4.2-1.7-6.3-2.7c1.2-1.7,2.1-4.2,3.8-4.9c9.4-4.2,19.1-4.4,28.5-0.1
	c10.6,4.9,12.9,14.1,11.6,24.1c-0.7,5.8-5.1,9.9-11.1,10.8c-9.4,1.4-18.8,1.7-27.4-3.9C95.6,45,91.5,37.6,92.9,30.4z"/>
<path style="fill:#FFFFFF;" d="M180.4,47.9c6.4-0.9,11.2-1.5,16-2.2c0-0.2-0.1-0.5-0.1-0.7c-4.8-1.1-9.7-1.8-14.5-3.2
	c-5.7-1.7-6.3-3.5-5.7-11.3c0.4-4.6,2-7.7,7.2-7.4c5.2,0.4,10.6,0.1,15.6,1.4c7.3,2,9.2,6.2,8,13.6c-0.2,1.5-0.4,2.9-0.6,4.6
	c7.5-3.9,7.7-17,0.6-22.3c-5.7-4.2-13.8-5.8-22.6-5.4c2.2-0.8,4.4-1.8,6.7-2.4c2.5-0.6,5.1-0.9,8.4-1.5c-1.9-1.3-3.2-2.1-4.7-3.1
	c8.7-2.2,14.1,0,17.9,7.5c4,8,6.3,16.3,4.8,25.4c-1,6.2-4.2,10.5-10.2,12C198,55.2,189.6,53.2,180.4,47.9z"/>
<path style="fill:#FFFFFF;" d="M230.9,121.3c1.4-20.8,2.6-40.6,4-60.7c3.2,1,5.6,2.7,7.8,7.1c5.7,11.7,1.7,21.7-2.9,32.1
	c-2.6,5.9-4.3,12.1-6.4,18.1C232.9,118.9,232,119.7,230.9,121.3z"/>
<path d="M171.6,156c7.8,1.9,12.9,7.5,18.4,12.5c11.2,10.2,21.9,20.9,33.7,30.3c14.1,11.3,31.5,14.9,48.8,18.8
	c12.2,2.7,23.8,7.2,33.3,17.8c-6.7-2.5-12.3-5.4-18.1-6.7c-10.5-2.2-21.2-3.8-31.9-5.1c-19.7-2.4-36-11.5-49.3-25.5
	c-8.6-9.1-15.9-19.5-23.9-29.2C179,164.6,175.4,160.5,171.6,156z"/>
<path d="M196.9,228.2c4.1,6.9,8.6,13.6,12.3,20.7c10.5,20.6,12.7,42.7,11.1,65.4c-1,14.9-1.7,29.8-1.7,44.8c0,6.7,2.1,13.4,3.3,20.7
	c-6-7.2-8.5-15.3-10.2-23.8c-3.6-17.3-2.3-34.8-1.8-52.2c0.8-24.1-3.4-47.3-12.8-69.4c-0.5-1.2-1-2.4-1.5-3.7
	c-0.2-0.4-0.1-1-0.1-1.4C195.9,228.8,196.4,228.5,196.9,228.2z"/>
<path d="M264.4,270.7c-10.4,0.9-19.6-2.9-27-9.2c-10.4-8.9-20.4-18.5-29.4-28.8c-16.1-18.2-33.8-34.2-55.6-45.4
	c-1.2-0.6-2.4-1.5-3.6-2.3c0.2-0.5,0.4-1,0.6-1.5c8.3,3,16.9,5.4,25,9c21.9,9.7,37.8,26.5,52,45.4c8.4,11.2,17.6,21.7,30,28.8
	C259.1,268.2,261.8,269.4,264.4,270.7z"/>
</svg>
